Gabriela-Regular.ufo
<glyph name="exclam" format="2">
  <advance width="246"/>
  <unicode hex="0021"/>
  <outline>
    <contour>
      <point x="62" y="51" type="curve" smooth="yes"/>
      <point x="62" y="25"/>
      <point x="100" y="-14"/>
      <point x="123" y="-14" type="curve" smooth="yes"/>
      <point x="148" y="-14"/>
      <point x="186" y="25"/>
      <point x="186" y="51" type="curve" smooth="yes"/>
      <point x="186" y="77"/>
      <point x="148" y="117"/>
      <point x="123" y="117" type="curve" smooth="yes"/>
      <point x="99" y="117"/>
      <point x="62" y="77"/>
    </contour>
    <contour>
      <point x="123" y="767" type="curve" smooth="yes"/>
      <point x="96" y="767"/>
      <point x="75" y="759"/>
      <point x="60" y="742" type="curve"/>
      <point x="60" y="662"/>
      <point x="78" y="443"/>
      <point x="98" y="243" type="curve" smooth="yes"/>
      <point x="101" y="214"/>
      <point x="109" y="198"/>
      <point x="123" y="198" type="curve" smooth="yes"/>
      <point x="137" y="198"/>
      <point x="145" y="214"/>
      <point x="148" y="243" type="curve" smooth="yes"/>
      <point x="168" y="443"/>
      <point x="186" y="662"/>
      <point x="186" y="742" type="curve"/>
      <point x="170" y="759"/>
      <point x="149" y="767"/>
    </contour>
  </outline>
</glyph>
<glyph name="quotedbl" format="2">
  <advance width="343"/>
  <unicode hex="0022"/>
  <outline>
    <contour>
      <point x="89" y="834" type="curve"/>
      <point x="67" y="834"/>
      <point x="50" y="824"/>
      <point x="38" y="804" type="curve"/>
      <point x="38" y="761"/>
      <point x="52" y="662"/>
      <point x="69" y="591" type="curve" smooth="yes"/>
      <point x="72" y="579"/>
      <point x="77" y="572"/>
      <point x="89" y="572" type="curve" smooth="yes"/>
      <point x="101" y="572"/>
      <point x="106" y="579"/>
      <point x="109" y="591" type="curve" smooth="yes"/>
      <point x="129" y="675"/>
      <point x="140" y="768"/>
      <point x="140" y="804" type="curve"/>
      <point x="128" y="824"/>
      <point x="110" y="834"/>
    </contour>
    <contour>
      <point x="254" y="834" type="curve" smooth="yes"/>
      <point x="232" y="834"/>
      <point x="215" y="824"/>
      <point x="203" y="804" type="curve"/>
      <point x="203" y="761"/>
      <point x="217" y="662"/>
      <point x="234" y="591" type="curve" smooth="yes"/>
      <point x="237" y="579"/>
      <point x="242" y="572"/>
      <point x="254" y="572" type="curve" smooth="yes"/>
      <point x="266" y="572"/>
      <point x="271" y="579"/>
      <point x="274" y="591" type="curve" smooth="yes"/>
      <point x="294" y="675"/>
      <point x="305" y="768"/>
      <point x="305" y="804" type="curve"/>
      <point x="293" y="824"/>
      <point x="275" y="834"/>
    </contour>
  </outline>
</glyph>
<glyph name="numbersign" format="2">
  <advance width="696"/>
  <unicode hex="0023"/>
  <outline>
    <contour>
      <point x="106" y="424" type="line"/>
      <point x="205" y="424" type="line"/>
      <point x="168" y="290" type="line"/>
      <point x="68" y="290" type="line"/>
      <point x="50" y="224" type="line"/>
      <point x="150" y="224" type="line"/>
      <point x="88" y="0" type="line"/>
      <point x="159" y="0" type="line"/>
      <point x="221" y="224" type="line"/>
      <point x="400" y="224" type="line"/>
      <point x="338" y="0" type="line"/>
      <point x="409" y="0" type="line"/>
      <point x="471" y="224" type="line"/>
      <point x="571" y="224" type="line"/>
      <point x="590" y="290" type="line"/>
      <point x="490" y="290" type="line"/>
      <point x="527" y="424" type="line"/>
      <point x="627" y="424" type="line"/>
      <point x="646" y="490" type="line"/>
      <point x="546" y="490" type="line"/>
      <point x="609" y="718" type="line"/>
      <point x="537" y="718" type="line"/>
      <point x="474" y="490" type="line"/>
      <point x="296" y="490" type="line"/>
      <point x="359" y="718" type="line"/>
      <point x="287" y="718" type="line"/>
      <point x="224" y="490" type="line"/>
      <point x="124" y="490" type="line"/>
    </contour>
    <contour>
      <point x="277" y="424" type="line"/>
      <point x="455" y="424" type="line"/>
      <point x="418" y="290" type="line"/>
      <point x="240" y="290" type="line"/>
    </contour>
  </outline>
</glyph>
<glyph name="dollar" format="2">
  <advance width="581"/>
  <unicode hex="0024"/>
  <outline>
    <contour>
      <point x="286" y="56" type="curve" smooth="yes"/>
      <point x="217" y="56"/>
      <point x="152" y="96"/>
      <point x="152" y="170" type="curve" smooth="yes"/>
      <point x="152" y="223"/>
      <point x="182" y="247"/>
      <point x="182" y="256" type="curve" smooth="yes"/>
      <point x="182" y="268"/>
      <point x="176" y="268"/>
      <point x="161" y="268" type="curve" smooth="yes"/>
      <point x="100" y="268"/>
      <point x="54" y="225"/>
      <point x="54" y="162" type="curve" smooth="yes"/>
      <point x="54" y="64"/>
      <point x="147" y="10"/>
      <point x="253" y="1" type="curve"/>
      <point x="253" y="-153" type="line"/>
      <point x="275" y="-153"/>
      <point x="303" y="-147"/>
      <point x="316" y="-129" type="curve"/>
      <point x="316" y="1" type="line"/>
      <point x="433" y="12"/>
      <point x="509" y="87"/>
      <point x="509" y="186" type="curve" smooth="yes"/>
      <point x="509" y="420"/>
      <point x="161" y="352"/>
      <point x="161" y="555" type="curve" smooth="yes"/>
      <point x="161" y="606"/>
      <point x="197" y="662"/>
      <point x="277" y="662" type="curve" smooth="yes"/>
      <point x="328" y="662"/>
      <point x="380" y="632" name=".hr01"/>
      <point x="380" y="573" type="curve" smooth="yes"/>
      <point x="380" y="520"/>
      <point x="350" y="496"/>
      <point x="350" y="487" type="curve" smooth="yes"/>
      <point x="350" y="475"/>
      <point x="357" y="475"/>
      <point x="371" y="475" type="curve" smooth="yes"/>
      <point x="431" y="475"/>
      <point x="478" y="519"/>
      <point x="478" y="581" type="curve" smooth="yes"/>
      <point x="478" y="660"/>
      <point x="404" y="705"/>
      <point x="316" y="715" type="curve"/>
      <point x="316" y="872" type="line"/>
      <point x="295" y="872"/>
      <point x="267" y="866"/>
      <point x="253" y="848" type="curve"/>
      <point x="253" y="717" type="line"/>
      <point x="124" y="708"/>
      <point x="66" y="614"/>
      <point x="66" y="529" type="curve" smooth="yes"/>
      <point x="66" y="285"/>
      <point x="408" y="334" name=".hr02"/>
      <point x="408" y="169" type="curve" smooth="yes"/>
      <point x="408" y="97"/>
      <point x="349" y="56"/>
    </contour>
  </outline>
</glyph>
<glyph name="ampersand" format="2">
  <advance width="668"/>
  <unicode hex="0026"/>
  <outline>
    <contour>
      <point x="303" y="376" type="curve"/>
      <point x="312" y="376"/>
      <point x="316" y="388"/>
      <point x="316" y="396" type="curve" smooth="yes"/>
      <point x="316" y="405"/>
      <point x="311" y="418"/>
      <point x="302" y="418" type="curve" smooth="yes"/>
      <point x="237" y="418"/>
      <point x="180" y="464"/>
      <point x="180" y="558" type="curve" smooth="yes"/>
      <point x="180" y="622"/>
      <point x="223" y="686"/>
      <point x="306" y="686" type="curve" smooth="yes"/>
      <point x="364" y="686"/>
      <point x="398" y="652"/>
      <point x="398" y="602" type="curve" smooth="yes"/>
      <point x="398" y="557"/>
      <point x="377" y="543"/>
      <point x="377" y="535" type="curve" smooth="yes"/>
      <point x="377" y="528"/>
      <point x="384" y="525"/>
      <point x="398" y="525" type="curve" smooth="yes"/>
      <point x="452" y="525"/>
      <point x="485" y="561"/>
      <point x="485" y="612" type="curve" smooth="yes"/>
      <point x="485" y="683"/>
      <point x="410" y="732"/>
      <point x="317" y="732" type="curve" smooth="yes"/>
      <point x="152" y="732"/>
      <point x="70" y="642"/>
      <point x="70" y="552" type="curve" smooth="yes"/>
      <point x="70" y="460"/>
      <point x="127" y="407"/>
      <point x="212" y="386" type="curve"/>
      <point x="92" y="355"/>
      <point x="30" y="281" name=".hr01"/>
      <point x="30" y="192" type="curve" smooth="yes"/>
      <point x="30" y="60"/>
      <point x="132" y="-14"/>
      <point x="285" y="-14" type="curve" smooth="yes"/>
      <point x="458" y="-14"/>
      <point x="518" y="81"/>
      <point x="518" y="158" type="curve" smooth="yes"/>
      <point x="518" y="199"/>
      <point x="499" y="236"/>
      <point x="470" y="262" type="curve"/>
      <point x="559" y="269"/>
      <point x="668" y="294"/>
      <point x="668" y="394" type="curve" smooth="yes"/>
      <point x="668" y="457"/>
      <point x="618" y="497"/>
      <point x="562" y="497" type="curve" smooth="yes"/>
      <point x="544" y="497"/>
      <point x="518" y="492"/>
      <point x="518" y="482" type="curve" smooth="yes"/>
      <point x="518" y="468"/>
      <point x="571" y="451"/>
      <point x="571" y="387" type="curve" smooth="yes"/>
      <point x="571" y="243"/>
      <point x="244" y="352"/>
      <point x="244" y="237" type="curve" smooth="yes"/>
      <point x="244" y="222"/>
      <point x="255" y="205"/>
      <point x="266" y="205" type="curve" smooth="yes"/>
      <point x="279" y="205"/>
      <point x="287" y="249"/>
      <point x="383" y="257" type="curve"/>
      <point x="393" y="257"/>
      <point x="406" y="258"/>
      <point x="421" y="258" type="curve"/>
      <point x="434" y="240"/>
      <point x="445" y="214"/>
      <point x="445" y="176" type="curve" smooth="yes"/>
      <point x="445" y="87"/>
      <point x="379" y="39"/>
      <point x="291" y="39" type="curve" smooth="yes"/>
      <point x="198" y="39"/>
      <point x="144" y="116"/>
      <point x="144" y="193" type="curve" smooth="yes"/>
      <point x="144" y="270"/>
      <point x="192" y="348"/>
    </contour>
  </outline>
</glyph>
<glyph name="quotesingle" format="2">
  <advance width="178"/>
  <unicode hex="0027"/>
  <outline>
    <contour>
      <point x="89" y="834" type="curve" smooth="yes"/>
      <point x="67" y="834"/>
      <point x="50" y="824"/>
      <point x="38" y="804" type="curve"/>
      <point x="38" y="761"/>
      <point x="52" y="662"/>
      <point x="69" y="591" type="curve" smooth="yes"/>
      <point x="72" y="579"/>
      <point x="77" y="572"/>
      <point x="89" y="572" type="curve" smooth="yes"/>
      <point x="101" y="572"/>
      <point x="106" y="579"/>
      <point x="109" y="591" type="curve" smooth="yes"/>
      <point x="129" y="675"/>
      <point x="140" y="768"/>
      <point x="140" y="804" type="curve"/>
      <point x="128" y="824"/>
      <point x="110" y="834"/>
    </contour>
  </outline>
</glyph>
<glyph name="parenleft" format="2">
  <advance width="352"/>
  <unicode hex="0028"/>
  <outline>
    <contour>
      <point x="166" y="331" type="curve" smooth="yes"/>
      <point x="166" y="532"/>
      <point x="231" y="670"/>
      <point x="321" y="729" type="curve"/>
      <point x="321" y="774" type="line"/>
      <point x="155" y="705"/>
      <point x="58" y="557"/>
      <point x="58" y="331" type="curve" smooth="yes"/>
      <point x="58" y="105"/>
      <point x="155" y="-43"/>
      <point x="321" y="-112" type="curve"/>
      <point x="321" y="-67" type="line"/>
      <point x="231" y="-8"/>
      <point x="166" y="129"/>
    </contour>
  </outline>
</glyph>
<glyph name="asterisk" format="2">
  <advance width="574"/>
  <unicode hex="002A"/>
  <outline>
    <contour>
      <point x="504" y="657" type="curve" smooth="yes"/>
      <point x="504" y="685"/>
      <point x="486" y="706"/>
      <point x="457" y="713" type="curve"/>
      <point x="389" y="676"/>
      <point x="339" y="650"/>
      <point x="307" y="633" type="curve"/>
      <point x="314" y="669"/>
      <point x="323" y="724"/>
      <point x="338" y="800" type="curve"/>
      <point x="326" y="820"/>
      <point x="308" y="830"/>
      <point x="287" y="830" type="curve" smooth="yes"/>
      <point x="265" y="830"/>
      <point x="248" y="820"/>
      <point x="236" y="800" type="curve"/>
      <point x="251" y="724"/>
      <point x="260" y="669"/>
      <point x="267" y="633" type="curve"/>
      <point x="234" y="651"/>
      <point x="184" y="676"/>
      <point x="117" y="714" type="curve"/>
      <point x="89" y="708"/>
      <point x="70" y="685"/>
      <point x="70" y="655" type="curve" smooth="yes"/>
      <point x="70" y="642"/>
      <point x="75" y="629"/>
      <point x="86" y="617" type="curve"/>
      <point x="162" y="608"/>
      <point x="217" y="599"/>
      <point x="254" y="594" type="curve"/>
      <point x="227" y="569"/>
      <point x="188" y="529"/>
      <point x="131" y="477" type="curve"/>
      <point x="131" y="446"/>
      <point x="149" y="412"/>
      <point x="187" y="412" type="curve" smooth="yes"/>
      <point x="195" y="412"/>
      <point x="204" y="414"/>
      <point x="213" y="418" type="curve"/>
      <point x="245" y="488"/>
      <point x="271" y="537"/>
      <point x="287" y="571" type="curve"/>
      <point x="302" y="537"/>
      <point x="328" y="488"/>
      <point x="361" y="417" type="curve"/>
      <point x="369" y="413"/>
      <point x="377" y="411"/>
      <point x="386" y="411" type="curve" smooth="yes"/>
      <point x="417" y="411"/>
      <point x="442" y="438"/>
      <point x="442" y="477" type="curve"/>
      <point x="385" y="530"/>
      <point x="346" y="569"/>
      <point x="319" y="594" type="curve"/>
      <point x="356" y="599"/>
      <point x="411" y="608"/>
      <point x="489" y="617" type="curve"/>
      <point x="499" y="629"/>
      <point x="504" y="642"/>
    </contour>
  </outline>
</glyph>
<glyph name="plus" format="2">
  <advance width="621"/>
  <unicode hex="002B"/>
  <outline>
    <contour>
      <point x="99" y="319" type="line"/>
      <point x="273" y="319" type="line"/>
      <point x="273" y="146" type="line"/>
      <point x="348" y="146" type="line"/>
      <point x="348" y="319" type="line"/>
      <point x="522" y="319" type="line"/>
      <point x="522" y="395" type="line"/>
      <point x="348" y="395" type="line"/>
      <point x="348" y="569" type="line"/>
      <point x="273" y="569" type="line"/>
      <point x="273" y="395" type="line"/>
      <point x="99" y="395" type="line"/>
    </contour>
  </outline>
</glyph>
<glyph name="comma" format="2">
  <advance width="191"/>
  <unicode hex="002C"/>
  <outline>
    <contour>
      <point x="19" y="100" type="line"/>
      <point x="24" y="76" type="line"/>
      <point x="42" y="64" type="line"/>
      <point x="57" y="53"/>
      <point x="65" y="42"/>
      <point x="65" y="27" type="curve" smooth="yes"/>
      <point x="65" y="16"/>
      <point x="61" y="2"/>
      <point x="53" y="-14" type="curve" smooth="yes"/>
      <point x="7" y="-104" type="line"/>
      <point x="36" y="-123" type="line"/>
      <point x="75" y="-81" type="line" smooth="yes"/>
      <point x="122" y="-31"/>
      <point x="157" y="11"/>
      <point x="157" y="52" type="curve" smooth="yes"/>
      <point x="157" y="101"/>
      <point x="128" y="119"/>
      <point x="92" y="119" type="curve" smooth="yes"/>
      <point x="74" y="119"/>
      <point x="54" y="114"/>
      <point x="36" y="107" type="curve" smooth="yes"/>
    </contour>
  </outline>
</glyph>
<glyph name="hyphen" format="2">
  <advance width="355"/>
  <unicode hex="002D"/>
  <outline>
    <contour>
      <point x="296" y="262" type="line"/>
      <point x="316" y="277"/>
      <point x="322" y="308"/>
      <point x="322" y="332" type="curve"/>
      <point x="59" y="322" type="line"/>
      <point x="40" y="307"/>
      <point x="33" y="276"/>
      <point x="33" y="252" type="curve"/>
    </contour>
  </outline>
</glyph>
<glyph name="period" format="2">
  <advance width="191"/>
  <unicode hex="002E"/>
  <outline>
    <contour>
      <point x="33" y="51" type="curve" smooth="yes"/>
      <point x="33" y="25"/>
      <point x="71" y="-14"/>
      <point x="94" y="-14" type="curve" smooth="yes"/>
      <point x="119" y="-14"/>
      <point x="157" y="25"/>
      <point x="157" y="51" type="curve" smooth="yes"/>
      <point x="157" y="77"/>
      <point x="119" y="117"/>
      <point x="94" y="117" type="curve" smooth="yes"/>
      <point x="70" y="117"/>
      <point x="33" y="77"/>
    </contour>
  </outline>
</glyph>
<glyph name="zero" format="2">
  <advance width="693"/>
  <unicode hex="0030"/>
  <outline>
    <contour>
      <point x="60" y="360" type="curve" smooth="yes"/>
      <point x="60" y="183"/>
      <point x="129" y="-14"/>
      <point x="334" y="-14" type="curve" smooth="yes"/>
      <point x="524" y="-14"/>
      <point x="633" y="166"/>
      <point x="633" y="380" type="curve" smooth="yes"/>
      <point x="633" y="577"/>
      <point x="540" y="732"/>
      <point x="359" y="732" type="curve" smooth="yes"/>
      <point x="173" y="732"/>
      <point x="60" y="565"/>
    </contour>
    <contour>
      <point x="166" y="358" type="curve" smooth="yes"/>
      <point x="166" y="532"/>
      <point x="223" y="675"/>
      <point x="346" y="675" type="curve" smooth="yes"/>
      <point x="466" y="675"/>
      <point x="526" y="532"/>
      <point x="526" y="358" type="curve" smooth="yes"/>
      <point x="526" y="184"/>
      <point x="466" y="43"/>
      <point x="346" y="43" type="curve" smooth="yes"/>
      <point x="223" y="43"/>
      <point x="166" y="184"/>
    </contour>
  </outline>
</glyph>
<glyph name="one" format="2">
  <advance width="418"/>
  <unicode hex="0031"/>
  <outline>
    <contour>
      <point x="291" y="680" type="line"/>
      <point x="317" y="697" type="line"/>
      <point x="309" y="712"/>
      <point x="296" y="729"/>
      <point x="277" y="734" type="curve"/>
      <point x="0" y="605" type="line"/>
      <point x="13" y="577"/>
      <point x="38" y="543"/>
      <point x="69" y="537" type="curve"/>
      <point x="192" y="615" type="line"/>
      <point x="192" y="133" type="line" smooth="yes"/>
      <point x="192" y="71"/>
      <point x="179" y="58"/>
      <point x="128" y="45" type="curve" smooth="yes"/>
      <point x="85" y="34" type="line"/>
      <point x="97" y="0" type="line"/>
      <point x="336" y="0" type="line"/>
      <point x="349" y="16" type="line"/>
      <point x="336" y="34" type="line" smooth="yes"/>
      <point x="303" y="78"/>
      <point x="291" y="120"/>
      <point x="291" y="201" type="curve" smooth="yes"/>
    </contour>
  </outline>
</glyph>
<glyph name="two" format="2">
  <advance width="596"/>
  <unicode hex="0032"/>
  <outline>
    <contour>
      <point x="522" y="0" type="line"/>
      <point x="548" y="21"/>
      <point x="556" y="60"/>
      <point x="556" y="91" type="curve"/>
      <point x="177" y="91" type="line"/>
      <point x="366" y="244"/>
      <point x="537" y="402"/>
      <point x="537" y="545" type="curve" smooth="yes"/>
      <point x="537" y="666"/>
      <point x="440" y="732"/>
      <point x="293" y="732" type="curve" smooth="yes"/>
      <point x="175" y="732"/>
      <point x="61" y="674"/>
      <point x="61" y="557" type="curve" smooth="yes"/>
      <point x="61" y="494"/>
      <point x="107" y="451"/>
      <point x="168" y="451" type="curve" smooth="yes"/>
      <point x="182" y="451"/>
      <point x="189" y="451"/>
      <point x="189" y="463" type="curve" smooth="yes"/>
      <point x="189" y="472"/>
      <point x="159" y="496"/>
      <point x="159" y="549" type="curve" smooth="yes"/>
      <point x="159" y="633"/>
      <point x="225" y="676"/>
      <point x="292" y="676" type="curve" smooth="yes"/>
      <point x="357" y="676"/>
      <point x="422" y="634"/>
      <point x="422" y="546" type="curve" smooth="yes"/>
      <point x="422" y="424"/>
      <point x="363" y="318"/>
      <point x="37" y="51" type="curve"/>
      <point x="64" y="0" type="line"/>
    </contour>
  </outline>
</glyph>
<glyph name="three" format="2">
  <advance width="596"/>
  <unicode hex="0033"/>
  <outline>
    <contour>
      <point x="289" y="-14" type="curve" smooth="yes"/>
      <point x="441" y="-14"/>
      <point x="541" y="56"/>
      <point x="541" y="184" type="curve" smooth="yes"/>
      <point x="541" y="274"/>
      <point x="485" y="351"/>
      <point x="372" y="376" type="curve"/>
      <point x="464" y="411"/>
      <point x="520" y="470" name=".hr01"/>
      <point x="520" y="559" type="curve" smooth="yes"/>
      <point x="520" y="675"/>
      <point x="401" y="732"/>
      <point x="287" y="732" type="curve" smooth="yes"/>
      <point x="179" y="732"/>
      <point x="76" y="682"/>
      <point x="76" y="581" type="curve" smooth="yes"/>
      <point x="76" y="518"/>
      <point x="122" y="475"/>
      <point x="183" y="475" type="curve" smooth="yes"/>
      <point x="197" y="475"/>
      <point x="204" y="478"/>
      <point x="204" y="487" type="curve" smooth="yes"/>
      <point x="204" y="496"/>
      <point x="174" y="520"/>
      <point x="174" y="573" type="curve" smooth="yes"/>
      <point x="174" y="642"/>
      <point x="228" y="677"/>
      <point x="285" y="677" type="curve" smooth="yes"/>
      <point x="347" y="677"/>
      <point x="411" y="636"/>
      <point x="411" y="553" type="curve" smooth="yes"/>
      <point x="411" y="498"/>
      <point x="392" y="414"/>
      <point x="221" y="382" type="curve" smooth="yes"/>
      <point x="169" y="372"/>
      <point x="166" y="365"/>
      <point x="166" y="349" type="curve" smooth="yes"/>
      <point x="166" y="339"/>
      <point x="170" y="331"/>
      <point x="180" y="331" type="curve" smooth="yes"/>
      <point x="188" y="331"/>
      <point x="213" y="341"/>
      <point x="261" y="341" type="curve" smooth="yes"/>
      <point x="410" y="341"/>
      <point x="432" y="244" name=".hr02"/>
      <point x="432" y="190" type="curve" smooth="yes"/>
      <point x="432" y="93"/>
      <point x="358" y="49"/>
      <point x="286" y="49" type="curve" smooth="yes"/>
      <point x="219" y="49"/>
      <point x="155" y="87"/>
      <point x="155" y="156" type="curve" smooth="yes"/>
      <point x="155" y="209"/>
      <point x="185" y="233"/>
      <point x="185" y="242" type="curve" smooth="yes"/>
      <point x="185" y="254"/>
      <point x="178" y="254"/>
      <point x="164" y="254" type="curve" smooth="yes"/>
      <point x="103" y="254"/>
      <point x="57" y="211"/>
      <point x="57" y="148" type="curve" smooth="yes"/>
      <point x="57" y="40"/>
      <point x="171" y="-14"/>
    </contour>
  </outline>
</glyph>
<glyph name="four" format="2">
  <advance width="608"/>
  <unicode hex="0034"/>
  <outline>
    <contour>
      <point x="555" y="162" type="line"/>
      <point x="573" y="176"/>
      <point x="578" y="203"/>
      <point x="578" y="225" type="curve"/>
      <point x="485" y="225" type="line"/>
      <point x="485" y="479" type="line"/>
      <point x="375" y="467" type="line"/>
      <point x="363" y="452" type="line"/>
      <point x="381" y="423"/>
      <point x="385" y="403"/>
      <point x="385" y="361" type="curve" smooth="yes"/>
      <point x="385" y="225" type="line"/>
      <point x="128" y="225" type="line"/>
      <point x="344" y="702" type="line"/>
      <point x="325" y="718" type="line"/>
      <point x="262" y="718" type="line"/>
      <point x="30" y="162" type="line"/>
      <point x="385" y="162" type="line"/>
      <point x="385" y="133" type="line" smooth="yes"/>
      <point x="385" y="71"/>
      <point x="373" y="58"/>
      <point x="322" y="45" type="curve" smooth="yes"/>
      <point x="279" y="34" type="line"/>
      <point x="291" y="0" type="line"/>
      <point x="530" y="0" type="line"/>
      <point x="543" y="16" type="line"/>
      <point x="530" y="34" type="line" smooth="yes"/>
      <point x="503" y="70"/>
      <point x="489" y="105"/>
      <point x="486" y="162" type="curve"/>
    </contour>
  </outline>
</glyph>
<glyph name="five" format="2">
  <advance width="596"/>
  <unicode hex="0035"/>
  <outline>
    <contour>
      <point x="432" y="193" type="curve" smooth="yes"/>
      <point x="432" y="96"/>
      <point x="358" y="49"/>
      <point x="286" y="49" type="curve" smooth="yes"/>
      <point x="219" y="49"/>
      <point x="155" y="87"/>
      <point x="155" y="156" type="curve" smooth="yes"/>
      <point x="155" y="209"/>
      <point x="185" y="233"/>
      <point x="185" y="242" type="curve" smooth="yes"/>
      <point x="185" y="254"/>
      <point x="178" y="254"/>
      <point x="164" y="254" type="curve" smooth="yes"/>
      <point x="103" y="254"/>
      <point x="57" y="211"/>
      <point x="57" y="148" type="curve" smooth="yes"/>
      <point x="57" y="40"/>
      <point x="171" y="-14"/>
      <point x="289" y="-14" type="curve" smooth="yes"/>
      <point x="441" y="-14"/>
      <point x="541" y="65"/>
      <point x="541" y="193" type="curve" smooth="yes"/>
      <point x="541" y="306"/>
      <point x="467" y="416"/>
      <point x="288" y="416" type="curve" smooth="yes"/>
      <point x="251" y="416"/>
      <point x="210" y="412"/>
      <point x="165" y="402" type="curve"/>
      <point x="177" y="627" type="line"/>
      <point x="471" y="627" type="line"/>
      <point x="497" y="648"/>
      <point x="505" y="687"/>
      <point x="505" y="718" type="curve"/>
      <point x="116" y="718" type="line"/>
      <point x="98" y="385" type="line"/>
      <point x="119" y="348" type="line"/>
      <point x="158" y="356"/>
      <point x="193" y="361"/>
      <point x="224" y="361" type="curve" smooth="yes"/>
      <point x="405" y="361"/>
      <point x="432" y="256"/>
    </contour>
  </outline>
</glyph>
<glyph name="six" format="2">
  <advance width="646"/>
  <unicode hex="0036"/>
  <outline>
    <contour>
      <point x="360" y="675" type="curve" smooth="yes"/>
      <point x="422" y="675"/>
      <point x="463" y="637"/>
      <point x="463" y="574" type="curve" smooth="yes"/>
      <point x="463" y="527"/>
      <point x="433" y="502"/>
      <point x="433" y="492" type="curve" smooth="yes"/>
      <point x="433" y="484"/>
      <point x="439" y="480"/>
      <point x="454" y="480" type="curve" smooth="yes"/>
      <point x="515" y="480"/>
      <point x="561" y="528"/>
      <point x="561" y="597" type="curve" smooth="yes"/>
      <point x="561" y="676"/>
      <point x="479" y="732"/>
      <point x="363" y="732" type="curve" smooth="yes"/>
      <point x="158" y="732"/>
      <point x="58" y="548"/>
      <point x="58" y="328" type="curve" smooth="yes"/>
      <point x="58" y="144"/>
      <point x="150" y="-14"/>
      <point x="335" y="-14" type="curve" smooth="yes"/>
      <point x="494" y="-14"/>
      <point x="574" y="91" name=".hr01"/>
      <point x="574" y="218" type="curve" smooth="yes"/>
      <point x="574" y="330"/>
      <point x="508" y="419"/>
      <point x="371" y="419" type="curve" smooth="yes"/>
      <point x="260" y="419"/>
      <point x="192" y="360"/>
      <point x="167" y="279" type="curve"/>
      <point x="166" y="294"/>
      <point x="166" y="310"/>
      <point x="166" y="326" type="curve" smooth="yes"/>
      <point x="166" y="483"/>
      <point x="213" y="675"/>
    </contour>
    <contour>
      <point x="335" y="351" type="curve" smooth="yes"/>
      <point x="417" y="351"/>
      <point x="453" y="284"/>
      <point x="453" y="203" type="curve" smooth="yes"/>
      <point x="453" y="115"/>
      <point x="408" y="49"/>
      <point x="321" y="49" type="curve" smooth="yes"/>
      <point x="238" y="49"/>
      <point x="205" y="114"/>
      <point x="205" y="195" type="curve" smooth="yes" name=".hr02"/>
      <point x="205" y="277"/>
      <point x="249" y="351"/>
    </contour>
  </outline>
</glyph>
<glyph name="seven" format="2">
  <advance width="496"/>
  <unicode hex="0037"/>
  <outline>
    <contour>
      <point x="487" y="718" type="line"/>
      <point x="2" y="718" type="line"/>
      <point x="2" y="687"/>
      <point x="10" y="648"/>
      <point x="36" y="627" type="curve"/>
      <point x="381" y="627" type="line"/>
      <point x="191" y="139" type="line" smooth="yes"/>
      <point x="167" y="78"/>
      <point x="144" y="55"/>
      <point x="91" y="40" type="curve" smooth="yes"/>
      <point x="68" y="34" type="line"/>
      <point x="80" y="0" type="line"/>
      <point x="264" y="0" type="line"/>
      <point x="283" y="16" type="line"/>
      <point x="274" y="34" type="line" smooth="yes"/>
      <point x="264" y="53"/>
      <point x="260" y="73"/>
      <point x="260" y="95" type="curve" smooth="yes"/>
      <point x="260" y="123"/>
      <point x="266" y="156"/>
      <point x="283" y="200" type="curve" smooth="yes"/>
    </contour>
  </outline>
</glyph>
<glyph name="nine" format="2">
  <advance width="646"/>
  <unicode hex="0039"/>
  <outline>
    <contour>
      <point x="321" y="732" type="curve" smooth="yes"/>
      <point x="158" y="732"/>
      <point x="77" y="605"/>
      <point x="77" y="485" type="curve" smooth="yes"/>
      <point x="77" y="378"/>
      <point x="143" y="276"/>
      <point x="272" y="276" type="curve" smooth="yes"/>
      <point x="366" y="276"/>
      <point x="434" y="323"/>
      <point x="467" y="391" type="curve"/>
      <point x="468" y="374"/>
      <point x="468" y="356"/>
      <point x="468" y="337" type="curve" smooth="yes"/>
      <point x="468" y="193"/>
      <point x="426" y="43"/>
      <point x="291" y="43" type="curve" smooth="yes"/>
      <point x="232" y="43"/>
      <point x="190" y="77"/>
      <point x="190" y="132" type="curve" smooth="yes"/>
      <point x="190" y="173"/>
      <point x="215" y="196"/>
      <point x="215" y="205" type="curve" smooth="yes"/>
      <point x="215" y="213"/>
      <point x="208" y="217"/>
      <point x="193" y="217" type="curve" smooth="yes"/>
      <point x="135" y="217"/>
      <point x="93" y="181" name=".hr01"/>
      <point x="93" y="126" type="curve" smooth="yes"/>
      <point x="93" y="44"/>
      <point x="176" y="-14"/>
      <point x="292" y="-14" type="curve" smooth="yes"/>
      <point x="484" y="-14"/>
      <point x="574" y="143"/>
      <point x="574" y="340" type="curve" smooth="yes"/>
      <point x="574" y="554"/>
      <point x="502" y="732"/>
    </contour>
    <contour>
      <point x="318" y="348" type="curve" smooth="yes"/>
      <point x="237" y="348"/>
      <point x="197" y="427"/>
      <point x="197" y="507" type="curve" smooth="yes"/>
      <point x="197" y="587"/>
      <point x="240" y="667"/>
      <point x="329" y="667" type="curve" smooth="yes"/>
      <point x="412" y="667"/>
      <point x="454" y="586"/>
      <point x="454" y="506" type="curve" smooth="yes"/>
      <point x="454" y="427"/>
      <point x="410" y="348"/>
    </contour>
  </outline>
</glyph>
<glyph name="less" format="2">
  <advance width="621"/>
  <unicode hex="003C"/>
  <outline>
    <contour>
      <point x="99" y="319" type="line"/>
      <point x="522" y="148" type="line"/>
      <point x="522" y="224" type="line"/>
      <point x="184" y="357" type="line"/>
      <point x="522" y="490" type="line"/>
      <point x="522" y="566" type="line"/>
      <point x="99" y="395" type="line"/>
    </contour>
  </outline>
</glyph>
<glyph name="equal" format="2">
  <advance width="621"/>
  <unicode hex="003D"/>
  <outline>
    <contour>
      <point x="99" y="211" type="line"/>
      <point x="522" y="211" type="line"/>
      <point x="522" y="287" type="line"/>
      <point x="99" y="287" type="line"/>
    </contour>
    <contour>
      <point x="99" y="427" type="line"/>
      <point x="522" y="427" type="line"/>
      <point x="522" y="503" type="line"/>
      <point x="99" y="503" type="line"/>
    </contour>
  </outline>
</glyph>
<glyph name="greater" format="2">
  <advance width="621"/>
  <unicode hex="003E"/>
  <outline>
    <contour>
      <point x="522" y="395" type="line"/>
      <point x="99" y="566" type="line"/>
      <point x="99" y="490" type="line"/>
      <point x="437" y="357" type="line"/>
      <point x="99" y="224" type="line"/>
      <point x="99" y="148" type="line"/>
      <point x="522" y="319" type="line"/>
    </contour>
  </outline>
</glyph>
<glyph name="at" format="2">
  <advance width="892"/>
  <unicode hex="0040"/>
  <outline>
    <contour>
      <point x="452" y="452" type="curve" smooth="yes"/>
      <point x="474" y="452"/>
      <point x="494" y="446"/>
      <point x="516" y="429" type="curve"/>
      <point x="499" y="229" type="line"/>
      <point x="469" y="186"/>
      <point x="435" y="167"/>
      <point x="408" y="167" type="curve" smooth="yes"/>
      <point x="365" y="167"/>
      <point x="331" y="212"/>
      <point x="331" y="281" type="curve" smooth="yes"/>
      <point x="331" y="362"/>
      <point x="370" y="452"/>
    </contour>
    <contour>
      <point x="837" y="315" type="curve" smooth="yes"/>
      <point x="837" y="516"/>
      <point x="697" y="675"/>
      <point x="479" y="675" type="curve" smooth="yes"/>
      <point x="242" y="675"/>
      <point x="55" y="481"/>
      <point x="55" y="250" type="curve" smooth="yes"/>
      <point x="55" y="49"/>
      <point x="195" y="-110"/>
      <point x="414" y="-110" type="curve" smooth="yes"/>
      <point x="494" y="-110"/>
      <point x="558" y="-89"/>
      <point x="623" y="-50" type="curve"/>
      <point x="599" y="-8" type="line"/>
      <point x="543" y="-42"/>
      <point x="487" y="-53"/>
      <point x="419" y="-53" type="curve" smooth="yes"/>
      <point x="249" y="-53"/>
      <point x="151" y="75"/>
      <point x="151" y="248" type="curve" smooth="yes"/>
      <point x="151" y="453"/>
      <point x="283" y="618"/>
      <point x="474" y="618" type="curve" smooth="yes"/>
      <point x="643" y="618"/>
      <point x="740" y="490"/>
      <point x="740" y="318" type="curve" smooth="yes"/>
      <point x="740" y="160"/>
      <point x="676" y="88"/>
      <point x="636" y="88" type="curve" smooth="yes"/>
      <point x="608" y="88"/>
      <point x="584" y="116"/>
      <point x="584" y="170" type="curve" smooth="yes"/>
      <point x="584" y="176"/>
      <point x="584" y="182"/>
      <point x="606" y="433" type="curve" smooth="yes"/>
      <point x="607" y="446"/>
      <point x="613" y="455"/>
      <point x="618" y="462" type="curve"/>
      <point x="627" y="478" type="line"/>
      <point x="619" y="490" type="line"/>
      <point x="569" y="495"/>
      <point x="502" y="510"/>
      <point x="453" y="510" type="curve" smooth="yes"/>
      <point x="323" y="510"/>
      <point x="233" y="412"/>
      <point x="233" y="256" type="curve" smooth="yes"/>
      <point x="233" y="147"/>
      <point x="289" y="91"/>
      <point x="357" y="91" type="curve" smooth="yes"/>
      <point x="403" y="91"/>
      <point x="458" y="118"/>
      <point x="500" y="168" type="curve"/>
      <point x="500" y="81"/>
      <point x="552" y="36"/>
      <point x="621" y="36" type="curve" smooth="yes"/>
      <point x="764" y="36"/>
      <point x="837" y="192"/>
    </contour>
  </outline>
</glyph>
<glyph name="A" format="2">
  <advance width="706"/>
  <unicode hex="0041"/>
  <outline>
    <contour>
      <point x="682" y="0" type="line"/>
      <point x="695" y="16" type="line"/>
      <point x="652" y="49"/>
      <point x="628" y="72"/>
      <point x="605" y="138" type="curve" smooth="yes"/>
      <point x="404" y="718" type="line"/>
      <point x="211" y="718" type="line"/>
      <point x="199" y="684" type="line"/>
      <point x="222" y="678" type="line" smooth="yes"/>
      <point x="253" y="670"/>
      <point x="267" y="659"/>
      <point x="267" y="634" type="curve" smooth="yes"/>
      <point x="267" y="621"/>
      <point x="263" y="606"/>
      <point x="256" y="585" type="curve" smooth="yes"/>
      <point x="99" y="133" type="line" smooth="yes"/>
      <point x="78" y="71"/>
      <point x="60" y="55"/>
      <point x="7" y="40" type="curve" smooth="yes"/>
      <point x="-16" y="34" type="line"/>
      <point x="-4" y="0" type="line"/>
      <point x="180" y="0" type="line"/>
      <point x="199" y="16" type="line"/>
      <point x="190" y="34" type="line" smooth="yes"/>
      <point x="180" y="53"/>
      <point x="176" y="73"/>
      <point x="176" y="95" type="curve" smooth="yes"/>
      <point x="176" y="123"/>
      <point x="184" y="155"/>
      <point x="199" y="200" type="curve" smooth="yes"/>
      <point x="223" y="273" type="line"/>
      <point x="454" y="273" type="line"/>
      <point x="502" y="133" type="line" smooth="yes"/>
      <point x="509" y="112"/>
      <point x="513" y="97"/>
      <point x="513" y="84" type="curve" smooth="yes"/>
      <point x="513" y="59"/>
      <point x="499" y="48"/>
      <point x="468" y="40" type="curve" smooth="yes"/>
      <point x="445" y="34" type="line"/>
      <point x="457" y="0" type="line"/>
    </contour>
    <contour>
      <point x="337" y="615" type="line"/>
      <point x="433" y="335" type="line"/>
      <point x="244" y="335" type="line"/>
    </contour>
  </outline>
</glyph>
<glyph name="C" format="2">
  <advance width="617"/>
  <unicode hex="0043"/>
  <outline>
    <contour>
      <point x="358" y="732" type="curve" smooth="yes"/>
      <point x="139" y="732"/>
      <point x="35" y="564"/>
      <point x="35" y="358" type="curve" smooth="yes"/>
      <point x="35" y="153"/>
      <point x="139" y="-14"/>
      <point x="355" y="-14" type="curve" smooth="yes"/>
      <point x="461" y="-14"/>
      <point x="536" y="36"/>
      <point x="588" y="113" type="curve" smooth="yes"/>
      <point x="590" y="116"/>
      <point x="591" y="119"/>
      <point x="591" y="121" type="curve" smooth="yes"/>
      <point x="591" y="134"/>
      <point x="571" y="149"/>
      <point x="559" y="149" type="curve" smooth="yes"/>
      <point x="556" y="149"/>
      <point x="554" y="148"/>
      <point x="552" y="145" type="curve" smooth="yes"/>
      <point x="514" y="90"/>
      <point x="452" y="55"/>
      <point x="364" y="55" type="curve" smooth="yes"/>
      <point x="230" y="55"/>
      <point x="148" y="192"/>
      <point x="148" y="358" type="curve" smooth="yes"/>
      <point x="148" y="508"/>
      <point x="201" y="676"/>
      <point x="358" y="676" type="curve" smooth="yes"/>
      <point x="434" y="676"/>
      <point x="485" y="633"/>
      <point x="485" y="571" type="curve" smooth="yes"/>
      <point x="485" y="515"/>
      <point x="455" y="490"/>
      <point x="455" y="480" type="curve" smooth="yes"/>
      <point x="455" y="472"/>
      <point x="461" y="468"/>
      <point x="476" y="468" type="curve" smooth="yes"/>
      <point x="537" y="468"/>
      <point x="583" y="516"/>
      <point x="583" y="585" type="curve" smooth="yes"/>
      <point x="583" y="672"/>
      <point x="490" y="732"/>
    </contour>
  </outline>
</glyph>
<glyph name="D" format="2">
  <advance width="733"/>
  <unicode hex="0044"/>
  <outline>
    <contour>
      <point x="366" y="0" type="line" smooth="yes"/>
      <point x="589" y="0"/>
      <point x="698" y="159"/>
      <point x="698" y="358" type="curve" smooth="yes"/>
      <point x="698" y="557"/>
      <point x="605" y="732"/>
      <point x="306" y="732" type="curve" smooth="yes"/>
      <point x="204" y="732"/>
      <point x="91" y="708"/>
      <point x="35" y="688" type="curve"/>
      <point x="47" y="651" type="line"/>
      <point x="105" y="651" type="line" smooth="yes"/>
      <point x="120" y="651"/>
      <point x="127" y="645"/>
      <point x="127" y="627" type="curve" smooth="yes"/>
      <point x="127" y="122" type="line" smooth="yes"/>
      <point x="127" y="67"/>
      <point x="100" y="50"/>
      <point x="63" y="40" type="curve" smooth="yes"/>
      <point x="40" y="34" type="line"/>
      <point x="52" y="0" type="line"/>
    </contour>
    <contour>
      <point x="226" y="630" type="line"/>
      <point x="226" y="648"/>
      <point x="236" y="676"/>
      <point x="324" y="676" type="curve" smooth="yes"/>
      <point x="508" y="676"/>
      <point x="589" y="521"/>
      <point x="589" y="360" type="curve" smooth="yes"/>
      <point x="589" y="160"/>
      <point x="508" y="51"/>
      <point x="334" y="51" type="curve" smooth="yes"/>
      <point x="279" y="51"/>
      <point x="226" y="71"/>
      <point x="226" y="175" type="curve" smooth="yes"/>
    </contour>
  </outline>
</glyph>
<glyph name="E" format="2">
  <advance width="610"/>
  <unicode hex="0045"/>
  <outline>
    <contour>
      <point x="311" y="336" type="line" smooth="yes"/>
      <point x="382" y="336"/>
      <point x="408" y="326"/>
      <point x="420" y="279" type="curve" smooth="yes"/>
      <point x="426" y="256" type="line"/>
      <point x="460" y="268" type="line"/>
      <point x="460" y="439" type="line"/>
      <point x="440" y="450" type="line"/>
      <point x="432" y="439" type="line" smooth="yes"/>
      <point x="407" y="404"/>
      <point x="384" y="393"/>
      <point x="353" y="393" type="curve" smooth="yes"/>
      <point x="226" y="393" type="line"/>
      <point x="226" y="585" type="line" smooth="yes"/>
      <point x="226" y="647"/>
      <point x="238" y="661"/>
      <point x="290" y="661" type="curve" smooth="yes"/>
      <point x="387" y="661" type="line" smooth="yes"/>
      <point x="458" y="661"/>
      <point x="477" y="643"/>
      <point x="496" y="572" type="curve" smooth="yes"/>
      <point x="502" y="549" type="line"/>
      <point x="536" y="561" type="line"/>
      <point x="536" y="739" type="line"/>
      <point x="520" y="752" type="line"/>
      <point x="502" y="739" type="line" smooth="yes"/>
      <point x="482" y="724"/>
      <point x="446" y="718"/>
      <point x="388" y="718" type="curve" smooth="yes"/>
      <point x="82" y="718" type="line"/>
      <point x="69" y="702" type="line"/>
      <point x="82" y="684" type="line" smooth="yes"/>
      <point x="115" y="640"/>
      <point x="127" y="598"/>
      <point x="127" y="517" type="curve" smooth="yes"/>
      <point x="127" y="126" type="line" smooth="yes"/>
      <point x="127" y="67"/>
      <point x="114" y="52"/>
      <point x="66" y="38" type="curve" smooth="yes"/>
      <point x="45" y="32" type="line"/>
      <point x="56" y="0" type="line"/>
      <point x="477" y="0" type="line" smooth="yes"/>
      <point x="498" y="0"/>
      <point x="511" y="-4"/>
      <point x="519" y="-14" type="curve"/>
      <point x="527" y="-25" type="line"/>
      <point x="547" y="-14" type="line"/>
      <point x="547" y="157" type="line"/>
      <point x="513" y="169" type="line"/>
      <point x="507" y="146" type="line" smooth="yes"/>
      <point x="488" y="75"/>
      <point x="469" y="57"/>
      <point x="398" y="57" type="curve" smooth="yes"/>
      <point x="290" y="57" type="line" smooth="yes"/>
      <point x="238" y="57"/>
      <point x="226" y="71"/>
      <point x="226" y="133" type="curve" smooth="yes"/>
      <point x="226" y="336" type="line"/>
    </contour>
  </outline>
</glyph>
<glyph name="F" format="2">
  <advance width="547"/>
  <unicode hex="0046"/>
  <outline>
    <contour>
      <point x="468" y="549" type="line"/>
      <point x="502" y="561" type="line"/>
      <point x="502" y="739" type="line"/>
      <point x="486" y="752" type="line"/>
      <point x="468" y="739" type="line" smooth="yes"/>
      <point x="448" y="724"/>
      <point x="412" y="718"/>
      <point x="354" y="718" type="curve" smooth="yes"/>
      <point x="58" y="718" type="line"/>
      <point x="45" y="702" type="line"/>
      <point x="58" y="684" type="line" smooth="yes"/>
      <point x="91" y="640"/>
      <point x="103" y="598"/>
      <point x="103" y="517" type="curve" smooth="yes"/>
      <point x="103" y="201" type="line" smooth="yes"/>
      <point x="103" y="120"/>
      <point x="91" y="78"/>
      <point x="58" y="34" type="curve" smooth="yes"/>
      <point x="45" y="16" type="line"/>
      <point x="58" y="0" type="line"/>
      <point x="277" y="0" type="line"/>
      <point x="289" y="34" type="line"/>
      <point x="266" y="40" type="line"/>
      <point x="216" y="55"/>
      <point x="202" y="71"/>
      <point x="202" y="133" type="curve" smooth="yes"/>
      <point x="202" y="326" type="line"/>
      <point x="277" y="326" type="line" smooth="yes"/>
      <point x="348" y="326"/>
      <point x="374" y="316"/>
      <point x="386" y="269" type="curve" smooth="yes"/>
      <point x="392" y="246" type="line"/>
      <point x="426" y="258" type="line"/>
      <point x="426" y="429" type="line"/>
      <point x="406" y="440" type="line"/>
      <point x="398" y="429" type="line" smooth="yes"/>
      <point x="373" y="394"/>
      <point x="350" y="383"/>
      <point x="319" y="383" type="curve" smooth="yes"/>
      <point x="202" y="383" type="line"/>
      <point x="202" y="585" type="line" smooth="yes"/>
      <point x="202" y="647"/>
      <point x="214" y="661"/>
      <point x="266" y="661" type="curve" smooth="yes"/>
      <point x="353" y="661" type="line" smooth="yes"/>
      <point x="424" y="661"/>
      <point x="443" y="643"/>
      <point x="462" y="572" type="curve" smooth="yes"/>
    </contour>
  </outline>
</glyph>
<glyph name="G" format="2">
  <advance width="691"/>
  <unicode hex="0047"/>
  <outline>
    <contour>
      <point x="521" y="-12" type="line" smooth="yes"/>
      <point x="521" y="-168"/>
      <point x="474" y="-226"/>
      <point x="390" y="-226" type="curve" smooth="yes"/>
      <point x="325" y="-226"/>
      <point x="288" y="-184"/>
      <point x="288" y="-133" type="curve" smooth="yes"/>
      <point x="288" y="-60"/>
      <point x="337" y="-38"/>
      <point x="337" y="-25" type="curve" smooth="yes"/>
      <point x="337" y="-20"/>
      <point x="332" y="-14"/>
      <point x="318" y="-14" type="curve" smooth="yes"/>
      <point x="235" y="-14"/>
      <point x="191" y="-73"/>
      <point x="191" y="-135" type="curve" smooth="yes"/>
      <point x="191" y="-205"/>
      <point x="250" y="-278"/>
      <point x="373" y="-278" type="curve" smooth="yes"/>
      <point x="518" y="-278"/>
      <point x="611" y="-197"/>
      <point x="611" y="16" type="curve" smooth="yes"/>
      <point x="611" y="132" type="line" smooth="yes"/>
      <point x="611" y="213"/>
      <point x="623" y="255"/>
      <point x="656" y="299" type="curve" smooth="yes"/>
      <point x="669" y="317" type="line"/>
      <point x="656" y="333" type="line"/>
      <point x="446" y="333" type="line"/>
      <point x="434" y="299" type="line"/>
      <point x="457" y="293" type="line"/>
      <point x="507" y="278"/>
      <point x="521" y="262"/>
      <point x="521" y="200" type="curve" smooth="yes"/>
      <point x="521" y="149" type="line"/>
      <point x="478" y="106"/>
      <point x="423" y="81"/>
      <point x="354" y="81" type="curve" smooth="yes"/>
      <point x="222" y="81"/>
      <point x="143" y="216"/>
      <point x="143" y="381" type="curve" smooth="yes"/>
      <point x="143" y="508"/>
      <point x="198" y="676"/>
      <point x="366" y="676" type="curve" smooth="yes"/>
      <point x="452" y="676"/>
      <point x="509" y="629" name=".hr01"/>
      <point x="509" y="561" type="curve" smooth="yes"/>
      <point x="509" y="505"/>
      <point x="479" y="480"/>
      <point x="479" y="470" type="curve" smooth="yes"/>
      <point x="479" y="460"/>
      <point x="479" y="458"/>
      <point x="500" y="458" type="curve" smooth="yes"/>
      <point x="561" y="458"/>
      <point x="607" y="506"/>
      <point x="607" y="575" type="curve" smooth="yes"/>
      <point x="607" y="668"/>
      <point x="507" y="732"/>
      <point x="366" y="732" type="curve" smooth="yes"/>
      <point x="142" y="732"/>
      <point x="35" y="564"/>
      <point x="35" y="376" type="curve" smooth="yes"/>
      <point x="35" y="177"/>
      <point x="136" y="17"/>
      <point x="345" y="17" type="curve" smooth="yes"/>
      <point x="415" y="17"/>
      <point x="473" y="42"/>
      <point x="521" y="82" type="curve" name=".hr02"/>
    </contour>
  </outline>
</glyph>
<glyph name="H" format="2">
  <advance width="779"/>
  <unicode hex="0048"/>
  <outline>
    <contour>
      <point x="723" y="0" type="line"/>
      <point x="734" y="32" type="line"/>
      <point x="713" y="38" type="line" smooth="yes"/>
      <point x="665" y="52"/>
      <point x="652" y="67"/>
      <point x="652" y="126" type="curve" smooth="yes"/>
      <point x="652" y="517" type="line" smooth="yes"/>
      <point x="652" y="598"/>
      <point x="664" y="640"/>
      <point x="697" y="684" type="curve" smooth="yes"/>
      <point x="710" y="702" type="line"/>
      <point x="697" y="718" type="line"/>
      <point x="478" y="718" type="line"/>
      <point x="466" y="684" type="line"/>
      <point x="489" y="678" type="line"/>
      <point x="539" y="663"/>
      <point x="553" y="647"/>
      <point x="553" y="585" type="curve" smooth="yes"/>
      <point x="553" y="395" type="line"/>
      <point x="226" y="395" type="line"/>
      <point x="226" y="517" type="line" smooth="yes"/>
      <point x="226" y="598"/>
      <point x="238" y="640"/>
      <point x="271" y="684" type="curve" smooth="yes"/>
      <point x="284" y="702" type="line"/>
      <point x="271" y="718" type="line"/>
      <point x="52" y="718" type="line"/>
      <point x="40" y="684" type="line"/>
      <point x="63" y="678" type="line"/>
      <point x="113" y="663"/>
      <point x="127" y="647"/>
      <point x="127" y="585" type="curve" smooth="yes"/>
      <point x="127" y="133" type="line" smooth="yes"/>
      <point x="127" y="71"/>
      <point x="113" y="55"/>
      <point x="63" y="40" type="curve"/>
      <point x="40" y="34" type="line"/>
      <point x="52" y="0" type="line"/>
      <point x="297" y="0" type="line"/>
      <point x="308" y="32" type="line"/>
      <point x="287" y="38" type="line" smooth="yes"/>
      <point x="239" y="52"/>
      <point x="226" y="67"/>
      <point x="226" y="126" type="curve" smooth="yes"/>
      <point x="226" y="334" type="line"/>
      <point x="553" y="334" type="line"/>
      <point x="553" y="133" type="line" smooth="yes"/>
      <point x="553" y="71"/>
      <point x="539" y="55"/>
      <point x="489" y="40" type="curve"/>
      <point x="466" y="34" type="line"/>
      <point x="478" y="0" type="line"/>
    </contour>
  </outline>
</glyph>
<glyph name="I" format="2">
  <advance width="353"/>
  <unicode hex="0049"/>
  <anchor x="177" y="0" name="bottom"/>
  <anchor x="318" y="10" name="ogonek"/>
  <anchor x="177" y="718" name="top"/>
  <anchor x="20" y="718" name="topleft"/>
  <outline>
    <contour>
      <point x="297" y="0" type="line"/>
      <point x="308" y="32" type="line"/>
      <point x="287" y="38" type="line" smooth="yes"/>
      <point x="239" y="52"/>
      <point x="226" y="67"/>
      <point x="226" y="126" type="curve" smooth="yes"/>
      <point x="226" y="517" type="line" smooth="yes"/>
      <point x="226" y="598"/>
      <point x="238" y="640"/>
      <point x="271" y="684" type="curve" smooth="yes"/>
      <point x="284" y="702" type="line"/>
      <point x="271" y="718" type="line"/>
      <point x="52" y="718" type="line"/>
      <point x="40" y="684" type="line"/>
      <point x="63" y="678" type="line"/>
      <point x="113" y="663"/>
      <point x="127" y="647"/>
      <point x="127" y="585" type="curve" smooth="yes"/>
      <point x="127" y="133" type="line" smooth="yes"/>
      <point x="127" y="71"/>
      <point x="113" y="55"/>
      <point x="63" y="40" type="curve"/>
      <point x="40" y="34" type="line"/>
      <point x="52" y="0" type="line"/>
    </contour>
  </outline>
</glyph>
<glyph name="J" format="2">
  <advance width="469"/>
  <unicode hex="004A"/>
  <outline>
    <contour>
      <point x="272" y="175" type="line" smooth="yes"/>
      <point x="272" y="65"/>
      <point x="223" y="38"/>
      <point x="169" y="38" type="curve" smooth="yes"/>
      <point x="110" y="38"/>
      <point x="77" y="80"/>
      <point x="77" y="131" type="curve" smooth="yes"/>
      <point x="77" y="204"/>
      <point x="126" y="226"/>
      <point x="126" y="239" type="curve" smooth="yes"/>
      <point x="126" y="244"/>
      <point x="121" y="250"/>
      <point x="107" y="250" type="curve" smooth="yes"/>
      <point x="24" y="250"/>
      <point x="-20" y="191"/>
      <point x="-20" y="129" type="curve" smooth="yes"/>
      <point x="-20" y="59"/>
      <point x="39" y="-14"/>
      <point x="162" y="-14" type="curve" smooth="yes"/>
      <point x="285" y="-14"/>
      <point x="371" y="55"/>
      <point x="371" y="236" type="curve" smooth="yes"/>
      <point x="371" y="517" type="line" smooth="yes"/>
      <point x="371" y="598"/>
      <point x="383" y="640"/>
      <point x="416" y="684" type="curve" smooth="yes"/>
      <point x="429" y="702" type="line"/>
      <point x="416" y="718" type="line"/>
      <point x="197" y="718" type="line"/>
      <point x="185" y="684" type="line"/>
      <point x="208" y="678" type="line"/>
      <point x="258" y="663"/>
      <point x="272" y="647"/>
      <point x="272" y="585" type="curve" smooth="yes"/>
    </contour>
  </outline>
</glyph>
<glyph name="M" format="2">
  <advance width="921"/>
  <unicode hex="004D"/>
  <outline>
    <contour>
      <point x="787" y="468" type="line" smooth="yes"/>
      <point x="786" y="483"/>
      <point x="782" y="546"/>
      <point x="782" y="558" type="curve" smooth="yes"/>
      <point x="782" y="614"/>
      <point x="793" y="648"/>
      <point x="818" y="684" type="curve" smooth="yes"/>
      <point x="830" y="702" type="line"/>
      <point x="815" y="718" type="line"/>
      <point x="671" y="718" type="line"/>
      <point x="459" y="215" type="line"/>
      <point x="253" y="718" type="line"/>
      <point x="71" y="718" type="line"/>
      <point x="60" y="684" type="line"/>
      <point x="83" y="678" type="line" smooth="yes"/>
      <point x="127" y="667"/>
      <point x="141" y="652"/>
      <point x="141" y="606" type="curve" smooth="yes"/>
      <point x="141" y="590"/>
      <point x="137" y="537"/>
      <point x="136" y="529" type="curve"/>
      <point x="109" y="133" type="line" smooth="yes" name=".hr01"/>
      <point x="105" y="71"/>
      <point x="89" y="55"/>
      <point x="38" y="40" type="curve"/>
      <point x="15" y="34" type="line"/>
      <point x="26" y="0" type="line"/>
      <point x="214" y="0" type="line"/>
      <point x="229" y="16" type="line"/>
      <point x="217" y="34" type="line" smooth="yes"/>
      <point x="192" y="70"/>
      <point x="181" y="104"/>
      <point x="181" y="160" type="curve" smooth="yes"/>
      <point x="181" y="172"/>
      <point x="184" y="223"/>
      <point x="187" y="258" type="curve" smooth="yes"/>
      <point x="209" y="566" type="line"/>
      <point x="418" y="72" type="line"/>
      <point x="472" y="72" type="line"/>
      <point x="681" y="566" type="line"/>
      <point x="710" y="149" type="line" smooth="yes"/>
      <point x="711" y="138"/>
      <point x="712" y="121"/>
      <point x="712" y="112" type="curve" smooth="yes"/>
      <point x="712" y="71"/>
      <point x="698" y="53"/>
      <point x="655" y="40" type="curve"/>
      <point x="632" y="34" type="line"/>
      <point x="644" y="0" type="line"/>
      <point x="863" y="0" type="line"/>
      <point x="876" y="16" type="line"/>
      <point x="831" y="61"/>
      <point x="813" y="113"/>
      <point x="807" y="194" type="curve" smooth="yes"/>
    </contour>
  </outline>
</glyph>
<glyph name="N" format="2">
  <advance width="779"/>
  <unicode hex="004E"/>
  <outline>
    <contour>
      <point x="572" y="0" type="line"/>
      <point x="673" y="0" type="line"/>
      <point x="686" y="16" type="line"/>
      <point x="673" y="34" type="line" smooth="yes"/>
      <point x="663" y="48"/>
      <point x="659" y="62"/>
      <point x="659" y="88" type="curve" smooth="yes"/>
      <point x="659" y="517" type="line" smooth="yes"/>
      <point x="659" y="598"/>
      <point x="671" y="640"/>
      <point x="704" y="684" type="curve" smooth="yes"/>
      <point x="717" y="702" type="line"/>
      <point x="704" y="718" type="line"/>
      <point x="514" y="718" type="line"/>
      <point x="502" y="684" type="line"/>
      <point x="525" y="678" type="line"/>
      <point x="575" y="663"/>
      <point x="589" y="647"/>
      <point x="589" y="585" type="curve" smooth="yes"/>
      <point x="589" y="151" type="line"/>
      <point x="207" y="718" type="line"/>
      <point x="46" y="718" type="line"/>
      <point x="34" y="684" type="line"/>
      <point x="57" y="678" type="line"/>
      <point x="107" y="663"/>
      <point x="121" y="647"/>
      <point x="121" y="585" type="curve" smooth="yes"/>
      <point x="121" y="133" type="line" smooth="yes"/>
      <point x="121" y="71"/>
      <point x="107" y="55"/>
      <point x="57" y="40" type="curve"/>
      <point x="34" y="34" type="line"/>
      <point x="46" y="0" type="line"/>
      <point x="236" y="0" type="line"/>
      <point x="249" y="16" type="line"/>
      <point x="236" y="34" type="line" smooth="yes"/>
      <point x="203" y="78"/>
      <point x="191" y="120"/>
      <point x="191" y="201" type="curve" smooth="yes"/>
      <point x="191" y="565" type="line"/>
    </contour>
  </outline>
</glyph>
<glyph name="O" format="2">
  <advance width="733"/>
  <unicode hex="004F"/>
  <outline>
    <contour>
      <point x="589" y="355" type="curve" smooth="yes"/>
      <point x="589" y="183"/>
      <point x="506" y="45"/>
      <point x="362" y="45" type="curve" smooth="yes"/>
      <point x="217" y="45"/>
      <point x="143" y="180"/>
      <point x="143" y="350" type="curve" smooth="yes"/>
      <point x="143" y="527"/>
      <point x="225" y="675"/>
      <point x="371" y="675" type="curve" smooth="yes"/>
      <point x="541" y="675"/>
      <point x="589" y="480"/>
    </contour>
    <contour>
      <point x="35" y="358" type="curve" smooth="yes"/>
      <point x="35" y="152"/>
      <point x="142" y="-14"/>
      <point x="366" y="-14" type="curve" smooth="yes"/>
      <point x="589" y="-14"/>
      <point x="698" y="152"/>
      <point x="698" y="358" type="curve" smooth="yes"/>
      <point x="698" y="564"/>
      <point x="589" y="732"/>
      <point x="366" y="732" type="curve" smooth="yes"/>
      <point x="142" y="732"/>
      <point x="35" y="564"/>
    </contour>
  </outline>
</glyph>
<glyph name="P" format="2">
  <advance width="596"/>
  <unicode hex="0050"/>
  <outline>
    <contour>
      <point x="226" y="630" type="line" smooth="yes"/>
      <point x="226" y="648"/>
      <point x="234" y="676"/>
      <point x="302" y="676" type="curve" smooth="yes"/>
      <point x="414" y="676"/>
      <point x="472" y="595"/>
      <point x="472" y="491" type="curve" smooth="yes"/>
      <point x="472" y="384"/>
      <point x="415" y="313"/>
      <point x="313" y="313" type="curve" smooth="yes"/>
      <point x="283" y="313"/>
      <point x="272" y="320"/>
      <point x="264" y="320" type="curve" smooth="yes"/>
      <point x="253" y="320"/>
      <point x="248" y="308"/>
      <point x="248" y="296" type="curve" smooth="yes"/>
      <point x="248" y="272"/>
      <point x="291" y="261"/>
      <point x="336" y="261" type="curve" smooth="yes"/>
      <point x="502" y="261"/>
      <point x="576" y="369"/>
      <point x="576" y="494" type="curve" smooth="yes"/>
      <point x="576" y="624"/>
      <point x="492" y="732"/>
      <point x="284" y="732" type="curve" smooth="yes"/>
      <point x="190" y="732"/>
      <point x="86" y="708"/>
      <point x="35" y="688" type="curve"/>
      <point x="47" y="651" type="line"/>
      <point x="105" y="651" type="line" smooth="yes"/>
      <point x="120" y="651"/>
      <point x="127" y="645"/>
      <point x="127" y="627" type="curve" smooth="yes"/>
      <point x="127" y="133" type="line" smooth="yes"/>
      <point x="127" y="72"/>
      <point x="113" y="53"/>
      <point x="63" y="40" type="curve" smooth="yes"/>
      <point x="40" y="34" type="line"/>
      <point x="52" y="0" type="line"/>
      <point x="271" y="0" type="line"/>
      <point x="284" y="16" type="line"/>
      <point x="271" y="34" type="line" smooth="yes"/>
      <point x="238" y="78"/>
      <point x="226" y="119"/>
      <point x="226" y="201" type="curve" smooth="yes"/>
    </contour>
  </outline>
</glyph>
<glyph name="Q" format="2">
  <advance width="733"/>
  <unicode hex="0051"/>
  <outline>
    <contour>
      <point x="35" y="358" type="curve" smooth="yes"/>
      <point x="35" y="152"/>
      <point x="142" y="-14"/>
      <point x="366" y="-14" type="curve" smooth="yes"/>
      <point x="411" y="-14"/>
      <point x="451" y="-7"/>
      <point x="487" y="5" type="curve"/>
      <point x="526" y="-80" type="line" smooth="yes"/>
      <point x="559" y="-154"/>
      <point x="606" y="-222"/>
      <point x="690" y="-222" type="curve" smooth="yes"/>
      <point x="737" y="-222"/>
      <point x="783" y="-189"/>
      <point x="783" y="-139" type="curve" smooth="yes"/>
      <point x="783" y="-134"/>
      <point x="780" y="-129"/>
      <point x="774" y="-129" type="curve" smooth="yes"/>
      <point x="766" y="-129"/>
      <point x="749" y="-142"/>
      <point x="719" y="-142" type="curve" smooth="yes"/>
      <point x="670" y="-142"/>
      <point x="638" y="-119"/>
      <point x="614" y="-65" type="curve" smooth="yes"/>
      <point x="564" y="46" type="line"/>
      <point x="654" y="112"/>
      <point x="698" y="227"/>
      <point x="698" y="358" type="curve" smooth="yes"/>
      <point x="698" y="564"/>
      <point x="589" y="732"/>
      <point x="366" y="732" type="curve" smooth="yes"/>
      <point x="142" y="732"/>
      <point x="35" y="564"/>
    </contour>
    <contour>
      <point x="589" y="355" type="curve" smooth="yes"/>
      <point x="589" y="264"/>
      <point x="565" y="183"/>
      <point x="522" y="126" type="curve"/>
      <point x="466" y="214"/>
      <point x="398" y="254"/>
      <point x="327" y="254" type="curve" smooth="yes"/>
      <point x="249" y="254"/>
      <point x="201" y="213"/>
      <point x="201" y="147" type="curve" smooth="yes"/>
      <point x="201" y="140"/>
      <point x="201" y="134"/>
      <point x="203" y="127" type="curve"/>
      <point x="163" y="182"/>
      <point x="143" y="261"/>
      <point x="143" y="350" type="curve" smooth="yes"/>
      <point x="143" y="527"/>
      <point x="225" y="675"/>
      <point x="371" y="675" type="curve" smooth="yes"/>
      <point x="541" y="675"/>
      <point x="589" y="480"/>
    </contour>
    <contour>
      <point x="244" y="133" type="curve" smooth="yes"/>
      <point x="244" y="172"/>
      <point x="272" y="196"/>
      <point x="310" y="196" type="curve" smooth="yes"/>
      <point x="354" y="196"/>
      <point x="412" y="163"/>
      <point x="458" y="70" type="curve"/>
      <point x="430" y="54"/>
      <point x="398" y="45"/>
      <point x="362" y="45" type="curve" smooth="yes"/>
      <point x="304" y="45"/>
      <point x="244" y="70"/>
    </contour>
  </outline>
</glyph>
<glyph name="R" format="2">
  <advance width="640"/>
  <unicode hex="0052"/>
  <outline>
    <contour>
      <point x="604" y="55" type="line"/>
      <point x="590" y="45"/>
      <point x="578" y="41"/>
      <point x="565" y="41" type="curve" smooth="yes"/>
      <point x="547" y="41"/>
      <point x="536" y="54"/>
      <point x="527" y="72" type="curve" smooth="yes"/>
      <point x="434" y="261" type="line" smooth="yes"/>
      <point x="423" y="282"/>
      <point x="412" y="298"/>
      <point x="394" y="310" type="curve"/>
      <point x="505" y="336"/>
      <point x="556" y="419"/>
      <point x="556" y="513" type="curve" smooth="yes"/>
      <point x="556" y="633"/>
      <point x="472" y="732"/>
      <point x="264" y="732" type="curve" smooth="yes"/>
      <point x="170" y="732"/>
      <point x="66" y="708"/>
      <point x="15" y="688" type="curve"/>
      <point x="27" y="651" type="line"/>
      <point x="85" y="651" type="line" smooth="yes"/>
      <point x="100" y="651"/>
      <point x="107" y="645"/>
      <point x="107" y="627" type="curve" smooth="yes"/>
      <point x="107" y="133" type="line" smooth="yes"/>
      <point x="107" y="72"/>
      <point x="93" y="53"/>
      <point x="43" y="40" type="curve" smooth="yes"/>
      <point x="20" y="34" type="line"/>
      <point x="32" y="0" type="line" name=".hr01"/>
      <point x="251" y="0" type="line"/>
      <point x="264" y="16" type="line"/>
      <point x="251" y="34" type="line" smooth="yes"/>
      <point x="219" y="78"/>
      <point x="206" y="119"/>
      <point x="206" y="201" type="curve" smooth="yes"/>
      <point x="206" y="630" type="line" smooth="yes"/>
      <point x="206" y="648"/>
      <point x="214" y="676"/>
      <point x="282" y="676" type="curve" smooth="yes"/>
      <point x="394" y="676"/>
      <point x="452" y="603"/>
      <point x="452" y="510" type="curve" smooth="yes"/>
      <point x="452" y="417"/>
      <point x="395" y="354"/>
      <point x="293" y="354" type="curve" smooth="yes"/>
      <point x="263" y="354"/>
      <point x="252" y="361"/>
      <point x="244" y="361" type="curve" smooth="yes"/>
      <point x="233" y="361"/>
      <point x="228" y="349"/>
      <point x="228" y="337" type="curve" smooth="yes"/>
      <point x="228" y="327"/>
      <point x="234" y="319"/>
      <point x="247" y="314" type="curve" smooth="yes"/>
      <point x="286" y="300"/>
      <point x="302" y="293"/>
      <point x="315" y="264" type="curve" smooth="yes"/>
      <point x="391" y="103" type="line" smooth="yes"/>
      <point x="426" y="28"/>
      <point x="459" y="-14" name=".hr02"/>
      <point x="529" y="-14" type="curve" smooth="yes"/>
      <point x="560" y="-14"/>
      <point x="592" y="-2"/>
      <point x="621" y="26" type="curve"/>
    </contour>
  </outline>
</glyph>
<glyph name="S" format="2">
  <advance width="572"/>
  <unicode hex="0053"/>
  <outline>
    <contour>
      <point x="292" y="42" type="curve" smooth="yes"/>
      <point x="206" y="42"/>
      <point x="148" y="91"/>
      <point x="148" y="161" type="curve" smooth="yes"/>
      <point x="148" y="217"/>
      <point x="180" y="243"/>
      <point x="180" y="252" type="curve" smooth="yes"/>
      <point x="180" y="258"/>
      <point x="174" y="264"/>
      <point x="159" y="264" type="curve" smooth="yes"/>
      <point x="94" y="264"/>
      <point x="45" y="216"/>
      <point x="45" y="147" type="curve" smooth="yes"/>
      <point x="45" y="52"/>
      <point x="147" y="-14"/>
      <point x="292" y="-14" type="curve" smooth="yes"/>
      <point x="443" y="-14"/>
      <point x="522" y="65"/>
      <point x="522" y="181" type="curve" smooth="yes"/>
      <point x="522" y="429"/>
      <point x="156" y="386"/>
      <point x="156" y="561" type="curve" smooth="yes"/>
      <point x="156" y="620"/>
      <point x="196" y="676"/>
      <point x="279" y="676" type="curve" smooth="yes"/>
      <point x="355" y="676"/>
      <point x="406" y="633" name=".hr01"/>
      <point x="406" y="571" type="curve" smooth="yes"/>
      <point x="406" y="515"/>
      <point x="376" y="490"/>
      <point x="376" y="480" type="curve" smooth="yes"/>
      <point x="376" y="472"/>
      <point x="382" y="468"/>
      <point x="397" y="468" type="curve" smooth="yes"/>
      <point x="458" y="468"/>
      <point x="504" y="516"/>
      <point x="504" y="585" type="curve" smooth="yes"/>
      <point x="504" y="672"/>
      <point x="411" y="732"/>
      <point x="279" y="732" type="curve" smooth="yes"/>
      <point x="131" y="732"/>
      <point x="61" y="636"/>
      <point x="61" y="538" type="curve" smooth="yes"/>
      <point x="61" y="294"/>
      <point x="421" y="350" name=".hr02"/>
      <point x="421" y="155" type="curve" smooth="yes"/>
      <point x="421" y="83"/>
      <point x="367" y="42"/>
    </contour>
  </outline>
</glyph>
<glyph name="T" format="2">
  <advance width="595"/>
  <unicode hex="0054"/>
  <outline>
    <contour>
      <point x="541" y="549" type="line"/>
      <point x="575" y="561" type="line"/>
      <point x="575" y="739" type="line"/>
      <point x="559" y="752" type="line"/>
      <point x="541" y="739" type="line" smooth="yes"/>
      <point x="521" y="724"/>
      <point x="485" y="718"/>
      <point x="427" y="718" type="curve" smooth="yes"/>
      <point x="168" y="718" type="line" smooth="yes"/>
      <point x="110" y="718"/>
      <point x="74" y="724"/>
      <point x="54" y="739" type="curve" smooth="yes"/>
      <point x="36" y="752" type="line"/>
      <point x="20" y="739" type="line"/>
      <point x="20" y="561" type="line"/>
      <point x="54" y="549" type="line"/>
      <point x="60" y="572" type="line" smooth="yes"/>
      <point x="79" y="643"/>
      <point x="98" y="661"/>
      <point x="169" y="661" type="curve" smooth="yes"/>
      <point x="214" y="661" type="line" smooth="yes"/>
      <point x="242" y="661"/>
      <point x="248" y="647"/>
      <point x="248" y="585" type="curve" smooth="yes"/>
      <point x="248" y="201" type="line" smooth="yes"/>
      <point x="248" y="120"/>
      <point x="236" y="78"/>
      <point x="203" y="34" type="curve" smooth="yes"/>
      <point x="190" y="16" type="line"/>
      <point x="203" y="0" type="line"/>
      <point x="422" y="0" type="line"/>
      <point x="434" y="34" type="line"/>
      <point x="411" y="40" type="line"/>
      <point x="361" y="55"/>
      <point x="347" y="71"/>
      <point x="347" y="133" type="curve" smooth="yes"/>
      <point x="347" y="585" type="line" smooth="yes"/>
      <point x="347" y="647"/>
      <point x="353" y="661"/>
      <point x="381" y="661" type="curve" smooth="yes"/>
      <point x="426" y="661" type="line" smooth="yes"/>
      <point x="497" y="661"/>
      <point x="516" y="643"/>
      <point x="535" y="572" type="curve" smooth="yes"/>
    </contour>
  </outline>
</glyph>
<glyph name="U" format="2">
  <advance width="739"/>
  <unicode hex="0055"/>
  <outline>
    <contour>
      <point x="210" y="517" type="line" smooth="yes"/>
      <point x="210" y="598"/>
      <point x="222" y="640"/>
      <point x="255" y="684" type="curve" smooth="yes"/>
      <point x="268" y="702" type="line"/>
      <point x="255" y="718" type="line"/>
      <point x="36" y="718" type="line"/>
      <point x="24" y="684" type="line"/>
      <point x="47" y="678" type="line"/>
      <point x="97" y="663"/>
      <point x="111" y="647"/>
      <point x="111" y="585" type="curve" smooth="yes"/>
      <point x="111" y="220" type="line" smooth="yes"/>
      <point x="111" y="55"/>
      <point x="227" y="-14"/>
      <point x="373" y="-14" type="curve" smooth="yes"/>
      <point x="517" y="-14"/>
      <point x="632" y="55"/>
      <point x="632" y="220" type="curve" smooth="yes"/>
      <point x="632" y="517" type="line" smooth="yes"/>
      <point x="632" y="598"/>
      <point x="644" y="640"/>
      <point x="677" y="684" type="curve" smooth="yes"/>
      <point x="690" y="702" type="line"/>
      <point x="677" y="718" type="line"/>
      <point x="487" y="718" type="line"/>
      <point x="475" y="684" type="line"/>
      <point x="498" y="678" type="line"/>
      <point x="548" y="663"/>
      <point x="562" y="647"/>
      <point x="562" y="585" type="curve" smooth="yes"/>
      <point x="562" y="220" type="line" smooth="yes"/>
      <point x="562" y="111"/>
      <point x="484" y="49"/>
      <point x="386" y="49" type="curve" smooth="yes"/>
      <point x="288" y="49"/>
      <point x="210" y="111"/>
      <point x="210" y="220" type="curve" smooth="yes"/>
    </contour>
  </outline>
</glyph>
<glyph name="V" format="2">
  <advance width="682"/>
  <unicode hex="0056"/>
  <outline>
    <contour>
      <point x="597" y="584" type="line" smooth="yes"/>
      <point x="609" y="621"/>
      <point x="626" y="653"/>
      <point x="652" y="684" type="curve" smooth="yes"/>
      <point x="667" y="702" type="line"/>
      <point x="654" y="718" type="line"/>
      <point x="464" y="718" type="line"/>
      <point x="452" y="684" type="line"/>
      <point x="475" y="678" type="line" smooth="yes"/>
      <point x="505" y="670"/>
      <point x="519" y="647"/>
      <point x="520" y="611" type="curve"/>
      <point x="520" y="587"/>
      <point x="513" y="556"/>
      <point x="501" y="518" type="curve" smooth="yes"/>
      <point x="361" y="83" type="line"/>
      <point x="198" y="585" type="line" smooth="yes"/>
      <point x="191" y="606"/>
      <point x="187" y="621"/>
      <point x="187" y="634" type="curve" smooth="yes"/>
      <point x="187" y="659"/>
      <point x="201" y="670"/>
      <point x="232" y="678" type="curve" smooth="yes"/>
      <point x="255" y="684" type="line"/>
      <point x="243" y="718" type="line"/>
      <point x="18" y="718" type="line"/>
      <point x="5" y="702" type="line"/>
      <point x="48" y="669"/>
      <point x="73" y="646"/>
      <point x="95" y="580" type="curve" smooth="yes"/>
      <point x="290" y="0" type="line"/>
      <point x="404" y="0" type="line"/>
    </contour>
  </outline>
</glyph>
<glyph name="X" format="2">
  <advance width="680"/>
  <unicode hex="0058"/>
  <outline>
    <contour>
      <point x="250" y="576" type="line" smooth="yes"/>
      <point x="240" y="591"/>
      <point x="228" y="614"/>
      <point x="228" y="635" type="curve" smooth="yes"/>
      <point x="228" y="654"/>
      <point x="238" y="670"/>
      <point x="267" y="678" type="curve" smooth="yes"/>
      <point x="290" y="684" type="line"/>
      <point x="278" y="718" type="line"/>
      <point x="41" y="718" type="line"/>
      <point x="28" y="702" type="line"/>
      <point x="63" y="672"/>
      <point x="94" y="631"/>
      <point x="119" y="596" type="curve" smooth="yes"/>
      <point x="290" y="353" type="line"/>
      <point x="111" y="94" type="line" smooth="yes"/>
      <point x="87" y="59"/>
      <point x="62" y="48"/>
      <point x="33" y="40" type="curve" smooth="yes"/>
      <point x="10" y="34" type="line"/>
      <point x="22" y="0" type="line"/>
      <point x="206" y="0" type="line"/>
      <point x="225" y="16" type="line"/>
      <point x="216" y="34" type="line"/>
      <point x="211" y="45"/>
      <point x="203" y="63"/>
      <point x="203" y="79" type="curve" smooth="yes"/>
      <point x="203" y="95"/>
      <point x="206" y="107"/>
      <point x="224" y="135" type="curve" smooth="yes"/>
      <point x="330" y="295" type="line"/>
      <point x="439" y="142" type="line"/>
      <point x="449" y="127"/>
      <point x="461" y="104"/>
      <point x="461" y="83" type="curve" smooth="yes"/>
      <point x="461" y="64"/>
      <point x="451" y="48"/>
      <point x="422" y="40" type="curve" smooth="yes"/>
      <point x="399" y="34" type="line"/>
      <point x="411" y="0" type="line"/>
      <point x="648" y="0" type="line"/>
      <point x="661" y="16" type="line"/>
      <point x="622" y="48"/>
      <point x="601" y="78"/>
      <point x="574" y="116" type="curve" smooth="yes"/>
      <point x="394" y="371" type="line"/>
      <point x="569" y="624" type="line" smooth="yes"/>
      <point x="593" y="659"/>
      <point x="618" y="670"/>
      <point x="647" y="678" type="curve" smooth="yes"/>
      <point x="670" y="684" type="line"/>
      <point x="658" y="718" type="line"/>
      <point x="474" y="718" type="line"/>
      <point x="455" y="702" type="line"/>
      <point x="464" y="684" type="line"/>
      <point x="469" y="673"/>
      <point x="477" y="655"/>
      <point x="477" y="639" type="curve" smooth="yes"/>
      <point x="477" y="623"/>
      <point x="474" y="611"/>
      <point x="456" y="583" type="curve" smooth="yes"/>
      <point x="353" y="429" type="line"/>
    </contour>
  </outline>
</glyph>
<glyph name="Z" format="2">
  <advance width="590"/>
  <unicode hex="005A"/>
  <outline>
    <contour>
      <point x="97" y="572" type="line" smooth="yes"/>
      <point x="116" y="643"/>
      <point x="135" y="661"/>
      <point x="206" y="661" type="curve" smooth="yes"/>
      <point x="417" y="661" type="line"/>
      <point x="20" y="0" type="line"/>
      <point x="480" y="0" type="line" smooth="yes"/>
      <point x="501" y="0"/>
      <point x="514" y="-4"/>
      <point x="522" y="-14" type="curve"/>
      <point x="530" y="-25" type="line"/>
      <point x="550" y="-14" type="line"/>
      <point x="550" y="157" type="line"/>
      <point x="516" y="169" type="line"/>
      <point x="510" y="146" type="line" smooth="yes"/>
      <point x="491" y="75"/>
      <point x="472" y="57"/>
      <point x="401" y="57" type="curve" smooth="yes"/>
      <point x="175" y="57" type="line"/>
      <point x="570" y="718" type="line"/>
      <point x="205" y="718" type="line" smooth="yes"/>
      <point x="147" y="718"/>
      <point x="111" y="724"/>
      <point x="91" y="739" type="curve" smooth="yes"/>
      <point x="73" y="752" type="line"/>
      <point x="57" y="739" type="line"/>
      <point x="57" y="561" type="line"/>
      <point x="91" y="549" type="line"/>
    </contour>
  </outline>
</glyph>
<glyph name="bracketleft" format="2">
  <advance width="387"/>
  <unicode hex="005B"/>
  <outline>
    <contour>
      <point x="126" y="-112" type="line"/>
      <point x="360" y="-112" type="line"/>
      <point x="360" y="-64" type="line"/>
      <point x="280" y="-52" type="line" smooth="yes"/>
      <point x="243" y="-46"/>
      <point x="225" y="-36"/>
      <point x="225" y="1" type="curve" smooth="yes"/>
      <point x="225" y="661" type="line" smooth="yes"/>
      <point x="225" y="698"/>
      <point x="243" y="708"/>
      <point x="280" y="714" type="curve" smooth="yes"/>
      <point x="360" y="726" type="line"/>
      <point x="360" y="774" type="line"/>
      <point x="126" y="774" type="line"/>
    </contour>
  </outline>
</glyph>
<glyph name="backslash" format="2">
  <advance width="371"/>
  <unicode hex="005C"/>
  <outline>
    <contour>
      <point x="371" y="-63" type="line"/>
      <point x="72" y="781" type="line"/>
      <point x="0" y="781" type="line"/>
      <point x="300" y="-63" type="line"/>
    </contour>
  </outline>
</glyph>
<glyph name="asciicircum" format="2">
  <advance width="621"/>
  <unicode hex="005E"/>
  <outline>
    <contour>
      <point x="267" y="718" type="line"/>
      <point x="96" y="398" type="line"/>
      <point x="177" y="398" type="line"/>
      <point x="309" y="653" type="line"/>
      <point x="443" y="398" type="line"/>
      <point x="524" y="398" type="line"/>
      <point x="353" y="718" type="line"/>
    </contour>
  </outline>
</glyph>
<glyph name="underscore" format="2">
  <advance width="355"/>
  <unicode hex="005F"/>
  <outline>
    <contour>
      <point x="355" y="-84" type="line"/>
      <point x="375" y="-69"/>
      <point x="381" y="-38"/>
      <point x="381" y="-14" type="curve"/>
      <point x="0" y="-14" type="line"/>
      <point x="-19" y="-29"/>
      <point x="-26" y="-60"/>
      <point x="-26" y="-84" type="curve"/>
    </contour>
  </outline>
</glyph>
<glyph name="grave" format="2">
  <advance width="288"/>
  <unicode hex="0060"/>
  <outline>
    <contour>
      <point x="96" y="760" type="line"/>
      <point x="71" y="748"/>
      <point x="54" y="726"/>
      <point x="54" y="697" type="curve" smooth="yes"/>
      <point x="54" y="668"/>
      <point x="69" y="645"/>
      <point x="110" y="625" type="curve" smooth="yes"/>
      <point x="223" y="569" type="line"/>
      <point x="252" y="604" type="line"/>
    </contour>
  </outline>
</glyph>
<glyph name="a" format="2">
  <advance width="604"/>
  <unicode hex="0061"/>
  <outline>
    <contour>
      <point x="401" y="92" type="curve"/>
      <point x="401" y="17"/>
      <point x="423" y="-14"/>
      <point x="478" y="-14" type="curve" smooth="yes"/>
      <point x="512" y="-14"/>
      <point x="554" y="10"/>
      <point x="589" y="49" type="curve"/>
      <point x="570" y="75" type="line"/>
      <point x="553" y="63"/>
      <point x="535" y="57"/>
      <point x="520" y="57" type="curve" smooth="yes"/>
      <point x="501" y="57"/>
      <point x="490" y="67"/>
      <point x="490" y="88" type="curve" smooth="yes"/>
      <point x="490" y="415" type="line" smooth="yes"/>
      <point x="490" y="432"/>
      <point x="495" y="442"/>
      <point x="503" y="454" type="curve" smooth="yes"/>
      <point x="515" y="472" type="line"/>
      <point x="504" y="485" type="line"/>
      <point x="436" y="490"/>
      <point x="366" y="510"/>
      <point x="304" y="510" type="curve" smooth="yes"/>
      <point x="145" y="510"/>
      <point x="45" y="402"/>
      <point x="45" y="229" type="curve" smooth="yes"/>
      <point x="45" y="67"/>
      <point x="130" y="-14"/>
      <point x="224" y="-14" type="curve" smooth="yes"/>
      <point x="286" y="-14"/>
      <point x="343" y="11"/>
    </contour>
    <contour>
      <point x="150" y="248" type="curve" smooth="yes"/>
      <point x="150" y="379"/>
      <point x="206" y="455"/>
      <point x="303" y="455" type="curve" smooth="yes"/>
      <point x="336" y="455"/>
      <point x="370" y="445"/>
      <point x="401" y="424" type="curve"/>
      <point x="401" y="154" type="line"/>
      <point x="364" y="91"/>
      <point x="315" y="63"/>
      <point x="264" y="63" type="curve" smooth="yes"/>
      <point x="205" y="63"/>
      <point x="150" y="112"/>
    </contour>
  </outline>
</glyph>
<glyph name="d" format="2">
  <advance width="604"/>
  <unicode hex="0064"/>
  <outline>
    <contour>
      <point x="150" y="248" type="curve" smooth="yes"/>
      <point x="150" y="379"/>
      <point x="206" y="455"/>
      <point x="303" y="455" type="curve" smooth="yes"/>
      <point x="336" y="455"/>
      <point x="370" y="445"/>
      <point x="401" y="424" type="curve"/>
      <point x="401" y="154" type="line"/>
      <point x="364" y="91"/>
      <point x="315" y="63"/>
      <point x="264" y="63" type="curve" smooth="yes"/>
      <point x="205" y="63"/>
      <point x="150" y="112"/>
    </contour>
    <contour>
      <point x="490" y="750" type="line" smooth="yes"/>
      <point x="490" y="769"/>
      <point x="477" y="782"/>
      <point x="458" y="782" type="curve" smooth="yes"/>
      <point x="420" y="782"/>
      <point x="365" y="757"/>
      <point x="326" y="722" type="curve"/>
      <point x="335" y="696" type="line"/>
      <point x="379" y="696" type="line" smooth="yes"/>
      <point x="393" y="696"/>
      <point x="399" y="690"/>
      <point x="399" y="674" type="curve" smooth="yes"/>
      <point x="399" y="497" type="line"/>
      <point x="369" y="506"/>
      <point x="338" y="510"/>
      <point x="304" y="510" type="curve" smooth="yes"/>
      <point x="145" y="510"/>
      <point x="45" y="402"/>
      <point x="45" y="229" type="curve" smooth="yes"/>
      <point x="45" y="67"/>
      <point x="130" y="-14"/>
      <point x="224" y="-14" type="curve" smooth="yes"/>
      <point x="286" y="-14"/>
      <point x="343" y="11"/>
      <point x="401" y="92" type="curve"/>
      <point x="401" y="17"/>
      <point x="423" y="-14"/>
      <point x="478" y="-14" type="curve" smooth="yes"/>
      <point x="512" y="-14"/>
      <point x="554" y="10"/>
      <point x="589" y="49" type="curve"/>
      <point x="570" y="75" type="line"/>
      <point x="553" y="63"/>
      <point x="535" y="57"/>
      <point x="520" y="57" type="curve" smooth="yes"/>
      <point x="501" y="57"/>
      <point x="490" y="67"/>
      <point x="490" y="88" type="curve" smooth="yes"/>
    </contour>
  </outline>
</glyph>
<glyph name="e" format="2">
  <advance width="529"/>
  <unicode hex="0065"/>
  <outline>
    <contour>
      <point x="473" y="75" type="curve"/>
      <point x="475" y="77"/>
      <point x="477" y="80"/>
      <point x="477" y="84" type="curve" smooth="yes"/>
      <point x="477" y="97"/>
      <point x="462" y="113"/>
      <point x="451" y="113" type="curve" smooth="yes"/>
      <point x="446" y="113"/>
      <point x="444" y="111"/>
      <point x="442" y="109" type="curve" smooth="yes"/>
      <point x="402" y="70"/>
      <point x="352" y="52"/>
      <point x="296" y="52" type="curve" smooth="yes"/>
      <point x="199" y="52"/>
      <point x="148" y="125"/>
      <point x="148" y="242" type="curve" smooth="yes"/>
      <point x="148" y="383"/>
      <point x="199" y="460"/>
      <point x="284" y="460" type="curve" smooth="yes"/>
      <point x="347" y="460"/>
      <point x="379" y="413"/>
      <point x="379" y="364" type="curve" smooth="yes"/>
      <point x="379" y="307"/>
      <point x="337" y="250"/>
      <point x="252" y="250" type="curve" smooth="yes"/>
      <point x="211" y="250"/>
      <point x="198" y="263"/>
      <point x="188" y="263" type="curve" smooth="yes"/>
      <point x="180" y="263"/>
      <point x="173" y="252"/>
      <point x="173" y="241" type="curve" smooth="yes"/>
      <point x="173" y="206"/>
      <point x="255" y="194"/>
      <point x="283" y="194" type="curve" smooth="yes"/>
      <point x="408" y="194"/>
      <point x="474" y="281"/>
      <point x="474" y="363" type="curve" smooth="yes"/>
      <point x="474" y="438"/>
      <point x="419" y="510"/>
      <point x="304" y="510" type="curve" smooth="yes"/>
      <point x="147" y="510"/>
      <point x="45" y="403"/>
      <point x="45" y="242" type="curve" smooth="yes"/>
      <point x="45" y="88"/>
      <point x="135" y="-14"/>
      <point x="275" y="-14" type="curve" smooth="yes"/>
      <point x="354" y="-14"/>
      <point x="423" y="17"/>
    </contour>
  </outline>
</glyph>
<glyph name="f" format="2">
  <advance width="334"/>
  <unicode hex="0066"/>
  <outline>
    <contour>
      <point x="45" y="481" type="line" smooth="yes"/>
      <point x="24" y="476"/>
      <point x="21" y="470"/>
      <point x="21" y="434" type="curve"/>
      <point x="109" y="434" type="line"/>
      <point x="109" y="-90" type="line" smooth="yes"/>
      <point x="109" y="-163"/>
      <point x="76" y="-195"/>
      <point x="39" y="-195" type="curve" smooth="yes"/>
      <point x="8" y="-195"/>
      <point x="-16" y="-171"/>
      <point x="-16" y="-129" type="curve" smooth="yes"/>
      <point x="-16" y="-82"/>
      <point x="12" y="-66"/>
      <point x="12" y="-57" type="curve" smooth="yes"/>
      <point x="12" y="-49"/>
      <point x="6" y="-46"/>
      <point x="-7" y="-46" type="curve" smooth="yes"/>
      <point x="-64" y="-46"/>
      <point x="-105" y="-85"/>
      <point x="-105" y="-136" type="curve" smooth="yes"/>
      <point x="-105" y="-200"/>
      <point x="-51" y="-238"/>
      <point x="19" y="-238" type="curve" smooth="yes"/>
      <point x="142" y="-238"/>
      <point x="199" y="-147"/>
      <point x="199" y="-13" type="curve" smooth="yes"/>
      <point x="199" y="434" type="line"/>
      <point x="316" y="434" type="line"/>
      <point x="330" y="445"/>
      <point x="339" y="468"/>
      <point x="339" y="497" type="curve"/>
      <point x="199" y="497" type="line"/>
      <point x="199" y="573" type="line" smooth="yes"/>
      <point x="199" y="670"/>
      <point x="223" y="737"/>
      <point x="284" y="737" type="curve" smooth="yes"/>
      <point x="325" y="737"/>
      <point x="351" y="709"/>
      <point x="351" y="666" type="curve" smooth="yes"/>
      <point x="351" y="610"/>
      <point x="327" y="593"/>
      <point x="327" y="584" type="curve" smooth="yes"/>
      <point x="327" y="576"/>
      <point x="333" y="573"/>
      <point x="346" y="573" type="curve" smooth="yes"/>
      <point x="403" y="573"/>
      <point x="444" y="613"/>
      <point x="444" y="671" type="curve" smooth="yes"/>
      <point x="444" y="736"/>
      <point x="382" y="782"/>
      <point x="295" y="782" type="curve" smooth="yes"/>
      <point x="170" y="782"/>
      <point x="109" y="670"/>
      <point x="109" y="497" type="curve"/>
    </contour>
  </outline>
</glyph>
<glyph name="g" format="2">
  <advance width="602"/>
  <unicode hex="0067"/>
  <outline>
    <contour>
      <point x="165" y="248" type="curve" smooth="yes"/>
      <point x="165" y="379"/>
      <point x="221" y="455"/>
      <point x="318" y="455" type="curve" smooth="yes"/>
      <point x="351" y="455"/>
      <point x="385" y="445"/>
      <point x="416" y="424" type="curve"/>
      <point x="416" y="183" type="line"/>
      <point x="379" y="120"/>
      <point x="330" y="92"/>
      <point x="279" y="92" type="curve" smooth="yes"/>
      <point x="220" y="92"/>
      <point x="165" y="133"/>
    </contour>
    <contour>
      <point x="296" y="-226" type="curve" smooth="yes"/>
      <point x="241" y="-226"/>
      <point x="209" y="-184"/>
      <point x="209" y="-133" type="curve" smooth="yes" name=".hr01"/>
      <point x="209" y="-60"/>
      <point x="258" y="-38"/>
      <point x="258" y="-25" type="curve" smooth="yes"/>
      <point x="258" y="-20"/>
      <point x="253" y="-14"/>
      <point x="239" y="-14" type="curve" smooth="yes"/>
      <point x="156" y="-14"/>
      <point x="112" y="-73"/>
      <point x="112" y="-135" type="curve" smooth="yes"/>
      <point x="112" y="-205"/>
      <point x="167" y="-278"/>
      <point x="283" y="-278" type="curve" smooth="yes"/>
      <point x="418" y="-278"/>
      <point x="505" y="-188"/>
      <point x="505" y="-22" type="curve" smooth="yes"/>
      <point x="505" y="415" type="line" smooth="yes"/>
      <point x="505" y="432"/>
      <point x="510" y="442"/>
      <point x="518" y="454" type="curve" smooth="yes"/>
      <point x="530" y="472" type="line"/>
      <point x="519" y="485" type="line"/>
      <point x="451" y="490"/>
      <point x="381" y="510"/>
      <point x="319" y="510" type="curve" smooth="yes"/>
      <point x="160" y="510"/>
      <point x="60" y="402"/>
      <point x="60" y="229" type="curve" smooth="yes" name=".hr02"/>
      <point x="60" y="86"/>
      <point x="145" y="15"/>
      <point x="239" y="15" type="curve" smooth="yes"/>
      <point x="301" y="15"/>
      <point x="358" y="40"/>
      <point x="416" y="121" type="curve"/>
      <point x="416" y="-38" type="line" smooth="yes"/>
      <point x="416" y="-146"/>
      <point x="382" y="-226"/>
    </contour>
  </outline>
</glyph>
<glyph name="h" format="2">
  <advance width="639"/>
  <unicode hex="0068"/>
  <outline>
    <contour>
      <point x="108" y="111" type="line" smooth="yes"/>
      <point x="108" y="61"/>
      <point x="100" y="44"/>
      <point x="66" y="36" type="curve" smooth="yes"/>
      <point x="45" y="31" type="line"/>
      <point x="56" y="0" type="line"/>
      <point x="231" y="0" type="line"/>
      <point x="243" y="15" type="line"/>
      <point x="231" y="31" type="line"/>
      <point x="207" y="65"/>
      <point x="199" y="97"/>
      <point x="199" y="160" type="curve" smooth="yes"/>
      <point x="199" y="322"/>
      <point x="258" y="432"/>
      <point x="344" y="432" type="curve" smooth="yes"/>
      <point x="408" y="432"/>
      <point x="430" y="396"/>
      <point x="430" y="328" type="curve" smooth="yes"/>
      <point x="430" y="90" type="line" smooth="yes"/>
      <point x="430" y="15"/>
      <point x="452" y="-16" name=".hr01"/>
      <point x="507" y="-16" type="curve" smooth="yes"/>
      <point x="541" y="-16"/>
      <point x="584" y="8"/>
      <point x="619" y="47" type="curve"/>
      <point x="600" y="73" type="line"/>
      <point x="583" y="59"/>
      <point x="565" y="52"/>
      <point x="550" y="52" type="curve" smooth="yes"/>
      <point x="530" y="52"/>
      <point x="520" y="64"/>
      <point x="520" y="86" type="curve" smooth="yes"/>
      <point x="520" y="328" type="line" smooth="yes"/>
      <point x="520" y="453"/>
      <point x="486" y="510"/>
      <point x="386" y="510" type="curve" smooth="yes"/>
      <point x="310" y="510"/>
      <point x="233" y="448"/>
      <point x="199" y="361" type="curve"/>
      <point x="199" y="750" type="line" smooth="yes"/>
      <point x="199" y="769"/>
      <point x="186" y="782"/>
      <point x="167" y="782" type="curve" smooth="yes"/>
      <point x="129" y="782"/>
      <point x="74" y="757"/>
      <point x="35" y="722" type="curve"/>
      <point x="44" y="696" type="line"/>
      <point x="88" y="696" type="line" smooth="yes"/>
      <point x="102" y="696"/>
      <point x="108" y="690"/>
      <point x="108" y="674" type="curve" smooth="yes"/>
    </contour>
  </outline>
</glyph>
<glyph name="i" format="2">
  <advance width="312"/>
  <unicode hex="0069"/>
  <outline>
    <contour>
      <point x="92" y="658" type="curve" smooth="yes"/>
      <point x="92" y="632"/>
      <point x="130" y="593"/>
      <point x="153" y="593" type="curve" smooth="yes"/>
      <point x="178" y="593"/>
      <point x="216" y="632"/>
      <point x="216" y="658" type="curve" smooth="yes"/>
      <point x="216" y="684"/>
      <point x="178" y="724"/>
      <point x="153" y="724" type="curve" smooth="yes"/>
      <point x="129" y="724"/>
      <point x="92" y="684"/>
    </contour>
    <contour>
      <point x="199" y="478" type="line" smooth="yes"/>
      <point x="199" y="497"/>
      <point x="186" y="510"/>
      <point x="167" y="510" type="curve" smooth="yes"/>
      <point x="129" y="510"/>
      <point x="74" y="485"/>
      <point x="35" y="450" type="curve"/>
      <point x="44" y="424" type="line"/>
      <point x="88" y="424" type="line" smooth="yes"/>
      <point x="102" y="424"/>
      <point x="108" y="418"/>
      <point x="108" y="402" type="curve" smooth="yes"/>
      <point x="108" y="92" type="line" smooth="yes"/>
      <point x="108" y="17"/>
      <point x="130" y="-14"/>
      <point x="185" y="-14" type="curve" smooth="yes"/>
      <point x="219" y="-14"/>
      <point x="262" y="10"/>
      <point x="297" y="49" type="curve"/>
      <point x="278" y="75" type="line"/>
      <point x="261" y="61"/>
      <point x="243" y="54"/>
      <point x="228" y="54" type="curve" smooth="yes"/>
      <point x="208" y="54"/>
      <point x="198" y="66"/>
      <point x="198" y="88" type="curve" smooth="yes"/>
    </contour>
  </outline>
</glyph>
<glyph name="j" format="2">
  <advance width="291"/>
  <unicode hex="006A"/>
  <outline>
    <contour>
      <point x="87" y="658" type="curve" smooth="yes"/>
      <point x="87" y="632"/>
      <point x="125" y="593"/>
      <point x="148" y="593" type="curve" smooth="yes"/>
      <point x="173" y="593"/>
      <point x="211" y="632"/>
      <point x="211" y="658" type="curve" smooth="yes"/>
      <point x="211" y="684"/>
      <point x="173" y="724"/>
      <point x="148" y="724" type="curve" smooth="yes"/>
      <point x="124" y="724"/>
      <point x="87" y="684"/>
    </contour>
    <contour>
      <point x="103" y="-130" type="line" smooth="yes"/>
      <point x="103" y="-203"/>
      <point x="70" y="-235"/>
      <point x="33" y="-235" type="curve" smooth="yes"/>
      <point x="2" y="-235"/>
      <point x="-22" y="-211"/>
      <point x="-22" y="-169" type="curve" smooth="yes"/>
      <point x="-22" y="-122"/>
      <point x="6" y="-106"/>
      <point x="6" y="-97" type="curve" smooth="yes"/>
      <point x="6" y="-89"/>
      <point x="0" y="-86"/>
      <point x="-13" y="-86" type="curve" smooth="yes"/>
      <point x="-70" y="-86"/>
      <point x="-111" y="-125"/>
      <point x="-111" y="-176" type="curve" smooth="yes"/>
      <point x="-111" y="-240"/>
      <point x="-57" y="-278"/>
      <point x="13" y="-278" type="curve" smooth="yes"/>
      <point x="136" y="-278"/>
      <point x="194" y="-187"/>
      <point x="194" y="-53" type="curve" smooth="yes"/>
      <point x="194" y="478" type="line" smooth="yes"/>
      <point x="194" y="497"/>
      <point x="181" y="510"/>
      <point x="162" y="510" type="curve" smooth="yes"/>
      <point x="124" y="510"/>
      <point x="69" y="485"/>
      <point x="30" y="450" type="curve"/>
      <point x="39" y="424" type="line"/>
      <point x="83" y="424" type="line" smooth="yes"/>
      <point x="97" y="424"/>
      <point x="103" y="418"/>
      <point x="103" y="402" type="curve" smooth="yes"/>
    </contour>
  </outline>
</glyph>
<glyph name="k" format="2">
  <advance width="584"/>
  <unicode hex="006B"/>
  <outline>
    <contour>
      <point x="336" y="92" type="line" smooth="yes"/>
      <point x="371" y="25"/>
      <point x="394" y="-14"/>
      <point x="457" y="-14" type="curve" smooth="yes"/>
      <point x="494" y="-14"/>
      <point x="531" y="4"/>
      <point x="564" y="49" type="curve"/>
      <point x="543" y="75" type="line"/>
      <point x="528" y="60"/>
      <point x="508" y="49"/>
      <point x="490" y="49" type="curve" smooth="yes"/>
      <point x="473" y="49"/>
      <point x="459" y="55"/>
      <point x="448" y="77" type="curve" smooth="yes"/>
      <point x="370" y="225" type="line"/>
      <point x="466" y="236"/>
      <point x="518" y="310"/>
      <point x="518" y="379" type="curve" smooth="yes"/>
      <point x="518" y="447"/>
      <point x="473" y="510"/>
      <point x="380" y="510" type="curve" smooth="yes"/>
      <point x="306" y="510"/>
      <point x="232" y="448"/>
      <point x="199" y="361" type="curve"/>
      <point x="199" y="750" type="line" smooth="yes"/>
      <point x="199" y="769"/>
      <point x="186" y="782"/>
      <point x="167" y="782" type="curve" smooth="yes"/>
      <point x="129" y="782"/>
      <point x="74" y="757"/>
      <point x="35" y="722" type="curve"/>
      <point x="44" y="696" type="line"/>
      <point x="88" y="696" type="line" smooth="yes"/>
      <point x="102" y="696"/>
      <point x="108" y="690"/>
      <point x="108" y="674" type="curve" smooth="yes"/>
      <point x="108" y="111" type="line" smooth="yes"/>
      <point x="108" y="61"/>
      <point x="100" y="44"/>
      <point x="66" y="36" type="curve" smooth="yes"/>
      <point x="45" y="31" type="line"/>
      <point x="56" y="0" type="line" name=".hr01"/>
      <point x="231" y="0" type="line"/>
      <point x="243" y="15" type="line"/>
      <point x="231" y="31" type="line" smooth="yes"/>
      <point x="206" y="64"/>
      <point x="199" y="97"/>
      <point x="199" y="160" type="curve" smooth="yes"/>
      <point x="199" y="327"/>
      <point x="261" y="441"/>
      <point x="361" y="441" type="curve" smooth="yes"/>
      <point x="406" y="441"/>
      <point x="428" y="408"/>
      <point x="428" y="370" type="curve" smooth="yes"/>
      <point x="428" y="322"/>
      <point x="390" y="267"/>
      <point x="313" y="267" type="curve" smooth="yes"/>
      <point x="272" y="267"/>
      <point x="259" y="276"/>
      <point x="249" y="276" type="curve" smooth="yes"/>
      <point x="238" y="276"/>
      <point x="234" y="266"/>
      <point x="234" y="257" type="curve" smooth="yes"/>
      <point x="234" y="247"/>
      <point x="238" y="240"/>
      <point x="253" y="236" type="curve"/>
      <point x="262" y="233" type="line"/>
    </contour>
  </outline>
</glyph>
<glyph name="l" format="2">
  <advance width="302"/>
  <unicode hex="006C"/>
  <outline>
    <contour>
      <point x="189" y="750" type="line" smooth="yes"/>
      <point x="189" y="769"/>
      <point x="176" y="782"/>
      <point x="157" y="782" type="curve" smooth="yes"/>
      <point x="119" y="782"/>
      <point x="64" y="757"/>
      <point x="25" y="722" type="curve"/>
      <point x="34" y="696" type="line"/>
      <point x="78" y="696" type="line" smooth="yes"/>
      <point x="92" y="696"/>
      <point x="98" y="690"/>
      <point x="98" y="674" type="curve" smooth="yes"/>
      <point x="98" y="92" type="line" smooth="yes"/>
      <point x="98" y="17"/>
      <point x="120" y="-14"/>
      <point x="175" y="-14" type="curve" smooth="yes"/>
      <point x="209" y="-14"/>
      <point x="252" y="10"/>
      <point x="287" y="49" type="curve"/>
      <point x="268" y="75" type="line"/>
      <point x="251" y="61"/>
      <point x="233" y="54"/>
      <point x="218" y="54" type="curve" smooth="yes"/>
      <point x="198" y="54"/>
      <point x="188" y="66"/>
      <point x="188" y="88" type="curve" smooth="yes"/>
    </contour>
  </outline>
</glyph>
<glyph name="n" format="2">
  <advance width="644"/>
  <unicode hex="006E"/>
  <outline>
    <contour>
      <point x="204" y="160" type="curve" smooth="yes"/>
      <point x="204" y="322"/>
      <point x="263" y="432"/>
      <point x="349" y="432" type="curve" smooth="yes"/>
      <point x="406" y="432"/>
      <point x="435" y="398"/>
      <point x="435" y="330" type="curve" smooth="yes"/>
      <point x="435" y="92" type="line" smooth="yes"/>
      <point x="435" y="17"/>
      <point x="457" y="-14"/>
      <point x="512" y="-14" type="curve" smooth="yes"/>
      <point x="546" y="-14"/>
      <point x="589" y="10"/>
      <point x="624" y="49" type="curve"/>
      <point x="605" y="75" type="line"/>
      <point x="587" y="61"/>
      <point x="570" y="54"/>
      <point x="555" y="54" type="curve" smooth="yes"/>
      <point x="535" y="54"/>
      <point x="525" y="66"/>
      <point x="525" y="88" type="curve" smooth="yes"/>
      <point x="525" y="330" type="line" smooth="yes"/>
      <point x="525" y="455"/>
      <point x="484" y="510"/>
      <point x="391" y="510" type="curve" smooth="yes"/>
      <point x="315" y="510"/>
      <point x="238" y="448"/>
      <point x="204" y="361" type="curve"/>
      <point x="204" y="468" type="line" smooth="yes"/>
      <point x="204" y="487"/>
      <point x="191" y="500" name=".hr01"/>
      <point x="172" y="500" type="curve" smooth="yes"/>
      <point x="134" y="500"/>
      <point x="79" y="475"/>
      <point x="40" y="440" type="curve"/>
      <point x="49" y="414" type="line"/>
      <point x="93" y="414" type="line" smooth="yes"/>
      <point x="107" y="414"/>
      <point x="113" y="408"/>
      <point x="113" y="392" type="curve" smooth="yes"/>
      <point x="113" y="111" type="line" smooth="yes"/>
      <point x="113" y="61"/>
      <point x="105" y="44"/>
      <point x="71" y="36" type="curve" smooth="yes"/>
      <point x="50" y="31" type="line"/>
      <point x="61" y="0" type="line"/>
      <point x="236" y="0" type="line"/>
      <point x="248" y="15" type="line"/>
      <point x="236" y="31" type="line"/>
      <point x="212" y="65"/>
      <point x="204" y="97"/>
    </contour>
  </outline>
</glyph>
<glyph name="o" format="2">
  <advance width="578"/>
  <unicode hex="006F"/>
  <outline>
    <contour>
      <point x="428" y="245" type="curve" smooth="yes"/>
      <point x="428" y="122"/>
      <point x="369" y="40"/>
      <point x="286" y="40" type="curve" smooth="yes"/>
      <point x="202" y="40"/>
      <point x="149" y="121"/>
      <point x="149" y="247" type="curve" smooth="yes"/>
      <point x="149" y="372"/>
      <point x="207" y="458"/>
      <point x="292" y="458" type="curve" smooth="yes"/>
      <point x="398" y="458"/>
      <point x="428" y="326"/>
    </contour>
    <contour>
      <point x="45" y="248" type="curve" smooth="yes"/>
      <point x="45" y="88"/>
      <point x="139" y="-14"/>
      <point x="289" y="-14" type="curve" smooth="yes"/>
      <point x="438" y="-14"/>
      <point x="533" y="88"/>
      <point x="533" y="248" type="curve" smooth="yes"/>
      <point x="533" y="409"/>
      <point x="438" y="510"/>
      <point x="289" y="510" type="curve" smooth="yes"/>
      <point x="139" y="510"/>
      <point x="45" y="409"/>
    </contour>
  </outline>
</glyph>
<glyph name="p" format="2">
  <advance width="595"/>
  <unicode hex="0070"/>
  <outline>
    <contour>
      <point x="193" y="452" type="line" smooth="yes"/>
      <point x="193" y="482"/>
      <point x="185" y="498"/>
      <point x="169" y="498" type="curve" smooth="yes"/>
      <point x="125" y="498"/>
      <point x="52" y="477"/>
      <point x="30" y="458" type="curve"/>
      <point x="30" y="425" type="line"/>
      <point x="82" y="414" type="line" smooth="yes"/>
      <point x="99" y="410"/>
      <point x="103" y="401"/>
      <point x="103" y="381" type="curve" smooth="yes"/>
      <point x="103" y="-106" type="line" smooth="yes"/>
      <point x="103" y="-169"/>
      <point x="95" y="-201"/>
      <point x="71" y="-235" type="curve"/>
      <point x="59" y="-251" type="line"/>
      <point x="71" y="-266" type="line"/>
      <point x="245" y="-266" type="line"/>
      <point x="256" y="-235" type="line"/>
      <point x="235" y="-230" type="line" smooth="yes"/>
      <point x="201" y="-222"/>
      <point x="193" y="-205"/>
      <point x="193" y="-155" type="curve" smooth="yes"/>
      <point x="193" y="405" type="line"/>
      <point x="228" y="432"/>
      <point x="263" y="444" name=".hr01"/>
      <point x="305" y="444" type="curve" smooth="yes"/>
      <point x="387" y="444"/>
      <point x="444" y="364"/>
      <point x="444" y="248" type="curve" smooth="yes"/>
      <point x="444" y="128"/>
      <point x="387" y="40"/>
      <point x="307" y="40" type="curve" smooth="yes"/>
      <point x="262" y="40"/>
      <point x="247" y="56" name=".hr02"/>
      <point x="236" y="56" type="curve" smooth="yes"/>
      <point x="225" y="56"/>
      <point x="221" y="43"/>
      <point x="221" y="31" type="curve" smooth="yes"/>
      <point x="221" y="24"/>
      <point x="224" y="17"/>
      <point x="230" y="13" type="curve" smooth="yes"/>
      <point x="257" y="-5"/>
      <point x="292" y="-14"/>
      <point x="330" y="-14" type="curve" smooth="yes"/>
      <point x="457" y="-14"/>
      <point x="550" y="106"/>
      <point x="550" y="268" type="curve" smooth="yes"/>
      <point x="550" y="410"/>
      <point x="462" y="510"/>
      <point x="337" y="510" type="curve" smooth="yes"/>
      <point x="284" y="510"/>
      <point x="235" y="488"/>
      <point x="193" y="447" type="curve"/>
    </contour>
  </outline>
</glyph>
<glyph name="r" format="2">
  <advance width="437"/>
  <unicode hex="0072"/>
  <outline>
    <contour>
      <point x="204" y="468" type="line" smooth="yes"/>
      <point x="204" y="487"/>
      <point x="191" y="500"/>
      <point x="172" y="500" type="curve" smooth="yes"/>
      <point x="134" y="500"/>
      <point x="79" y="475"/>
      <point x="40" y="440" type="curve"/>
      <point x="49" y="414" type="line"/>
      <point x="93" y="414" type="line" smooth="yes"/>
      <point x="107" y="414"/>
      <point x="113" y="408"/>
      <point x="113" y="392" type="curve" smooth="yes"/>
      <point x="113" y="111" type="line" smooth="yes"/>
      <point x="113" y="61"/>
      <point x="105" y="44"/>
      <point x="71" y="36" type="curve" smooth="yes"/>
      <point x="50" y="31" type="line"/>
      <point x="61" y="0" type="line"/>
      <point x="236" y="0" type="line"/>
      <point x="248" y="15" type="line"/>
      <point x="236" y="31" type="line" smooth="yes"/>
      <point x="212" y="64"/>
      <point x="204" y="96"/>
      <point x="204" y="156" type="curve" smooth="yes"/>
      <point x="204" y="366"/>
      <point x="273" y="437"/>
      <point x="315" y="437" type="curve" smooth="yes"/>
      <point x="334" y="437"/>
      <point x="348" y="422"/>
      <point x="348" y="398" type="curve" smooth="yes"/>
      <point x="348" y="361"/>
      <point x="320" y="338"/>
      <point x="320" y="329" type="curve" smooth="yes"/>
      <point x="320" y="321"/>
      <point x="326" y="318"/>
      <point x="339" y="318" type="curve" smooth="yes"/>
      <point x="396" y="318"/>
      <point x="437" y="357"/>
      <point x="437" y="408" type="curve" smooth="yes"/>
      <point x="437" y="472"/>
      <point x="395" y="510"/>
      <point x="340" y="510" type="curve" smooth="yes"/>
      <point x="284" y="510"/>
      <point x="233" y="450"/>
      <point x="210" y="361" type="curve"/>
      <point x="204" y="361" type="line"/>
    </contour>
  </outline>
</glyph>
<glyph name="s" format="2">
  <advance width="481"/>
  <unicode hex="0073"/>
  <outline>
    <contour>
      <point x="241" y="35" type="curve" smooth="yes"/>
      <point x="199" y="35"/>
      <point x="146" y="60"/>
      <point x="146" y="121" type="curve" smooth="yes"/>
      <point x="146" y="154"/>
      <point x="158" y="169"/>
      <point x="158" y="177" type="curve" smooth="yes"/>
      <point x="158" y="186"/>
      <point x="147" y="189"/>
      <point x="137" y="189" type="curve" smooth="yes"/>
      <point x="88" y="189"/>
      <point x="54" y="156"/>
      <point x="54" y="111" type="curve" smooth="yes"/>
      <point x="54" y="34"/>
      <point x="129" y="-14"/>
      <point x="228" y="-14" type="curve" smooth="yes"/>
      <point x="348" y="-14"/>
      <point x="426" y="45"/>
      <point x="426" y="136" type="curve" smooth="yes"/>
      <point x="426" y="217"/>
      <point x="343" y="253"/>
      <point x="270" y="283" type="curve" smooth="yes"/>
      <point x="209" y="308"/>
      <point x="153" y="334"/>
      <point x="153" y="389" type="curve" smooth="yes"/>
      <point x="153" y="431"/>
      <point x="185" y="462"/>
      <point x="241" y="462" type="curve" smooth="yes"/>
      <point x="278" y="462"/>
      <point x="323" y="442" name=".hr01"/>
      <point x="323" y="389" type="curve" smooth="yes"/>
      <point x="323" y="358"/>
      <point x="308" y="344"/>
      <point x="308" y="333" type="curve" smooth="yes"/>
      <point x="308" y="325"/>
      <point x="314" y="320"/>
      <point x="329" y="320" type="curve" smooth="yes"/>
      <point x="378" y="320"/>
      <point x="413" y="357"/>
      <point x="413" y="407" type="curve" smooth="yes"/>
      <point x="413" y="471"/>
      <point x="341" y="510"/>
      <point x="248" y="510" type="curve" smooth="yes"/>
      <point x="144" y="510"/>
      <point x="66" y="456"/>
      <point x="66" y="375" type="curve" smooth="yes"/>
      <point x="66" y="279"/>
      <point x="153" y="241"/>
      <point x="226" y="211" type="curve" smooth="yes"/>
      <point x="282" y="187"/>
      <point x="335" y="163" name=".hr02"/>
      <point x="335" y="116" type="curve" smooth="yes"/>
      <point x="335" y="68"/>
      <point x="296" y="35"/>
    </contour>
  </outline>
</glyph>
<glyph name="u" format="2">
  <advance width="632"/>
  <unicode hex="0075"/>
  <outline>
    <contour>
      <point x="515" y="510" type="line"/>
      <point x="393" y="497" type="line"/>
      <point x="381" y="482" type="line"/>
      <point x="393" y="466" type="line"/>
      <point x="423" y="415"/>
      <point x="432" y="369"/>
      <point x="432" y="271" type="curve" smooth="yes"/>
      <point x="432" y="135"/>
      <point x="379" y="53"/>
      <point x="290" y="53" type="curve" smooth="yes"/>
      <point x="227" y="53"/>
      <point x="194" y="95"/>
      <point x="194" y="175" type="curve" smooth="yes"/>
      <point x="194" y="478" type="line" smooth="yes"/>
      <point x="194" y="497"/>
      <point x="181" y="510"/>
      <point x="162" y="510" type="curve" smooth="yes"/>
      <point x="121" y="510"/>
      <point x="65" y="485"/>
      <point x="30" y="450" type="curve"/>
      <point x="39" y="424" type="line"/>
      <point x="83" y="424" type="line" smooth="yes"/>
      <point x="96" y="424"/>
      <point x="103" y="418"/>
      <point x="103" y="402" type="curve" smooth="yes"/>
      <point x="103" y="152" type="line" smooth="yes"/>
      <point x="103" y="47"/>
      <point x="160" y="-14"/>
      <point x="256" y="-14" type="curve" smooth="yes"/>
      <point x="330" y="-14"/>
      <point x="395" y="23"/>
      <point x="425" y="82" type="curve"/>
      <point x="425" y="16"/>
      <point x="449" y="-14"/>
      <point x="502" y="-14" type="curve" smooth="yes"/>
      <point x="537" y="-14"/>
      <point x="581" y="11"/>
      <point x="612" y="49" type="curve"/>
      <point x="593" y="75" type="line"/>
      <point x="577" y="64"/>
      <point x="559" y="57"/>
      <point x="544" y="57" type="curve" smooth="yes"/>
      <point x="525" y="57"/>
      <point x="515" y="67"/>
      <point x="515" y="88" type="curve" smooth="yes"/>
    </contour>
  </outline>
</glyph>
<glyph name="w" format="2">
  <advance width="813"/>
  <unicode hex="0077"/>
  <outline>
    <contour>
      <point x="279" y="51" type="curve" smooth="yes"/>
      <point x="235" y="51"/>
      <point x="215" y="84"/>
      <point x="203" y="166" type="curve" smooth="yes"/>
      <point x="158" y="478" type="line" smooth="yes"/>
      <point x="155" y="498"/>
      <point x="144" y="510"/>
      <point x="126" y="510" type="curve" smooth="yes"/>
      <point x="89" y="510"/>
      <point x="35" y="484"/>
      <point x="0" y="450" type="curve"/>
      <point x="9" y="424" type="line"/>
      <point x="53" y="424" type="line" smooth="yes"/>
      <point x="66" y="424"/>
      <point x="70" y="419"/>
      <point x="73" y="402" type="curve"/>
      <point x="104" y="190" type="line" smooth="yes"/>
      <point x="126" y="38"/>
      <point x="166" y="-14"/>
      <point x="268" y="-14" type="curve" smooth="yes"/>
      <point x="325" y="-14"/>
      <point x="379" y="28"/>
      <point x="416" y="112" type="curve"/>
      <point x="440" y="20"/>
      <point x="480" y="-14"/>
      <point x="557" y="-14" type="curve" smooth="yes"/>
      <point x="659" y="-14"/>
      <point x="753" y="128"/>
      <point x="753" y="404" type="curve" smooth="yes"/>
      <point x="753" y="437"/>
      <point x="751" y="473"/>
      <point x="748" y="510" type="curve"/>
      <point x="631" y="497" type="line"/>
      <point x="619" y="484" type="line"/>
      <point x="629" y="468" type="line" smooth="yes"/>
      <point x="659" y="420"/>
      <point x="673" y="357"/>
      <point x="673" y="295" type="curve" smooth="yes"/>
      <point x="673" y="172"/>
      <point x="631" y="51"/>
      <point x="564" y="51" type="curve" smooth="yes"/>
      <point x="517" y="51"/>
      <point x="496" y="84"/>
      <point x="484" y="166" type="curve" smooth="yes"/>
      <point x="463" y="306" type="line"/>
      <point x="466" y="337"/>
      <point x="468" y="369"/>
      <point x="468" y="404" type="curve" smooth="yes"/>
      <point x="468" y="437"/>
      <point x="466" y="473"/>
      <point x="463" y="510" type="curve"/>
      <point x="346" y="497" type="line"/>
      <point x="334" y="484" type="line"/>
      <point x="344" y="468" type="line" smooth="yes"/>
      <point x="374" y="420"/>
      <point x="388" y="357"/>
      <point x="388" y="295" type="curve" smooth="yes"/>
      <point x="388" y="172"/>
      <point x="346" y="51"/>
    </contour>
  </outline>
</glyph>
<glyph name="x" format="2">
  <advance width="553"/>
  <unicode hex="0078"/>
  <outline>
    <contour>
      <point x="515" y="497" type="line"/>
      <point x="360" y="497" type="line"/>
      <point x="348" y="482" type="line"/>
      <point x="367" y="466" type="line" smooth="yes"/>
      <point x="378" y="457"/>
      <point x="386" y="448"/>
      <point x="386" y="434" type="curve" smooth="yes"/>
      <point x="386" y="412"/>
      <point x="349" y="362"/>
      <point x="298" y="304" type="curve"/>
      <point x="220" y="440" type="line" smooth="yes"/>
      <point x="193" y="487"/>
      <point x="157" y="510" name=".hr01"/>
      <point x="113" y="510" type="curve" smooth="yes"/>
      <point x="81" y="510"/>
      <point x="51" y="497" name=".hr02"/>
      <point x="20" y="464" type="curve"/>
      <point x="42" y="434" type="line"/>
      <point x="54" y="442"/>
      <point x="68" y="447" name=".hr03"/>
      <point x="80" y="447" type="curve" smooth="yes"/>
      <point x="97" y="447"/>
      <point x="109" y="441"/>
      <point x="122" y="419" type="curve" smooth="yes"/>
      <point x="231" y="231" type="line"/>
      <point x="153" y="149"/>
      <point x="67" y="64"/>
      <point x="24" y="21" type="curve"/>
      <point x="35" y="0" type="line"/>
      <point x="190" y="0" type="line"/>
      <point x="202" y="15" type="line"/>
      <point x="183" y="31" type="line" smooth="yes"/>
      <point x="172" y="40"/>
      <point x="164" y="49" name=".hr04"/>
      <point x="164" y="63" type="curve" smooth="yes"/>
      <point x="164" y="85"/>
      <point x="201" y="135"/>
      <point x="252" y="194" type="curve"/>
      <point x="333" y="56" type="line" smooth="yes"/>
      <point x="360" y="9"/>
      <point x="396" y="-14"/>
      <point x="440" y="-14" type="curve" smooth="yes"/>
      <point x="472" y="-14"/>
      <point x="502" y="-1"/>
      <point x="533" y="32" type="curve"/>
      <point x="511" y="62" type="line"/>
      <point x="499" y="54"/>
      <point x="485" y="49"/>
      <point x="473" y="49" type="curve" smooth="yes"/>
      <point x="456" y="49"/>
      <point x="444" y="55"/>
      <point x="431" y="77" type="curve" smooth="yes"/>
      <point x="320" y="267" type="line"/>
      <point x="397" y="349"/>
      <point x="483" y="432"/>
      <point x="526" y="476" type="curve"/>
    </contour>
  </outline>
</glyph>
<glyph name="y" format="2">
  <advance width="610"/>
  <unicode hex="0079"/>
  <outline>
    <contour>
      <point x="291" y="-278" type="curve" smooth="yes"/>
      <point x="426" y="-278"/>
      <point x="513" y="-188"/>
      <point x="513" y="-22" type="curve" smooth="yes"/>
      <point x="513" y="511" type="line"/>
      <point x="391" y="498" type="line"/>
      <point x="379" y="483" type="line"/>
      <point x="391" y="467" type="line" smooth="yes"/>
      <point x="427" y="420"/>
      <point x="430" y="370"/>
      <point x="430" y="272" type="curve" smooth="yes"/>
      <point x="430" y="153"/>
      <point x="377" y="82"/>
      <point x="288" y="82" type="curve" smooth="yes"/>
      <point x="227" y="82"/>
      <point x="194" y="124"/>
      <point x="194" y="204" type="curve" smooth="yes"/>
      <point x="194" y="479" type="line" smooth="yes"/>
      <point x="194" y="498"/>
      <point x="181" y="511"/>
      <point x="162" y="511" type="curve" smooth="yes"/>
      <point x="121" y="511"/>
      <point x="65" y="486"/>
      <point x="30" y="451" type="curve"/>
      <point x="39" y="425" type="line"/>
      <point x="83" y="425" type="line" smooth="yes"/>
      <point x="97" y="425"/>
      <point x="103" y="419"/>
      <point x="103" y="403" type="curve" smooth="yes"/>
      <point x="103" y="181" type="line" smooth="yes"/>
      <point x="103" y="76"/>
      <point x="159" y="15"/>
      <point x="254" y="15" type="curve" smooth="yes"/>
      <point x="328" y="15"/>
      <point x="393" y="52"/>
      <point x="424" y="110" type="curve"/>
      <point x="424" y="-38" type="line" smooth="yes"/>
      <point x="424" y="-146"/>
      <point x="390" y="-226"/>
      <point x="304" y="-226" type="curve" smooth="yes"/>
      <point x="249" y="-226"/>
      <point x="217" y="-184" name=".hr01"/>
      <point x="217" y="-133" type="curve" smooth="yes"/>
      <point x="217" y="-60"/>
      <point x="266" y="-38"/>
      <point x="266" y="-25" type="curve" smooth="yes"/>
      <point x="266" y="-20"/>
      <point x="261" y="-14"/>
      <point x="247" y="-14" type="curve" smooth="yes"/>
      <point x="164" y="-14"/>
      <point x="120" y="-73"/>
      <point x="120" y="-135" type="curve" smooth="yes"/>
      <point x="120" y="-205"/>
      <point x="175" y="-278"/>
    </contour>
  </outline>
</glyph>
<glyph name="z" format="2">
  <advance width="479"/>
  <unicode hex="007A"/>
  <outline>
    <contour>
      <point x="419" y="438" type="line"/>
      <point x="446" y="454" type="line"/>
      <point x="446" y="472"/>
      <point x="440" y="485"/>
      <point x="426" y="497" type="curve"/>
      <point x="177" y="497" type="line" smooth="yes"/>
      <point x="116" y="497"/>
      <point x="87" y="502"/>
      <point x="58" y="521" type="curve"/>
      <point x="46" y="509" type="line"/>
      <point x="46" y="355" type="line"/>
      <point x="77" y="344" type="line"/>
      <point x="89" y="397" type="line" smooth="yes"/>
      <point x="97" y="431"/>
      <point x="114" y="439"/>
      <point x="164" y="439" type="curve" smooth="yes"/>
      <point x="314" y="439" type="line"/>
      <point x="33" y="31" type="line"/>
      <point x="44" y="0" type="line"/>
      <point x="300" y="0" type="line" smooth="yes"/>
      <point x="361" y="0"/>
      <point x="390" y="-5"/>
      <point x="419" y="-24" type="curve"/>
      <point x="431" y="-12" type="line"/>
      <point x="431" y="142" type="line"/>
      <point x="400" y="153" type="line"/>
      <point x="388" y="100" type="line" smooth="yes"/>
      <point x="380" y="66"/>
      <point x="363" y="58"/>
      <point x="313" y="58" type="curve" smooth="yes"/>
      <point x="156" y="58" type="line"/>
    </contour>
  </outline>
</glyph>
<glyph name="braceleft" format="2">
  <advance width="316"/>
  <unicode hex="007B"/>
  <outline>
    <contour>
      <point x="187" y="160" type="curve" smooth="yes"/>
      <point x="187" y="272"/>
      <point x="142" y="318"/>
      <point x="77" y="331" type="curve"/>
      <point x="142" y="345"/>
      <point x="187" y="390"/>
      <point x="187" y="502" type="curve" smooth="yes"/>
      <point x="187" y="616"/>
      <point x="217" y="712"/>
      <point x="289" y="729" type="curve"/>
      <point x="282" y="774" type="line"/>
      <point x="132" y="756"/>
      <point x="76" y="640"/>
      <point x="76" y="502" type="curve" smooth="yes"/>
      <point x="76" y="398"/>
      <point x="57" y="361"/>
      <point x="0" y="350" type="curve"/>
      <point x="0" y="312" type="line"/>
      <point x="57" y="301"/>
      <point x="76" y="264"/>
      <point x="76" y="160" type="curve" smooth="yes"/>
      <point x="76" y="22"/>
      <point x="132" y="-94"/>
      <point x="282" y="-112" type="curve"/>
      <point x="289" y="-67" type="line"/>
      <point x="217" y="-50"/>
      <point x="187" y="46"/>
    </contour>
  </outline>
</glyph>
<glyph name="bar" format="2">
  <advance width="351"/>
  <unicode hex="007C"/>
  <outline>
    <contour>
      <point x="225" y="-82" type="line"/>
      <point x="225" y="744" type="line"/>
      <point x="126" y="744" type="line"/>
      <point x="126" y="-82" type="line"/>
    </contour>
  </outline>
</glyph>
<glyph name="asciitilde" format="2">
  <advance width="621"/>
  <unicode hex="007E"/>
  <outline>
    <contour>
      <point x="522" y="398" type="line"/>
      <point x="495" y="421"/>
      <point x="460" y="430"/>
      <point x="425" y="430" type="curve" smooth="yes"/>
      <point x="340" y="430"/>
      <point x="283" y="366" name=".hr01"/>
      <point x="200" y="366" type="curve" smooth="yes"/>
      <point x="164" y="366"/>
      <point x="129" y="377"/>
      <point x="99" y="398" type="curve"/>
      <point x="99" y="322" type="line"/>
      <point x="126" y="300"/>
      <point x="161" y="290"/>
      <point x="196" y="290" type="curve" smooth="yes"/>
      <point x="281" y="290"/>
      <point x="338" y="355" name=".hr02"/>
      <point x="421" y="355" type="curve" smooth="yes"/>
      <point x="457" y="355"/>
      <point x="492" y="343"/>
      <point x="522" y="322" type="curve"/>
    </contour>
  </outline>
</glyph>
<glyph name="cent" format="2">
  <advance width="486"/>
  <unicode hex="00A2"/>
  <outline>
    <contour>
      <point x="290" y="165" type="curve" smooth="yes"/>
      <point x="203" y="165"/>
      <point x="147" y="242"/>
      <point x="147" y="360" type="curve" smooth="yes"/>
      <point x="147" y="485"/>
      <point x="198" y="570"/>
      <point x="274" y="570" type="curve" smooth="yes"/>
      <point x="331" y="570"/>
      <point x="368" y="536"/>
      <point x="368" y="483" type="curve" smooth="yes"/>
      <point x="368" y="427"/>
      <point x="344" y="410"/>
      <point x="344" y="401" type="curve" smooth="yes"/>
      <point x="344" y="393"/>
      <point x="350" y="390"/>
      <point x="363" y="390" type="curve" smooth="yes"/>
      <point x="420" y="390"/>
      <point x="461" y="430"/>
      <point x="461" y="488" type="curve" smooth="yes"/>
      <point x="461" y="563"/>
      <point x="395" y="616"/>
      <point x="301" y="621" type="curve"/>
      <point x="301" y="802" type="line"/>
      <point x="280" y="802"/>
      <point x="252" y="796"/>
      <point x="238" y="778" type="curve"/>
      <point x="238" y="618" type="line"/>
      <point x="119" y="597"/>
      <point x="43" y="498"/>
      <point x="43" y="358" type="curve" smooth="yes"/>
      <point x="43" y="218"/>
      <point x="122" y="117"/>
      <point x="238" y="100" type="curve"/>
      <point x="238" y="-83" type="line"/>
      <point x="260" y="-83"/>
      <point x="288" y="-77"/>
      <point x="301" y="-59" type="curve"/>
      <point x="301" y="100" type="line"/>
      <point x="358" y="107"/>
      <point x="411" y="134"/>
      <point x="452" y="181" type="curve"/>
      <point x="454" y="183"/>
      <point x="455" y="186"/>
      <point x="455" y="190" type="curve" smooth="yes"/>
      <point x="455" y="203"/>
      <point x="441" y="218"/>
      <point x="430" y="218" type="curve" smooth="yes"/>
      <point x="425" y="218"/>
      <point x="422" y="216"/>
      <point x="421" y="215" type="curve"/>
      <point x="380" y="181"/>
      <point x="338" y="165"/>
    </contour>
  </outline>
</glyph>
<glyph name="sterling" format="2">
  <advance width="596"/>
  <unicode hex="00A3"/>
  <outline>
    <contour>
      <point x="341" y="676" type="curve" smooth="yes"/>
      <point x="392" y="676"/>
      <point x="444" y="646"/>
      <point x="444" y="587" type="curve" smooth="yes"/>
      <point x="444" y="534"/>
      <point x="414" y="510"/>
      <point x="414" y="501" type="curve" smooth="yes"/>
      <point x="414" y="489"/>
      <point x="421" y="489"/>
      <point x="435" y="489" type="curve" smooth="yes"/>
      <point x="495" y="489"/>
      <point x="542" y="533"/>
      <point x="542" y="595" type="curve" smooth="yes"/>
      <point x="542" y="687"/>
      <point x="443" y="732"/>
      <point x="340" y="732" type="curve" smooth="yes"/>
      <point x="169" y="732"/>
      <point x="99" y="637"/>
      <point x="99" y="511" type="curve" smooth="yes"/>
      <point x="99" y="466"/>
      <point x="114" y="416"/>
      <point x="127" y="365" type="curve"/>
      <point x="53" y="365" type="line"/>
      <point x="35" y="352"/>
      <point x="30" y="324"/>
      <point x="30" y="302" type="curve"/>
      <point x="142" y="302" type="line"/>
      <point x="145" y="283"/>
      <point x="147" y="265" name=".hr01"/>
      <point x="147" y="247" type="curve" smooth="yes"/>
      <point x="147" y="176"/>
      <point x="104" y="93"/>
      <point x="31" y="43" type="curve"/>
      <point x="56" y="0" type="line"/>
      <point x="522" y="0" type="line"/>
      <point x="548" y="21"/>
      <point x="556" y="60"/>
      <point x="556" y="91" type="curve"/>
      <point x="159" y="91" type="line"/>
      <point x="208" y="155"/>
      <point x="230" y="231"/>
      <point x="230" y="302" type="curve"/>
      <point x="418" y="302" type="line"/>
      <point x="436" y="316"/>
      <point x="441" y="343"/>
      <point x="441" y="365" type="curve"/>
      <point x="224" y="365" type="line"/>
      <point x="216" y="409"/>
      <point x="205" y="452" name=".hr02"/>
      <point x="205" y="496" type="curve" smooth="yes"/>
      <point x="205" y="651"/>
      <point x="277" y="676"/>
    </contour>
  </outline>
</glyph>
<glyph name="currency" format="2">
  <advance width="625"/>
  <unicode hex="00A4"/>
  <outline>
    <contour>
      <point x="184" y="174" type="line"/>
      <point x="217" y="148"/>
      <point x="259" y="135"/>
      <point x="310" y="135" type="curve" smooth="yes"/>
      <point x="363" y="135"/>
      <point x="407" y="148"/>
      <point x="441" y="177" type="curve"/>
      <point x="539" y="76" type="line"/>
      <point x="562" y="76"/>
      <point x="585" y="91"/>
      <point x="600" y="104" type="curve"/>
      <point x="482" y="223" type="line"/>
      <point x="502" y="257"/>
      <point x="516" y="298"/>
      <point x="516" y="347" type="curve" smooth="yes"/>
      <point x="516" y="397"/>
      <point x="502" y="439"/>
      <point x="482" y="473" type="curve"/>
      <point x="584" y="576" type="line"/>
      <point x="584" y="597"/>
      <point x="572" y="621"/>
      <point x="556" y="635" type="curve"/>
      <point x="441" y="520" type="line"/>
      <point x="407" y="546"/>
      <point x="363" y="561"/>
      <point x="310" y="561" type="curve" smooth="yes"/>
      <point x="259" y="561"/>
      <point x="216" y="547"/>
      <point x="182" y="521" type="curve"/>
      <point x="84" y="620" type="line"/>
      <point x="63" y="620"/>
      <point x="39" y="609"/>
      <point x="25" y="593" type="curve"/>
      <point x="140" y="475" type="line"/>
      <point x="119" y="441"/>
      <point x="105" y="399"/>
      <point x="105" y="347" type="curve" smooth="yes"/>
      <point x="105" y="296"/>
      <point x="119" y="253"/>
      <point x="140" y="219" type="curve"/>
      <point x="41" y="119" type="line"/>
      <point x="41" y="98"/>
      <point x="53" y="75"/>
      <point x="69" y="60" type="curve"/>
    </contour>
    <contour>
      <point x="303" y="189" type="curve" smooth="yes"/>
      <point x="243" y="189"/>
      <point x="204" y="243"/>
      <point x="204" y="345" type="curve" smooth="yes"/>
      <point x="204" y="447"/>
      <point x="250" y="508"/>
      <point x="316" y="508" type="curve" smooth="yes"/>
      <point x="377" y="508"/>
      <point x="417" y="452"/>
      <point x="417" y="350" type="curve" smooth="yes"/>
      <point x="417" y="248"/>
      <point x="369" y="189"/>
    </contour>
  </outline>
</glyph>
<glyph name="yen" format="2">
  <advance width="626"/>
  <unicode hex="00A5"/>
  <outline>
    <component base="Y" xOffset="9"/>
    <contour>
      <point x="373" y="395" type="line"/>
      <point x="555" y="395" type="line"/>
      <point x="573" y="409"/>
      <point x="579" y="436"/>
      <point x="579" y="458" type="curve"/>
      <point x="413" y="458" type="line"/>
    </contour>
    <contour>
      <point x="555" y="233" type="line"/>
      <point x="573" y="247"/>
      <point x="579" y="274"/>
      <point x="579" y="296" type="curve"/>
      <point x="89" y="296" type="line"/>
      <point x="71" y="283"/>
      <point x="66" y="255"/>
      <point x="66" y="233" type="curve"/>
    </contour>
    <contour>
      <point x="238" y="458" type="line"/>
      <point x="89" y="458" type="line"/>
      <point x="71" y="445"/>
      <point x="66" y="417"/>
      <point x="66" y="395" type="curve"/>
      <point x="265" y="395" type="line"/>
    </contour>
  </outline>
</glyph>
<glyph name="brokenbar" format="2">
  <advance width="351"/>
  <unicode hex="00A6"/>
  <outline>
    <contour>
      <point x="225" y="453" type="line"/>
      <point x="225" y="744" type="line"/>
      <point x="126" y="744" type="line"/>
      <point x="126" y="453" type="line"/>
    </contour>
    <contour>
      <point x="225" y="-82" type="line"/>
      <point x="225" y="210" type="line"/>
      <point x="126" y="210" type="line"/>
      <point x="126" y="-82" type="line"/>
    </contour>
  </outline>
</glyph>
<glyph name="section" format="2">
  <advance width="439"/>
  <unicode hex="00A7"/>
  <outline>
    <contour>
      <point x="236" y="686" type="curve" smooth="yes"/>
      <point x="279" y="686"/>
      <point x="312" y="658"/>
      <point x="312" y="615" type="curve" smooth="yes"/>
      <point x="312" y="559"/>
      <point x="288" y="542"/>
      <point x="288" y="533" type="curve" smooth="yes"/>
      <point x="288" y="525"/>
      <point x="294" y="522"/>
      <point x="307" y="522" type="curve" smooth="yes"/>
      <point x="363" y="522"/>
      <point x="405" y="562" name=".hr01"/>
      <point x="405" y="620" type="curve" smooth="yes"/>
      <point x="405" y="685"/>
      <point x="343" y="731"/>
      <point x="256" y="731" type="curve" smooth="yes"/>
      <point x="119" y="731"/>
      <point x="72" y="635"/>
      <point x="72" y="549" type="curve" smooth="yes"/>
      <point x="72" y="492"/>
      <point x="102" y="423"/>
      <point x="158" y="356" type="curve" smooth="yes"/>
      <point x="312" y="171" type="line"/>
      <point x="317" y="188"/>
      <point x="319" y="205"/>
      <point x="319" y="222" type="curve" smooth="yes"/>
      <point x="319" y="279"/>
      <point x="287" y="344"/>
      <point x="231" y="410" type="curve" smooth="yes"/>
      <point x="161" y="494"/>
      <point x="138" y="541"/>
      <point x="138" y="588" type="curve" smooth="yes"/>
      <point x="138" y="651"/>
      <point x="182" y="686"/>
    </contour>
    <contour>
      <point x="203" y="-211" type="curve" smooth="yes"/>
      <point x="160" y="-211"/>
      <point x="127" y="-183"/>
      <point x="127" y="-140" type="curve" smooth="yes"/>
      <point x="127" y="-84"/>
      <point x="151" y="-67"/>
      <point x="151" y="-58" type="curve" smooth="yes"/>
      <point x="151" y="-50"/>
      <point x="145" y="-47"/>
      <point x="132" y="-47" type="curve" smooth="yes"/>
      <point x="76" y="-47"/>
      <point x="34" y="-87"/>
      <point x="34" y="-145" type="curve" smooth="yes" name=".hr02"/>
      <point x="34" y="-210"/>
      <point x="96" y="-256"/>
      <point x="183" y="-256" type="curve" smooth="yes"/>
      <point x="320" y="-256"/>
      <point x="367" y="-160"/>
      <point x="367" y="-74" type="curve" smooth="yes"/>
      <point x="367" y="-17"/>
      <point x="337" y="52"/>
      <point x="281" y="119" type="curve" smooth="yes"/>
      <point x="127" y="304" type="line"/>
      <point x="122" y="287"/>
      <point x="120" y="270"/>
      <point x="120" y="253" type="curve" smooth="yes"/>
      <point x="120" y="196"/>
      <point x="152" y="131"/>
      <point x="208" y="65" type="curve" smooth="yes"/>
      <point x="278" y="-19"/>
      <point x="301" y="-66"/>
      <point x="301" y="-113" type="curve" smooth="yes"/>
      <point x="301" y="-176"/>
      <point x="257" y="-211"/>
    </contour>
  </outline>
</glyph>
<glyph name="dieresis" format="2">
  <advance width="421"/>
  <unicode hex="00A8"/>
  <outline>
    <contour>
      <point x="54" y="658" type="curve" smooth="yes"/>
      <point x="54" y="632"/>
      <point x="92" y="593"/>
      <point x="115" y="593" type="curve" smooth="yes"/>
      <point x="140" y="593"/>
      <point x="178" y="632"/>
      <point x="178" y="658" type="curve" smooth="yes"/>
      <point x="178" y="684"/>
      <point x="140" y="724"/>
      <point x="115" y="724" type="curve" smooth="yes"/>
      <point x="91" y="724"/>
      <point x="54" y="684"/>
    </contour>
    <contour>
      <point x="243" y="658" type="curve" smooth="yes"/>
      <point x="243" y="632"/>
      <point x="281" y="593"/>
      <point x="304" y="593" type="curve" smooth="yes"/>
      <point x="329" y="593"/>
      <point x="367" y="632"/>
      <point x="367" y="658" type="curve" smooth="yes"/>
      <point x="367" y="684"/>
      <point x="329" y="724"/>
      <point x="304" y="724" type="curve" smooth="yes"/>
      <point x="280" y="724"/>
      <point x="243" y="684"/>
    </contour>
  </outline>
</glyph>
<glyph name="copyright" format="2">
  <advance width="778"/>
  <unicode hex="00A9"/>
  <outline>
    <contour>
      <point x="482" y="574" type="line"/>
      <point x="493" y="574"/>
      <point x="510" y="578"/>
      <point x="516" y="588" type="curve"/>
      <point x="516" y="697" type="line"/>
      <point x="491" y="697" type="line"/>
      <point x="482" y="679" type="line"/>
      <point x="456" y="695"/>
      <point x="428" y="703"/>
      <point x="394" y="703" type="curve" smooth="yes"/>
      <point x="273" y="703"/>
      <point x="216" y="611"/>
      <point x="216" y="501" type="curve" smooth="yes"/>
      <point x="216" y="389"/>
      <point x="273" y="298"/>
      <point x="393" y="298" type="curve" smooth="yes"/>
      <point x="453" y="298"/>
      <point x="495" y="327"/>
      <point x="525" y="373" type="curve"/>
      <point x="499" y="396" type="line"/>
      <point x="477" y="363"/>
      <point x="443" y="342"/>
      <point x="397" y="342" type="curve" smooth="yes"/>
      <point x="327" y="342"/>
      <point x="285" y="413"/>
      <point x="285" y="501" type="curve" smooth="yes"/>
      <point x="285" y="579"/>
      <point x="312" y="666"/>
      <point x="394" y="666" type="curve" smooth="yes"/>
      <point x="425" y="666"/>
      <point x="451" y="651"/>
      <point x="469" y="626" type="curve"/>
    </contour>
    <contour>
      <point x="126" y="498" type="curve" smooth="yes"/>
      <point x="126" y="643"/>
      <point x="244" y="761"/>
      <point x="389" y="761" type="curve" smooth="yes"/>
      <point x="534" y="761"/>
      <point x="652" y="643"/>
      <point x="652" y="498" type="curve" smooth="yes"/>
      <point x="652" y="353"/>
      <point x="534" y="235"/>
      <point x="389" y="235" type="curve" smooth="yes"/>
      <point x="244" y="235"/>
      <point x="126" y="353"/>
    </contour>
    <contour>
      <point x="100" y="498" type="curve" smooth="yes"/>
      <point x="100" y="339"/>
      <point x="230" y="209"/>
      <point x="389" y="209" type="curve" smooth="yes"/>
      <point x="548" y="209"/>
      <point x="678" y="339"/>
      <point x="678" y="498" type="curve" smooth="yes"/>
      <point x="678" y="657"/>
      <point x="548" y="787"/>
      <point x="389" y="787" type="curve" smooth="yes"/>
      <point x="230" y="787"/>
      <point x="100" y="657"/>
    </contour>
  </outline>
</glyph>
<glyph name="ordfeminine" format="2">
  <advance width="398"/>
  <unicode hex="00AA"/>
  <outline>
    <contour>
      <point x="244" y="558" type="line"/>
      <point x="223" y="562"/>
      <point x="204" y="562"/>
      <point x="190" y="562" type="curve" smooth="yes"/>
      <point x="101" y="562"/>
      <point x="45" y="520"/>
      <point x="45" y="452" type="curve" smooth="yes"/>
      <point x="45" y="399"/>
      <point x="86" y="361"/>
      <point x="142" y="361" type="curve" smooth="yes"/>
      <point x="186" y="361"/>
      <point x="223" y="381"/>
      <point x="245" y="414" type="curve"/>
      <point x="250" y="377"/>
      <point x="268" y="361"/>
      <point x="303" y="361" type="curve" smooth="yes"/>
      <point x="329" y="361"/>
      <point x="361" y="380"/>
      <point x="388" y="409" type="curve"/>
      <point x="369" y="435" type="line"/>
      <point x="354" y="425"/>
      <point x="341" y="420"/>
      <point x="333" y="420" type="curve" smooth="yes"/>
      <point x="324" y="420"/>
      <point x="319" y="425"/>
      <point x="319" y="437" type="curve" smooth="yes"/>
      <point x="319" y="602" type="line" smooth="yes"/>
      <point x="319" y="691"/>
      <point x="282" y="731"/>
      <point x="196" y="731" type="curve" smooth="yes"/>
      <point x="124" y="731"/>
      <point x="63" y="688"/>
      <point x="63" y="636" type="curve" smooth="yes"/>
      <point x="63" y="613"/>
      <point x="80" y="598"/>
      <point x="102" y="598" type="curve" smooth="yes"/>
      <point x="116" y="598"/>
      <point x="130" y="603"/>
      <point x="142" y="613" type="curve"/>
      <point x="142" y="663"/>
      <point x="160" y="689"/>
      <point x="196" y="689" type="curve" smooth="yes"/>
      <point x="228" y="689"/>
      <point x="244" y="664"/>
      <point x="244" y="615" type="curve" smooth="yes"/>
    </contour>
    <contour>
      <point x="171" y="416" type="curve" smooth="yes"/>
      <point x="142" y="416"/>
      <point x="126" y="433"/>
      <point x="126" y="462" type="curve" smooth="yes"/>
      <point x="126" y="500"/>
      <point x="154" y="522"/>
      <point x="205" y="522" type="curve" smooth="yes"/>
      <point x="222" y="522"/>
      <point x="236" y="521"/>
      <point x="244" y="518" type="curve"/>
      <point x="243" y="458"/>
      <point x="214" y="416"/>
    </contour>
  </outline>
</glyph>
<glyph name="guillemetleft" format="2">
  <advance width="506"/>
  <unicode hex="00AB"/>
  <outline>
    <contour>
      <point x="247" y="118" type="curve"/>
      <point x="226" y="155"/>
      <point x="163" y="223"/>
      <point x="110" y="279" type="curve"/>
      <point x="163" y="335"/>
      <point x="226" y="402"/>
      <point x="247" y="440" type="curve"/>
      <point x="217" y="478"/>
      <point x="187" y="484"/>
      <point x="161" y="486" type="curve"/>
      <point x="77" y="350"/>
      <point x="50" y="303"/>
      <point x="50" y="279" type="curve" smooth="yes"/>
      <point x="50" y="253"/>
      <point x="81" y="202"/>
      <point x="161" y="72" type="curve"/>
      <point x="187" y="74"/>
      <point x="217" y="79"/>
    </contour>
    <contour>
      <point x="456" y="118" type="curve"/>
      <point x="435" y="155"/>
      <point x="372" y="223"/>
      <point x="319" y="279" type="curve"/>
      <point x="372" y="335"/>
      <point x="435" y="402"/>
      <point x="456" y="440" type="curve"/>
      <point x="426" y="478"/>
      <point x="396" y="484"/>
      <point x="370" y="486" type="curve"/>
      <point x="286" y="350"/>
      <point x="259" y="303"/>
      <point x="259" y="279" type="curve" smooth="yes"/>
      <point x="259" y="253"/>
      <point x="290" y="202"/>
      <point x="370" y="72" type="curve"/>
      <point x="396" y="74"/>
      <point x="426" y="79"/>
    </contour>
  </outline>
</glyph>
<glyph name="logicalnot" format="2">
  <advance width="621"/>
  <unicode hex="00AC"/>
  <outline>
    <contour>
      <point x="99" y="319" type="line"/>
      <point x="454" y="319" type="line"/>
      <point x="454" y="168" type="line"/>
      <point x="522" y="168" type="line"/>
      <point x="522" y="395" type="line"/>
      <point x="99" y="395" type="line"/>
    </contour>
  </outline>
</glyph>
<glyph name="registered" format="2">
  <advance width="778"/>
  <unicode hex="00AE"/>
  <outline>
    <contour>
      <point x="452" y="358" type="line"/>
      <point x="456" y="350"/>
      <point x="459" y="345"/>
      <point x="459" y="340" type="curve" smooth="yes"/>
      <point x="459" y="334"/>
      <point x="457" y="329"/>
      <point x="454" y="322" type="curve"/>
      <point x="450" y="315" type="line"/>
      <point x="459" y="305" type="line"/>
      <point x="546" y="305" type="line"/>
      <point x="555" y="312"/>
      <point x="559" y="324"/>
      <point x="559" y="335" type="curve"/>
      <point x="528" y="346" type="line"/>
      <point x="467" y="459" type="line"/>
      <point x="464" y="466"/>
      <point x="455" y="475"/>
      <point x="447" y="483" type="curve"/>
      <point x="497" y="504"/>
      <point x="519" y="547"/>
      <point x="519" y="590" type="curve" smooth="yes"/>
      <point x="519" y="648"/>
      <point x="480" y="696"/>
      <point x="368" y="696" type="curve" smooth="yes"/>
      <point x="258" y="696" type="line"/>
      <point x="248" y="689"/>
      <point x="243" y="675"/>
      <point x="243" y="664" type="curve"/>
      <point x="276" y="652" type="line"/>
      <point x="276" y="358" type="line" smooth="yes"/>
      <point x="276" y="349"/>
      <point x="273" y="345"/>
      <point x="267" y="342" type="curve"/>
      <point x="243" y="329" type="line"/>
      <point x="243" y="305" type="line"/>
      <point x="359" y="305" type="line"/>
      <point x="369" y="313"/>
      <point x="374" y="326"/>
      <point x="374" y="338" type="curve"/>
      <point x="341" y="349" type="line"/>
      <point x="341" y="468" type="line"/>
      <point x="370" y="468" type="line" smooth="yes"/>
      <point x="390" y="468"/>
      <point x="398" y="462"/>
      <point x="405" y="448" type="curve" smooth="yes"/>
    </contour>
    <contour>
      <point x="341" y="640" type="line" smooth="yes"/>
      <point x="341" y="655"/>
      <point x="357" y="656"/>
      <point x="368" y="656" type="curve" smooth="yes"/>
      <point x="429" y="656"/>
      <point x="451" y="625"/>
      <point x="451" y="586" type="curve" smooth="yes"/>
      <point x="451" y="542"/>
      <point x="429" y="505"/>
      <point x="371" y="505" type="curve" smooth="yes"/>
      <point x="341" y="505" type="line"/>
    </contour>
    <contour>
      <point x="126" y="498" type="curve" smooth="yes"/>
      <point x="126" y="643"/>
      <point x="244" y="761"/>
      <point x="389" y="761" type="curve" smooth="yes"/>
      <point x="534" y="761"/>
      <point x="652" y="643"/>
      <point x="652" y="498" type="curve" smooth="yes"/>
      <point x="652" y="353"/>
      <point x="534" y="235"/>
      <point x="389" y="235" type="curve" smooth="yes"/>
      <point x="244" y="235"/>
      <point x="126" y="353"/>
    </contour>
    <contour>
      <point x="100" y="498" type="curve" smooth="yes"/>
      <point x="100" y="339"/>
      <point x="230" y="209"/>
      <point x="389" y="209" type="curve" smooth="yes"/>
      <point x="548" y="209"/>
      <point x="678" y="339"/>
      <point x="678" y="498" type="curve" smooth="yes"/>
      <point x="678" y="657"/>
      <point x="548" y="787"/>
      <point x="389" y="787" type="curve" smooth="yes"/>
      <point x="230" y="787"/>
      <point x="100" y="657"/>
    </contour>
  </outline>
</glyph>
<glyph name="macron" format="2">
  <advance width="408"/>
  <unicode hex="00AF"/>
  <outline>
    <contour>
      <point x="325" y="617" type="line"/>
      <point x="345" y="634"/>
      <point x="351" y="670"/>
      <point x="351" y="697" type="curve"/>
      <point x="82" y="697" type="line"/>
      <point x="63" y="680"/>
      <point x="56" y="644"/>
      <point x="56" y="617" type="curve"/>
    </contour>
  </outline>
</glyph>
<glyph name="degree" format="2">
  <advance width="435"/>
  <unicode hex="00B0"/>
  <outline>
    <contour>
      <point x="309" y="549" type="curve" smooth="yes"/>
      <point x="309" y="460"/>
      <point x="268" y="408"/>
      <point x="212" y="408" type="curve" smooth="yes"/>
      <point x="159" y="408"/>
      <point x="125" y="456"/>
      <point x="125" y="543" type="curve" smooth="yes"/>
      <point x="125" y="632"/>
      <point x="166" y="684"/>
      <point x="222" y="684" type="curve" smooth="yes"/>
      <point x="275" y="684"/>
      <point x="309" y="636"/>
    </contour>
    <contour>
      <point x="40" y="546" type="curve" smooth="yes"/>
      <point x="40" y="434"/>
      <point x="108" y="361"/>
      <point x="217" y="361" type="curve" smooth="yes"/>
      <point x="326" y="361"/>
      <point x="395" y="434"/>
      <point x="395" y="546" type="curve" smooth="yes"/>
      <point x="395" y="659"/>
      <point x="326" y="731"/>
      <point x="217" y="731" type="curve" smooth="yes"/>
      <point x="108" y="731"/>
      <point x="40" y="659"/>
    </contour>
  </outline>
</glyph>
<glyph name="acute" format="2">
  <advance width="288"/>
  <unicode hex="00B4"/>
  <outline>
    <contour>
      <point x="63" y="604" type="line"/>
      <point x="92" y="569" type="line"/>
      <point x="205" y="625" type="line" smooth="yes"/>
      <point x="246" y="645"/>
      <point x="261" y="668"/>
      <point x="261" y="697" type="curve" smooth="yes"/>
      <point x="261" y="726"/>
      <point x="244" y="748"/>
      <point x="219" y="760" type="curve"/>
    </contour>
  </outline>
</glyph>
<glyph name="paragraph" format="2">
  <advance width="616"/>
  <unicode hex="00B6"/>
  <outline>
    <contour>
      <point x="306" y="-202" type="curve" smooth="yes"/>
      <point x="219" y="-202"/>
      <point x="157" y="-156"/>
      <point x="157" y="-91" type="curve" smooth="yes"/>
      <point x="157" y="-33"/>
      <point x="199" y="7"/>
      <point x="255" y="7" type="curve" smooth="yes"/>
      <point x="268" y="7"/>
      <point x="274" y="4"/>
      <point x="274" y="-4" type="curve" smooth="yes"/>
      <point x="274" y="-13"/>
      <point x="250" y="-30"/>
      <point x="250" y="-86" type="curve" smooth="yes"/>
      <point x="250" y="-129"/>
      <point x="283" y="-157"/>
      <point x="326" y="-157" type="curve" smooth="yes"/>
      <point x="380" y="-157"/>
      <point x="424" y="-122"/>
      <point x="424" y="-59" type="curve" smooth="yes"/>
      <point x="424" y="-12"/>
      <point x="403" y="36"/>
      <point x="331" y="119" type="curve" smooth="yes"/>
      <point x="171" y="304" type="line" smooth="yes"/>
      <point x="97" y="390"/>
      <point x="67" y="473"/>
      <point x="67" y="541" type="curve" smooth="yes"/>
      <point x="67" y="656"/>
      <point x="155" y="732"/>
      <point x="278" y="732" type="curve" smooth="yes"/>
      <point x="364" y="732"/>
      <point x="436" y="711"/>
      <point x="504" y="706" type="curve" name=".hr01"/>
      <point x="515" y="693" type="line"/>
      <point x="503" y="675" type="line"/>
      <point x="496" y="663"/>
      <point x="490" y="653"/>
      <point x="490" y="636" type="curve" smooth="yes"/>
      <point x="490" y="-20" type="line" smooth="yes"/>
      <point x="490" y="-106"/>
      <point x="443" y="-202"/>
    </contour>
    <contour>
      <point x="398" y="497" type="line" smooth="yes"/>
      <point x="398" y="604"/>
      <point x="351" y="676"/>
      <point x="249" y="676" type="curve" smooth="yes"/>
      <point x="197" y="676"/>
      <point x="144" y="639"/>
      <point x="144" y="567" type="curve" smooth="yes"/>
      <point x="144" y="515"/>
      <point x="170" y="444"/>
      <point x="244" y="358" type="curve" smooth="yes"/>
      <point x="398" y="180" type="line"/>
    </contour>
  </outline>
</glyph>
<glyph name="cedilla" format="2">
  <advance width="350"/>
  <unicode hex="00B8"/>
  <outline>
    <contour>
      <point x="163" y="-253" type="curve" smooth="yes"/>
      <point x="142" y="-253"/>
      <point x="122" y="-238"/>
      <point x="122" y="-214" type="curve" smooth="yes"/>
      <point x="122" y="-184"/>
      <point x="136" y="-179"/>
      <point x="136" y="-170" type="curve" smooth="yes"/>
      <point x="136" y="-164"/>
      <point x="129" y="-160"/>
      <point x="119" y="-160" type="curve" smooth="yes"/>
      <point x="84" y="-160"/>
      <point x="55" y="-182"/>
      <point x="55" y="-218" type="curve" smooth="yes"/>
      <point x="55" y="-269"/>
      <point x="109" y="-295"/>
      <point x="164" y="-295" type="curve" smooth="yes"/>
      <point x="242" y="-295"/>
      <point x="300" y="-242"/>
      <point x="300" y="-179" type="curve" smooth="yes"/>
      <point x="300" y="-102"/>
      <point x="246" y="-66"/>
      <point x="187" y="-66" type="curve" smooth="yes"/>
      <point x="174" y="-66"/>
      <point x="162" y="-67"/>
      <point x="149" y="-70" type="curve"/>
      <point x="226" y="29" type="line"/>
      <point x="202" y="51" type="line"/>
      <point x="84" y="-102" type="line"/>
      <point x="104" y="-120" type="line"/>
      <point x="124" y="-108"/>
      <point x="143" y="-103"/>
      <point x="159" y="-103" type="curve" smooth="yes"/>
      <point x="204" y="-103"/>
      <point x="226" y="-140"/>
      <point x="226" y="-177" type="curve" smooth="yes"/>
      <point x="226" y="-215"/>
      <point x="204" y="-253"/>
    </contour>
  </outline>
</glyph>
<glyph name="ordmasculine" format="2">
  <advance width="435"/>
  <unicode hex="00BA"/>
  <outline>
    <contour>
      <point x="125" y="546" type="curve" smooth="yes"/>
      <point x="125" y="632"/>
      <point x="158" y="686"/>
      <point x="211" y="686" type="curve" smooth="yes"/>
      <point x="269" y="686"/>
      <point x="309" y="626"/>
      <point x="309" y="540" type="curve" smooth="yes"/>
      <point x="309" y="459"/>
      <point x="275" y="408"/>
      <point x="222" y="408" type="curve" smooth="yes"/>
      <point x="166" y="408"/>
      <point x="125" y="463"/>
    </contour>
    <contour>
      <point x="40" y="546" type="curve" smooth="yes"/>
      <point x="40" y="434"/>
      <point x="108" y="361"/>
      <point x="217" y="361" type="curve" smooth="yes"/>
      <point x="326" y="361"/>
      <point x="395" y="434"/>
      <point x="395" y="546" type="curve" smooth="yes"/>
      <point x="395" y="659"/>
      <point x="326" y="731"/>
      <point x="217" y="731" type="curve" smooth="yes"/>
      <point x="108" y="731"/>
      <point x="40" y="659"/>
    </contour>
  </outline>
</glyph>
<glyph name="guillemetright" format="2">
  <advance width="506"/>
  <unicode hex="00BB"/>
  <outline>
    <contour>
      <point x="259" y="118" type="curve"/>
      <point x="289" y="79"/>
      <point x="319" y="74"/>
      <point x="345" y="72" type="curve"/>
      <point x="425" y="202"/>
      <point x="456" y="253"/>
      <point x="456" y="279" type="curve" smooth="yes"/>
      <point x="456" y="303"/>
      <point x="429" y="350"/>
      <point x="345" y="486" type="curve"/>
      <point x="319" y="484"/>
      <point x="289" y="478"/>
      <point x="259" y="440" type="curve"/>
      <point x="280" y="402"/>
      <point x="343" y="335"/>
      <point x="396" y="279" type="curve"/>
      <point x="343" y="223"/>
      <point x="280" y="155"/>
    </contour>
    <contour>
      <point x="50" y="118" type="curve"/>
      <point x="80" y="79"/>
      <point x="110" y="74"/>
      <point x="136" y="72" type="curve"/>
      <point x="216" y="202"/>
      <point x="247" y="253"/>
      <point x="247" y="279" type="curve" smooth="yes"/>
      <point x="247" y="303"/>
      <point x="220" y="350"/>
      <point x="136" y="486" type="curve"/>
      <point x="110" y="484"/>
      <point x="80" y="478"/>
      <point x="50" y="440" type="curve"/>
      <point x="71" y="402"/>
      <point x="134" y="335"/>
      <point x="187" y="279" type="curve"/>
      <point x="134" y="223"/>
      <point x="71" y="155"/>
    </contour>
  </outline>
</glyph>
<glyph name="AE" format="2">
  <advance width="964"/>
  <unicode hex="00C6"/>
  <outline>
    <contour>
      <point x="665" y="306" type="line" smooth="yes"/>
      <point x="736" y="306"/>
      <point x="762" y="296"/>
      <point x="774" y="249" type="curve" smooth="yes"/>
      <point x="780" y="226" type="line"/>
      <point x="814" y="238" type="line"/>
      <point x="814" y="409" type="line"/>
      <point x="794" y="420" type="line"/>
      <point x="786" y="409" type="line" smooth="yes"/>
      <point x="761" y="374"/>
      <point x="738" y="363"/>
      <point x="707" y="363" type="curve" smooth="yes"/>
      <point x="580" y="363" type="line"/>
      <point x="580" y="585" type="line" smooth="yes"/>
      <point x="580" y="647"/>
      <point x="592" y="661"/>
      <point x="644" y="661" type="curve" smooth="yes"/>
      <point x="741" y="661" type="line" smooth="yes"/>
      <point x="812" y="661"/>
      <point x="831" y="643"/>
      <point x="850" y="572" type="curve" smooth="yes"/>
      <point x="856" y="549" type="line"/>
      <point x="890" y="561" type="line"/>
      <point x="890" y="739" type="line"/>
      <point x="874" y="752" type="line"/>
      <point x="856" y="739" type="line" smooth="yes"/>
      <point x="836" y="724"/>
      <point x="800" y="718"/>
      <point x="742" y="718" type="curve" smooth="yes"/>
      <point x="435" y="718" type="line"/>
      <point x="87" y="94" type="line" smooth="yes"/>
      <point x="66" y="57"/>
      <point x="38" y="48"/>
      <point x="9" y="40" type="curve" smooth="yes"/>
      <point x="-14" y="34" type="line"/>
      <point x="-2" y="0" type="line"/>
      <point x="182" y="0" type="line"/>
      <point x="201" y="16" type="line"/>
      <point x="192" y="34" type="line"/>
      <point x="187" y="45"/>
      <point x="179" y="63"/>
      <point x="179" y="79" type="curve" smooth="yes"/>
      <point x="179" y="100"/>
      <point x="180" y="117"/>
      <point x="200" y="154" type="curve" smooth="yes"/>
      <point x="283" y="306" type="line"/>
      <point x="481" y="306" type="line"/>
      <point x="481" y="126" type="line" smooth="yes"/>
      <point x="481" y="67"/>
      <point x="468" y="52"/>
      <point x="420" y="38" type="curve" smooth="yes"/>
      <point x="399" y="32" type="line"/>
      <point x="410" y="0" type="line"/>
      <point x="831" y="0" type="line" smooth="yes"/>
      <point x="852" y="0"/>
      <point x="865" y="-4"/>
      <point x="873" y="-14" type="curve"/>
      <point x="881" y="-25" type="line"/>
      <point x="901" y="-14" type="line"/>
      <point x="901" y="157" type="line"/>
      <point x="867" y="169" type="line"/>
      <point x="861" y="146" type="line" smooth="yes"/>
      <point x="842" y="75"/>
      <point x="823" y="57"/>
      <point x="752" y="57" type="curve" smooth="yes"/>
      <point x="644" y="57" type="line" smooth="yes"/>
      <point x="592" y="57"/>
      <point x="580" y="71"/>
      <point x="580" y="133" type="curve" smooth="yes"/>
      <point x="580" y="306" type="line"/>
    </contour>
    <contour>
      <point x="315" y="363" type="line"/>
      <point x="481" y="665" type="line"/>
      <point x="481" y="363" type="line"/>
    </contour>
  </outline>
</glyph>
<glyph name="Eth" format="2">
  <advance width="733"/>
  <unicode hex="00D0"/>
  <outline>
    <component base="D"/>
    <contour>
      <point x="398" y="332" type="line"/>
      <point x="416" y="346"/>
      <point x="421" y="373"/>
      <point x="421" y="395" type="curve"/>
      <point x="33" y="395" type="line"/>
      <point x="15" y="382"/>
      <point x="10" y="354"/>
      <point x="10" y="332" type="curve"/>
    </contour>
  </outline>
</glyph>
<glyph name="multiply" format="2">
  <advance width="621"/>
  <unicode hex="00D7"/>
  <outline>
    <contour>
      <point x="166" y="158" type="line"/>
      <point x="310" y="303" type="line"/>
      <point x="455" y="158" type="line"/>
      <point x="509" y="212" type="line"/>
      <point x="364" y="357" type="line"/>
      <point x="509" y="502" type="line"/>
      <point x="455" y="556" type="line"/>
      <point x="310" y="411" type="line"/>
      <point x="166" y="556" type="line"/>
      <point x="112" y="502" type="line"/>
      <point x="256" y="357" type="line"/>
      <point x="112" y="212" type="line"/>
    </contour>
  </outline>
</glyph>
<glyph name="Thorn" format="2">
  <advance width="596"/>
  <unicode hex="00DE"/>
  <outline>
    <contour>
      <point x="297" y="0" type="line"/>
      <point x="308" y="32" type="line"/>
      <point x="287" y="38" type="line" smooth="yes"/>
      <point x="239" y="52"/>
      <point x="226" y="67"/>
      <point x="226" y="126" type="curve" smooth="yes"/>
      <point x="226" y="498" type="line" smooth="yes"/>
      <point x="226" y="518"/>
      <point x="235" y="548"/>
      <point x="313" y="548" type="curve" smooth="yes"/>
      <point x="418" y="548"/>
      <point x="472" y="466"/>
      <point x="472" y="360" type="curve" smooth="yes"/>
      <point x="472" y="253"/>
      <point x="415" y="182"/>
      <point x="313" y="182" type="curve" smooth="yes"/>
      <point x="283" y="182"/>
      <point x="272" y="189"/>
      <point x="264" y="189" type="curve" smooth="yes"/>
      <point x="253" y="189"/>
      <point x="248" y="177"/>
      <point x="248" y="165" type="curve" smooth="yes"/>
      <point x="248" y="141"/>
      <point x="291" y="130"/>
      <point x="336" y="130" type="curve" smooth="yes"/>
      <point x="502" y="130"/>
      <point x="576" y="238"/>
      <point x="576" y="363" type="curve" smooth="yes"/>
      <point x="576" y="496"/>
      <point x="477" y="601"/>
      <point x="340" y="601" type="curve" smooth="yes"/>
      <point x="305" y="601"/>
      <point x="268" y="595"/>
      <point x="229" y="581" type="curve"/>
      <point x="235" y="623"/>
      <point x="248" y="653"/>
      <point x="271" y="684" type="curve" smooth="yes"/>
      <point x="284" y="702" type="line"/>
      <point x="271" y="718" type="line"/>
      <point x="52" y="718" type="line"/>
      <point x="40" y="684" type="line"/>
      <point x="63" y="678" type="line"/>
      <point x="113" y="663"/>
      <point x="127" y="647"/>
      <point x="127" y="585" type="curve" smooth="yes"/>
      <point x="127" y="133" type="line" smooth="yes"/>
      <point x="127" y="71"/>
      <point x="113" y="55"/>
      <point x="63" y="40" type="curve"/>
      <point x="40" y="34" type="line"/>
      <point x="52" y="0" type="line"/>
    </contour>
  </outline>
</glyph>
<glyph name="germandbls" format="2">
  <advance width="635"/>
  <unicode hex="00DF"/>
  <outline>
    <contour>
      <point x="436" y="36" type="curve" smooth="yes"/>
      <point x="366" y="36"/>
      <point x="343" y="56" name=".hr01"/>
      <point x="326" y="56" type="curve" smooth="yes"/>
      <point x="315" y="56"/>
      <point x="311" y="43"/>
      <point x="311" y="31" type="curve" smooth="yes"/>
      <point x="311" y="24"/>
      <point x="314" y="15"/>
      <point x="320" y="11" type="curve"/>
      <point x="352" y="-6"/>
      <point x="391" y="-14"/>
      <point x="435" y="-14" type="curve" smooth="yes"/>
      <point x="543" y="-14"/>
      <point x="617" y="60"/>
      <point x="617" y="145" type="curve" smooth="yes"/>
      <point x="617" y="223"/>
      <point x="560" y="276"/>
      <point x="490" y="312" type="curve" smooth="yes"/>
      <point x="419" y="348" type="line" smooth="yes"/>
      <point x="382" y="367"/>
      <point x="366" y="391"/>
      <point x="366" y="424" type="curve" smooth="yes"/>
      <point x="366" y="503"/>
      <point x="499" y="557"/>
      <point x="499" y="654" type="curve" smooth="yes"/>
      <point x="499" y="740"/>
      <point x="433" y="782"/>
      <point x="350" y="782" type="curve" smooth="yes"/>
      <point x="204" y="782"/>
      <point x="100" y="692"/>
      <point x="100" y="526" type="curve" smooth="yes"/>
      <point x="100" y="133" type="line" smooth="yes"/>
      <point x="100" y="71"/>
      <point x="86" y="55"/>
      <point x="36" y="40" type="curve"/>
      <point x="13" y="34" type="line"/>
      <point x="25" y="0" type="line" name=".hr02"/>
      <point x="244" y="0" type="line"/>
      <point x="257" y="16" type="line"/>
      <point x="244" y="34" type="line" smooth="yes"/>
      <point x="211" y="78"/>
      <point x="199" y="120"/>
      <point x="199" y="201" type="curve" smooth="yes"/>
      <point x="199" y="542" type="line" smooth="yes"/>
      <point x="199" y="650"/>
      <point x="235" y="730"/>
      <point x="326" y="730" type="curve" smooth="yes"/>
      <point x="366" y="730"/>
      <point x="408" y="714"/>
      <point x="408" y="654" type="curve" smooth="yes"/>
      <point x="408" y="553"/>
      <point x="277" y="475"/>
      <point x="277" y="395" type="curve" smooth="yes"/>
      <point x="277" y="336"/>
      <point x="304" y="308"/>
      <point x="355" y="276" type="curve"/>
      <point x="430" y="238" type="line" smooth="yes"/>
      <point x="491" y="207"/>
      <point x="529" y="170"/>
      <point x="529" y="117" type="curve" smooth="yes"/>
      <point x="529" y="58"/>
      <point x="478" y="36" name=".hr03"/>
    </contour>
  </outline>
</glyph>
<glyph name="ae" format="2">
  <advance width="865"/>
  <unicode hex="00E6"/>
  <outline>
    <contour>
      <point x="254" y="510" type="curve" smooth="yes"/>
      <point x="138" y="510"/>
      <point x="59" y="448"/>
      <point x="59" y="428" type="curve" smooth="yes"/>
      <point x="59" y="415"/>
      <point x="74" y="399"/>
      <point x="85" y="399" type="curve" smooth="yes"/>
      <point x="99" y="399"/>
      <point x="123" y="444"/>
      <point x="233" y="444" type="curve" smooth="yes"/>
      <point x="330" y="444"/>
      <point x="381" y="371"/>
      <point x="381" y="254" type="curve" smooth="yes"/>
      <point x="381" y="116"/>
      <point x="326" y="40"/>
      <point x="235" y="40" type="curve" smooth="yes"/>
      <point x="172" y="40"/>
      <point x="140" y="85"/>
      <point x="140" y="132" type="curve" smooth="yes"/>
      <point x="140" y="191"/>
      <point x="182" y="250"/>
      <point x="267" y="250" type="curve" smooth="yes"/>
      <point x="314" y="250"/>
      <point x="329" y="237"/>
      <point x="341" y="237" type="curve" smooth="yes"/>
      <point x="349" y="237"/>
      <point x="356" y="248"/>
      <point x="356" y="259" type="curve" smooth="yes"/>
      <point x="356" y="294"/>
      <point x="267" y="306" name=".hr01"/>
      <point x="236" y="306" type="curve" smooth="yes"/>
      <point x="111" y="306"/>
      <point x="45" y="217"/>
      <point x="45" y="133" type="curve" smooth="yes"/>
      <point x="45" y="58"/>
      <point x="100" y="-14"/>
      <point x="215" y="-14" type="curve" smooth="yes"/>
      <point x="308" y="-14"/>
      <point x="376" y="31"/>
      <point x="410" y="106" type="curve"/>
      <point x="447" y="31"/>
      <point x="518" y="-14"/>
      <point x="611" y="-14" type="curve" smooth="yes"/>
      <point x="690" y="-14"/>
      <point x="759" y="17"/>
      <point x="809" y="75" type="curve"/>
      <point x="811" y="77"/>
      <point x="813" y="80"/>
      <point x="813" y="84" type="curve" smooth="yes"/>
      <point x="813" y="97"/>
      <point x="798" y="113"/>
      <point x="787" y="113" type="curve" smooth="yes"/>
      <point x="782" y="113"/>
      <point x="780" y="111"/>
      <point x="778" y="109" type="curve" smooth="yes"/>
      <point x="738" y="70"/>
      <point x="688" y="52" name=".hr02"/>
      <point x="632" y="52" type="curve" smooth="yes"/>
      <point x="535" y="52"/>
      <point x="484" y="125"/>
      <point x="484" y="242" type="curve" smooth="yes"/>
      <point x="484" y="383"/>
      <point x="535" y="460"/>
      <point x="620" y="460" type="curve" smooth="yes"/>
      <point x="683" y="460"/>
      <point x="715" y="413"/>
      <point x="715" y="364" type="curve" smooth="yes"/>
      <point x="715" y="307"/>
      <point x="673" y="250"/>
      <point x="588" y="250" type="curve" smooth="yes"/>
      <point x="547" y="250"/>
      <point x="534" y="263"/>
      <point x="524" y="263" type="curve" smooth="yes"/>
      <point x="516" y="263"/>
      <point x="509" y="252"/>
      <point x="509" y="241" type="curve" smooth="yes"/>
      <point x="509" y="206"/>
      <point x="591" y="194"/>
      <point x="619" y="194" type="curve" smooth="yes"/>
      <point x="744" y="194"/>
      <point x="810" y="281"/>
      <point x="810" y="363" type="curve" smooth="yes"/>
      <point x="810" y="438"/>
      <point x="755" y="510"/>
      <point x="640" y="510" type="curve" smooth="yes"/>
      <point x="552" y="510"/>
      <point x="482" y="476"/>
      <point x="437" y="419" type="curve"/>
      <point x="397" y="476"/>
      <point x="333" y="510"/>
    </contour>
  </outline>
</glyph>
<glyph name="eth" format="2">
  <advance width="584"/>
  <unicode hex="00F0"/>
  <outline>
    <component base="eslash" xScale="0.9" yScale="0.9" xOffset="266" yOffset="324"/>
    <contour>
      <point x="237" y="790" type="curve" smooth="yes"/>
      <point x="126" y="790"/>
      <point x="74" y="727"/>
      <point x="74" y="665" type="curve" smooth="yes"/>
      <point x="74" y="611"/>
      <point x="113" y="559"/>
      <point x="186" y="559" type="curve" smooth="yes"/>
      <point x="198" y="559"/>
      <point x="202" y="564"/>
      <point x="202" y="569" type="curve" smooth="yes"/>
      <point x="202" y="580"/>
      <point x="159" y="599"/>
      <point x="159" y="664" type="curve" smooth="yes"/>
      <point x="159" y="708"/>
      <point x="187" y="745"/>
      <point x="236" y="745" type="curve" smooth="yes"/>
      <point x="327" y="745"/>
      <point x="399" y="607"/>
      <point x="431" y="430" type="curve"/>
      <point x="393" y="472"/>
      <point x="344" y="490"/>
      <point x="292" y="490" type="curve" smooth="yes"/>
      <point x="139" y="490"/>
      <point x="43" y="393" name=".hr01"/>
      <point x="43" y="238" type="curve" smooth="yes"/>
      <point x="43" y="84"/>
      <point x="139" y="-14"/>
      <point x="292" y="-14" type="curve" smooth="yes"/>
      <point x="444" y="-14"/>
      <point x="541" y="84"/>
      <point x="541" y="238" type="curve" smooth="yes"/>
      <point x="541" y="411"/>
      <point x="473" y="790"/>
    </contour>
    <contour>
      <point x="147" y="238" type="curve" smooth="yes"/>
      <point x="147" y="361"/>
      <point x="202" y="438"/>
      <point x="289" y="438" type="curve" smooth="yes"/>
      <point x="383" y="438"/>
      <point x="448" y="352"/>
      <point x="448" y="229" type="curve" smooth="yes"/>
      <point x="448" y="113"/>
      <point x="392" y="40"/>
      <point x="304" y="40" type="curve" smooth="yes"/>
      <point x="213" y="40"/>
      <point x="147" y="119"/>
    </contour>
  </outline>
</glyph>
<glyph name="thorn" format="2">
  <advance width="595"/>
  <unicode hex="00FE"/>
  <outline>
    <contour>
      <point x="193" y="736" type="line" smooth="yes"/>
      <point x="193" y="766"/>
      <point x="185" y="782"/>
      <point x="169" y="782" type="curve" smooth="yes"/>
      <point x="125" y="782"/>
      <point x="52" y="761"/>
      <point x="30" y="742" type="curve"/>
      <point x="30" y="709" type="line"/>
      <point x="82" y="698" type="line" smooth="yes"/>
      <point x="99" y="694"/>
      <point x="103" y="685"/>
      <point x="103" y="665" type="curve" smooth="yes"/>
      <point x="103" y="-106" type="line" smooth="yes"/>
      <point x="103" y="-169"/>
      <point x="95" y="-201"/>
      <point x="71" y="-235" type="curve"/>
      <point x="59" y="-251" type="line"/>
      <point x="71" y="-266" type="line"/>
      <point x="245" y="-266" type="line"/>
      <point x="256" y="-235" type="line"/>
      <point x="235" y="-230" type="line" smooth="yes"/>
      <point x="201" y="-222"/>
      <point x="193" y="-205"/>
      <point x="193" y="-155" type="curve" smooth="yes"/>
      <point x="193" y="405" type="line"/>
      <point x="228" y="432"/>
      <point x="263" y="444"/>
      <point x="305" y="444" type="curve" smooth="yes"/>
      <point x="387" y="444"/>
      <point x="444" y="364"/>
      <point x="444" y="248" type="curve" smooth="yes"/>
      <point x="444" y="128"/>
      <point x="387" y="40"/>
      <point x="307" y="40" type="curve" smooth="yes"/>
      <point x="262" y="40"/>
      <point x="247" y="56" name=".hr01"/>
      <point x="236" y="56" type="curve" smooth="yes"/>
      <point x="225" y="56"/>
      <point x="221" y="43"/>
      <point x="221" y="31" type="curve" smooth="yes"/>
      <point x="221" y="24"/>
      <point x="224" y="17"/>
      <point x="230" y="13" type="curve" smooth="yes"/>
      <point x="257" y="-5"/>
      <point x="292" y="-14"/>
      <point x="330" y="-14" type="curve" smooth="yes"/>
      <point x="457" y="-14"/>
      <point x="550" y="106"/>
      <point x="550" y="268" type="curve" smooth="yes"/>
      <point x="550" y="410"/>
      <point x="462" y="510"/>
      <point x="337" y="510" type="curve" smooth="yes"/>
      <point x="284" y="510"/>
      <point x="235" y="488"/>
      <point x="193" y="447" type="curve"/>
    </contour>
  </outline>
</glyph>
<glyph name="OE" format="2">
  <advance width="956"/>
  <unicode hex="0152"/>
  <outline>
    <contour>
      <point x="366" y="718" type="line" smooth="yes"/>
      <point x="142" y="718"/>
      <point x="35" y="556"/>
      <point x="35" y="358" type="curve" smooth="yes"/>
      <point x="35" y="160"/>
      <point x="142" y="0"/>
      <point x="366" y="0" type="curve" smooth="yes"/>
      <point x="823" y="0" type="line" smooth="yes"/>
      <point x="844" y="0"/>
      <point x="857" y="-4"/>
      <point x="865" y="-14" type="curve"/>
      <point x="873" y="-25" type="line"/>
      <point x="893" y="-14" type="line"/>
      <point x="893" y="157" type="line"/>
      <point x="859" y="169" type="line"/>
      <point x="853" y="146" type="line" smooth="yes"/>
      <point x="834" y="75"/>
      <point x="815" y="57" name=".hr01"/>
      <point x="744" y="57" type="curve" smooth="yes"/>
      <point x="636" y="57" type="line" smooth="yes"/>
      <point x="584" y="57"/>
      <point x="572" y="71"/>
      <point x="572" y="133" type="curve" smooth="yes"/>
      <point x="572" y="336" type="line"/>
      <point x="657" y="336" type="line" smooth="yes"/>
      <point x="728" y="336"/>
      <point x="754" y="326"/>
      <point x="766" y="279" type="curve" smooth="yes"/>
      <point x="772" y="256" type="line"/>
      <point x="806" y="268" type="line"/>
      <point x="806" y="439" type="line"/>
      <point x="786" y="450" type="line"/>
      <point x="778" y="439" type="line" smooth="yes"/>
      <point x="753" y="404"/>
      <point x="730" y="393"/>
      <point x="699" y="393" type="curve" smooth="yes"/>
      <point x="572" y="393" type="line"/>
      <point x="572" y="585" type="line" smooth="yes"/>
      <point x="572" y="647"/>
      <point x="584" y="661"/>
      <point x="636" y="661" type="curve" smooth="yes"/>
      <point x="733" y="661" type="line" smooth="yes"/>
      <point x="804" y="661"/>
      <point x="823" y="643"/>
      <point x="842" y="572" type="curve" smooth="yes"/>
      <point x="848" y="549" type="line"/>
      <point x="882" y="561" type="line"/>
      <point x="882" y="739" type="line"/>
      <point x="866" y="752" type="line"/>
      <point x="848" y="739" type="line" smooth="yes"/>
      <point x="828" y="724"/>
      <point x="792" y="718"/>
      <point x="734" y="718" type="curve" smooth="yes"/>
    </contour>
    <contour>
      <point x="375" y="45" type="curve" smooth="yes" name=".hr02"/>
      <point x="230" y="45"/>
      <point x="143" y="185"/>
      <point x="143" y="358" type="curve" smooth="yes"/>
      <point x="143" y="508"/>
      <point x="195" y="674"/>
      <point x="355" y="674" type="curve" smooth="yes"/>
      <point x="399" y="674"/>
      <point x="440" y="658"/>
      <point x="473" y="633" type="curve"/>
      <point x="473" y="70" type="line"/>
      <point x="445" y="54"/>
      <point x="412" y="45"/>
    </contour>
  </outline>
</glyph>
<glyph name="florin" format="2">
  <advance width="464"/>
  <unicode hex="0192"/>
  <outline>
    <contour>
      <point x="225" y="449" type="line" smooth="yes"/>
      <point x="225" y="587"/>
      <point x="260" y="682"/>
      <point x="347" y="682" type="curve" smooth="yes"/>
      <point x="396" y="682"/>
      <point x="424" y="656"/>
      <point x="424" y="616" type="curve" smooth="yes"/>
      <point x="424" y="560"/>
      <point x="397" y="543"/>
      <point x="397" y="534" type="curve" smooth="yes"/>
      <point x="397" y="526"/>
      <point x="403" y="523"/>
      <point x="416" y="523" type="curve" smooth="yes"/>
      <point x="472" y="523"/>
      <point x="514" y="563"/>
      <point x="514" y="621" type="curve" smooth="yes"/>
      <point x="514" y="686"/>
      <point x="452" y="732"/>
      <point x="365" y="732" type="curve" smooth="yes"/>
      <point x="210" y="732"/>
      <point x="135" y="590"/>
      <point x="135" y="383" type="curve" smooth="yes"/>
      <point x="135" y="365" type="line"/>
      <point x="25" y="365" type="line"/>
      <point x="7" y="352"/>
      <point x="2" y="324"/>
      <point x="2" y="302" type="curve"/>
      <point x="135" y="302" type="line"/>
      <point x="135" y="-90" type="line" smooth="yes"/>
      <point x="135" y="-163"/>
      <point x="102" y="-195"/>
      <point x="65" y="-195" type="curve" smooth="yes"/>
      <point x="34" y="-195"/>
      <point x="10" y="-171"/>
      <point x="10" y="-129" type="curve" smooth="yes"/>
      <point x="10" y="-82"/>
      <point x="38" y="-66"/>
      <point x="38" y="-57" type="curve" smooth="yes"/>
      <point x="38" y="-49"/>
      <point x="32" y="-46"/>
      <point x="19" y="-46" type="curve" smooth="yes"/>
      <point x="-38" y="-46"/>
      <point x="-79" y="-85"/>
      <point x="-79" y="-136" type="curve" smooth="yes"/>
      <point x="-79" y="-200"/>
      <point x="-25" y="-238"/>
      <point x="45" y="-238" type="curve" smooth="yes"/>
      <point x="168" y="-238"/>
      <point x="225" y="-147"/>
      <point x="225" y="-13" type="curve" smooth="yes"/>
      <point x="225" y="302" type="line"/>
      <point x="390" y="302" type="line"/>
      <point x="408" y="316"/>
      <point x="413" y="343"/>
      <point x="413" y="365" type="curve"/>
      <point x="225" y="365" type="line"/>
    </contour>
  </outline>
</glyph>
<glyph name="circumflex" format="2">
  <advance width="374"/>
  <unicode hex="02C6"/>
  <outline>
    <contour>
      <point x="174" y="755" type="line"/>
      <point x="148" y="740"/>
      <point x="94" y="673"/>
      <point x="50" y="597" type="curve"/>
      <point x="83" y="569" type="line"/>
      <point x="187" y="652" type="line"/>
      <point x="292" y="569" type="line"/>
      <point x="324" y="597" type="line"/>
      <point x="280" y="675"/>
      <point x="223" y="742"/>
      <point x="201" y="755" type="curve"/>
    </contour>
  </outline>
</glyph>
<glyph name="breve" format="2">
  <advance width="343"/>
  <unicode hex="02D8"/>
  <outline>
    <contour>
      <point x="172" y="580" type="curve" smooth="yes"/>
      <point x="242" y="580"/>
      <point x="296" y="626"/>
      <point x="296" y="720" type="curve"/>
      <point x="241" y="720" type="line"/>
      <point x="241" y="680"/>
      <point x="210" y="656"/>
      <point x="172" y="656" type="curve" smooth="yes"/>
      <point x="133" y="656"/>
      <point x="102" y="680"/>
      <point x="102" y="720" type="curve"/>
      <point x="47" y="720" type="line"/>
      <point x="47" y="626"/>
      <point x="101" y="580"/>
    </contour>
  </outline>
</glyph>
<glyph name="dotaccent" format="2">
  <advance width="324"/>
  <unicode hex="02D9"/>
  <outline>
    <contour>
      <point x="100" y="658" type="curve" smooth="yes"/>
      <point x="100" y="632"/>
      <point x="138" y="593"/>
      <point x="161" y="593" type="curve" smooth="yes"/>
      <point x="186" y="593"/>
      <point x="224" y="632"/>
      <point x="224" y="658" type="curve" smooth="yes"/>
      <point x="224" y="684"/>
      <point x="186" y="724"/>
      <point x="161" y="724" type="curve" smooth="yes"/>
      <point x="137" y="724"/>
      <point x="100" y="684"/>
    </contour>
  </outline>
</glyph>
<glyph name="ring" format="2">
  <advance width="317"/>
  <unicode hex="02DA"/>
  <outline>
    <contour>
      <point x="115" y="658" type="curve" smooth="yes"/>
      <point x="115" y="690"/>
      <point x="130" y="716"/>
      <point x="157" y="716" type="curve" smooth="yes"/>
      <point x="186" y="716"/>
      <point x="201" y="690"/>
      <point x="201" y="658" type="curve" smooth="yes"/>
      <point x="201" y="626"/>
      <point x="186" y="600"/>
      <point x="157" y="600" type="curve" smooth="yes"/>
      <point x="130" y="600"/>
      <point x="115" y="626"/>
    </contour>
    <contour>
      <point x="45" y="658" type="curve" smooth="yes"/>
      <point x="45" y="598"/>
      <point x="83" y="552"/>
      <point x="157" y="552" type="curve" smooth="yes"/>
      <point x="234" y="552"/>
      <point x="272" y="598"/>
      <point x="272" y="658" type="curve" smooth="yes"/>
      <point x="272" y="718"/>
      <point x="234" y="765"/>
      <point x="157" y="765" type="curve" smooth="yes"/>
      <point x="83" y="765"/>
      <point x="45" y="718"/>
    </contour>
  </outline>
</glyph>
<glyph name="ogonek" format="2">
  <advance width="388"/>
  <unicode hex="02DB"/>
  <outline>
    <contour>
      <point x="224" y="51" type="line"/>
      <point x="93" y="-36"/>
      <point x="24" y="-100"/>
      <point x="24" y="-181" type="curve" smooth="yes"/>
      <point x="24" y="-254"/>
      <point x="78" y="-295"/>
      <point x="144" y="-295" type="curve" smooth="yes"/>
      <point x="211" y="-295"/>
      <point x="283" y="-255"/>
      <point x="343" y="-169" type="curve"/>
      <point x="309" y="-138" type="line"/>
      <point x="265" y="-198"/>
      <point x="208" y="-229"/>
      <point x="165" y="-229" type="curve" smooth="yes"/>
      <point x="130" y="-229"/>
      <point x="104" y="-208"/>
      <point x="104" y="-164" type="curve" smooth="yes"/>
      <point x="104" y="-117"/>
      <point x="145" y="-57"/>
      <point x="250" y="12" type="curve"/>
    </contour>
  </outline>
</glyph>
<glyph name="tilde" format="2">
  <advance width="408"/>
  <unicode hex="02DC"/>
  <outline>
    <contour>
      <point x="332" y="723" type="line"/>
      <point x="303" y="695"/>
      <point x="281" y="684"/>
      <point x="264" y="684" type="curve" smooth="yes"/>
      <point x="232" y="684"/>
      <point x="213" y="719"/>
      <point x="170" y="719" type="curve" smooth="yes"/>
      <point x="131" y="719"/>
      <point x="84" y="681"/>
      <point x="41" y="622" type="curve"/>
      <point x="76" y="591" type="line"/>
      <point x="103" y="618"/>
      <point x="127" y="630"/>
      <point x="143" y="630" type="curve" smooth="yes"/>
      <point x="175" y="630"/>
      <point x="193" y="595"/>
      <point x="238" y="595" type="curve" smooth="yes"/>
      <point x="276" y="595"/>
      <point x="324" y="633"/>
      <point x="366" y="692" type="curve"/>
    </contour>
  </outline>
</glyph>
<glyph name="hungarumlaut" format="2">
  <advance width="531"/>
  <unicode hex="02DD"/>
  <outline>
    <contour>
      <point x="63" y="604" type="line"/>
      <point x="92" y="569" type="line"/>
      <point x="205" y="625" type="line" smooth="yes"/>
      <point x="246" y="645"/>
      <point x="261" y="668"/>
      <point x="261" y="697" type="curve" smooth="yes"/>
      <point x="261" y="726"/>
      <point x="244" y="748"/>
      <point x="219" y="760" type="curve"/>
    </contour>
    <contour>
      <point x="270" y="604" type="line"/>
      <point x="299" y="569" type="line"/>
      <point x="412" y="625" type="line" smooth="yes"/>
      <point x="453" y="645"/>
      <point x="468" y="668"/>
      <point x="468" y="697" type="curve" smooth="yes"/>
      <point x="468" y="726"/>
      <point x="451" y="748"/>
      <point x="426" y="760" type="curve"/>
    </contour>
  </outline>
</glyph>
<glyph name="strokeshortcomb" format="2">
  <advance width="442"/>
  <unicode hex="0335"/>
  <anchor x="221" y="344" name="_center"/>
  <outline>
    <contour>
      <point x="353" y="316" type="line"/>
      <point x="369" y="329"/>
      <point x="373" y="353"/>
      <point x="373" y="372" type="curve"/>
      <point x="89" y="372" type="line"/>
      <point x="73" y="360"/>
      <point x="69" y="334"/>
      <point x="69" y="316" type="curve"/>
    </contour>
  </outline>
</glyph>
<glyph name="pi" format="2">
  <advance width="636"/>
  <unicode hex="03C0"/>
  <outline>
    <contour>
      <point x="130" y="423" type="line"/>
      <point x="174" y="423" type="line"/>
      <point x="119" y="117" type="line" smooth="yes"/>
      <point x="111" y="73"/>
      <point x="106" y="60"/>
      <point x="75" y="47" type="curve" smooth="yes"/>
      <point x="42" y="33" type="line"/>
      <point x="36" y="0" type="line"/>
      <point x="205" y="0" type="line"/>
      <point x="220" y="15" type="line"/>
      <point x="213" y="31" type="line" smooth="yes"/>
      <point x="206" y="47"/>
      <point x="203" y="61"/>
      <point x="203" y="82" type="curve" smooth="yes"/>
      <point x="203" y="99"/>
      <point x="205" y="120"/>
      <point x="210" y="148" type="curve" smooth="yes"/>
      <point x="259" y="423" type="line"/>
      <point x="427" y="423" type="line"/>
      <point x="372" y="110" type="line" smooth="yes"/>
      <point x="368" y="89"/>
      <point x="366" y="71"/>
      <point x="366" y="55" type="curve" smooth="yes"/>
      <point x="366" y="12"/>
      <point x="382" y="-14" name=".hr01"/>
      <point x="433" y="-14" type="curve" smooth="yes"/>
      <point x="467" y="-14"/>
      <point x="510" y="-1"/>
      <point x="567" y="33" type="curve"/>
      <point x="557" y="68" type="line"/>
      <point x="524" y="52"/>
      <point x="501" y="46"/>
      <point x="486" y="46" type="curve" smooth="yes"/>
      <point x="465" y="46"/>
      <point x="459" y="59"/>
      <point x="459" y="77" type="curve" smooth="yes"/>
      <point x="459" y="85"/>
      <point x="475" y="188"/>
      <point x="514" y="400" type="curve" smooth="yes"/>
      <point x="518" y="421"/>
      <point x="532" y="432"/>
      <point x="564" y="437" type="curve" smooth="yes"/>
      <point x="618" y="445" type="line"/>
      <point x="626" y="497" type="line"/>
      <point x="185" y="497" type="line" smooth="yes"/>
      <point x="110" y="497"/>
      <point x="83" y="485"/>
      <point x="18" y="347" type="curve"/>
      <point x="21" y="332"/>
      <point x="40" y="327"/>
      <point x="57" y="327" type="curve"/>
    </contour>
  </outline>
</glyph>
<glyph name="Dje-cy" format="2">
  <advance width="760"/>
  <unicode hex="0402"/>
  <outline>
    <contour>
      <point x="740" y="217" type="curve" smooth="yes"/>
      <point x="740" y="380"/>
      <point x="651" y="458"/>
      <point x="522" y="458" type="curve" smooth="yes"/>
      <point x="469" y="458"/>
      <point x="410" y="445"/>
      <point x="347" y="419" type="curve"/>
      <point x="347" y="585" type="line" smooth="yes"/>
      <point x="347" y="647"/>
      <point x="354" y="662"/>
      <point x="382" y="662" type="curve" smooth="yes"/>
      <point x="428" y="662" type="line" smooth="yes"/>
      <point x="498" y="662"/>
      <point x="517" y="644"/>
      <point x="537" y="572" type="curve"/>
      <point x="542" y="549" type="line"/>
      <point x="577" y="561" type="line"/>
      <point x="577" y="738" type="line"/>
      <point x="560" y="751" type="line"/>
      <point x="542" y="738" type="line"/>
      <point x="523" y="723"/>
      <point x="486" y="718"/>
      <point x="429" y="718" type="curve" smooth="yes"/>
      <point x="168" y="718" type="line" smooth="yes"/>
      <point x="111" y="718"/>
      <point x="75" y="723"/>
      <point x="55" y="738" type="curve" smooth="yes"/>
      <point x="38" y="751" type="line"/>
      <point x="20" y="738" type="line"/>
      <point x="20" y="561" type="line"/>
      <point x="55" y="549" type="line"/>
      <point x="60" y="572" type="line"/>
      <point x="80" y="644"/>
      <point x="98" y="662"/>
      <point x="169" y="662" type="curve" smooth="yes"/>
      <point x="215" y="662" type="line" smooth="yes"/>
      <point x="244" y="662"/>
      <point x="249" y="647"/>
      <point x="249" y="585" type="curve" smooth="yes"/>
      <point x="249" y="201" type="line" smooth="yes"/>
      <point x="249" y="119"/>
      <point x="237" y="78"/>
      <point x="204" y="34" type="curve"/>
      <point x="192" y="16" type="line"/>
      <point x="204" y="0" type="line"/>
      <point x="391" y="0" type="line"/>
      <point x="403" y="34" type="line"/>
      <point x="379" y="40" type="line"/>
      <point x="354" y="55"/>
      <point x="347" y="69"/>
      <point x="347" y="133" type="curve" smooth="yes"/>
      <point x="347" y="361" type="line"/>
      <point x="401" y="379"/>
      <point x="448" y="388"/>
      <point x="488" y="388" type="curve" smooth="yes"/>
      <point x="580" y="388"/>
      <point x="632" y="326"/>
      <point x="632" y="204" type="curve" smooth="yes"/>
      <point x="632" y="69"/>
      <point x="578" y="6"/>
      <point x="536" y="6" type="curve" smooth="yes"/>
      <point x="513" y="6"/>
      <point x="502" y="22"/>
      <point x="489" y="22" type="curve" smooth="yes"/>
      <point x="482" y="22"/>
      <point x="475" y="15"/>
      <point x="475" y="0" type="curve" smooth="yes"/>
      <point x="475" y="-29"/>
      <point x="500" y="-58"/>
      <point x="548" y="-58" type="curve" smooth="yes"/>
      <point x="652" y="-58"/>
      <point x="740" y="66"/>
    </contour>
  </outline>
</glyph>
<glyph name="Lje-cy" format="2">
  <advance width="961"/>
  <unicode hex="0409"/>
  <outline>
    <contour>
      <point x="694" y="419" type="curve" smooth="yes"/>
      <point x="644" y="419"/>
      <point x="597" y="409"/>
      <point x="597" y="384" type="curve" smooth="yes"/>
      <point x="597" y="372"/>
      <point x="600" y="361"/>
      <point x="611" y="361" type="curve" smooth="yes"/>
      <point x="622" y="361"/>
      <point x="635" y="370"/>
      <point x="676" y="370" type="curve" smooth="yes"/>
      <point x="772" y="370"/>
      <point x="836" y="301"/>
      <point x="836" y="215" type="curve" smooth="yes"/>
      <point x="836" y="120"/>
      <point x="782" y="52"/>
      <point x="686" y="52" type="curve" smooth="yes"/>
      <point x="647" y="52"/>
      <point x="575" y="57"/>
      <point x="575" y="183" type="curve" smooth="yes"/>
      <point x="575" y="517" type="line" smooth="yes"/>
      <point x="575" y="597"/>
      <point x="587" y="640"/>
      <point x="620" y="684" type="curve"/>
      <point x="633" y="702" type="line"/>
      <point x="620" y="718" type="line"/>
      <point x="172" y="718" type="line"/>
      <point x="159" y="684" type="line"/>
      <point x="183" y="679" type="line"/>
      <point x="231" y="671"/>
      <point x="259" y="643"/>
      <point x="254" y="584" type="curve" smooth="yes"/>
      <point x="219" y="207"/>
      <point x="179" y="65"/>
      <point x="103" y="65" type="curve" smooth="yes"/>
      <point x="79" y="65"/>
      <point x="69" y="88"/>
      <point x="64" y="112" type="curve"/>
      <point x="57" y="137"/>
      <point x="49" y="148"/>
      <point x="32" y="148" type="curve" smooth="yes"/>
      <point x="7" y="148"/>
      <point x="-16" y="126"/>
      <point x="-16" y="86" type="curve" smooth="yes"/>
      <point x="-16" y="19"/>
      <point x="33" y="-14"/>
      <point x="88" y="-14" type="curve" smooth="yes"/>
      <point x="203" y="-14"/>
      <point x="277" y="100"/>
      <point x="321" y="622" type="curve" smooth="yes"/>
      <point x="324" y="655"/>
      <point x="346" y="662"/>
      <point x="383" y="662" type="curve" smooth="yes"/>
      <point x="412" y="662" type="line" smooth="yes"/>
      <point x="464" y="662"/>
      <point x="476" y="647"/>
      <point x="476" y="585" type="curve" smooth="yes"/>
      <point x="476" y="133" type="line" smooth="yes"/>
      <point x="476" y="71"/>
      <point x="462" y="53"/>
      <point x="412" y="40" type="curve" smooth="yes"/>
      <point x="388" y="34" type="line"/>
      <point x="400" y="0" type="line"/>
      <point x="681" y="0" type="line" smooth="yes"/>
      <point x="871" y="0"/>
      <point x="939" y="88"/>
      <point x="939" y="210" type="curve" smooth="yes"/>
      <point x="939" y="322"/>
      <point x="846" y="419"/>
    </contour>
  </outline>
</glyph>
<glyph name="Tshe-cy" format="2">
  <advance width="769"/>
  <unicode hex="040B"/>
  <outline>
    <contour>
      <point x="325" y="315" type="line"/>
      <point x="361" y="349"/>
      <point x="401" y="384"/>
      <point x="481" y="384" type="curve" smooth="yes"/>
      <point x="559" y="384"/>
      <point x="599" y="351"/>
      <point x="599" y="273" type="curve" smooth="yes"/>
      <point x="599" y="-15" type="line"/>
      <point x="726" y="-1" type="line"/>
      <point x="739" y="16" type="line"/>
      <point x="726" y="33" type="line"/>
      <point x="704" y="64"/>
      <point x="696" y="93"/>
      <point x="696" y="175" type="curve" smooth="yes"/>
      <point x="696" y="300" type="line" smooth="yes"/>
      <point x="696" y="405"/>
      <point x="635" y="456"/>
      <point x="522" y="456" type="curve" smooth="yes"/>
      <point x="433" y="456"/>
      <point x="380" y="426"/>
      <point x="325" y="387" type="curve"/>
      <point x="325" y="585" type="line" smooth="yes"/>
      <point x="325" y="647"/>
      <point x="332" y="662"/>
      <point x="360" y="662" type="curve" smooth="yes"/>
      <point x="428" y="662" type="line" smooth="yes"/>
      <point x="498" y="662"/>
      <point x="520" y="645"/>
      <point x="537" y="572" type="curve" smooth="yes"/>
      <point x="542" y="549" type="line"/>
      <point x="577" y="561" type="line"/>
      <point x="577" y="738" type="line"/>
      <point x="559" y="751" type="line"/>
      <point x="542" y="738" type="line"/>
      <point x="522" y="724"/>
      <point x="486" y="718"/>
      <point x="429" y="718" type="curve" smooth="yes"/>
      <point x="168" y="718" type="line" smooth="yes"/>
      <point x="111" y="718"/>
      <point x="75" y="723"/>
      <point x="55" y="738" type="curve" smooth="yes"/>
      <point x="38" y="751" type="line"/>
      <point x="20" y="738" type="line"/>
      <point x="20" y="561" type="line"/>
      <point x="55" y="549" type="line"/>
      <point x="60" y="572" type="line" smooth="yes"/>
      <point x="77" y="645"/>
      <point x="98" y="662"/>
      <point x="169" y="662" type="curve" smooth="yes"/>
      <point x="193" y="662" type="line" smooth="yes"/>
      <point x="222" y="662"/>
      <point x="227" y="647"/>
      <point x="227" y="585" type="curve" smooth="yes"/>
      <point x="227" y="201" type="line" smooth="yes"/>
      <point x="227" y="119"/>
      <point x="215" y="78"/>
      <point x="182" y="34" type="curve"/>
      <point x="170" y="16" type="line"/>
      <point x="182" y="0" type="line"/>
      <point x="402" y="0" type="line"/>
      <point x="414" y="34" type="line"/>
      <point x="390" y="40" type="line"/>
      <point x="339" y="55"/>
      <point x="325" y="69"/>
      <point x="325" y="133" type="curve" smooth="yes"/>
    </contour>
  </outline>
</glyph>
<glyph name="Be-cy" format="2">
  <advance width="622"/>
  <unicode hex="0411"/>
  <outline>
    <contour>
      <point x="337" y="52" type="curve" smooth="yes"/>
      <point x="298" y="52"/>
      <point x="227" y="57"/>
      <point x="227" y="183" type="curve" smooth="yes"/>
      <point x="227" y="585" type="line" smooth="yes"/>
      <point x="227" y="647"/>
      <point x="238" y="662"/>
      <point x="290" y="662" type="curve" smooth="yes"/>
      <point x="388" y="662" type="line" smooth="yes"/>
      <point x="458" y="662"/>
      <point x="477" y="644"/>
      <point x="497" y="572" type="curve"/>
      <point x="502" y="549" type="line"/>
      <point x="537" y="561" type="line"/>
      <point x="537" y="738" type="line"/>
      <point x="520" y="751" type="line"/>
      <point x="502" y="738" type="line"/>
      <point x="483" y="723"/>
      <point x="446" y="718"/>
      <point x="389" y="718" type="curve" smooth="yes"/>
      <point x="83" y="718" type="line"/>
      <point x="70" y="702" type="line"/>
      <point x="83" y="684" type="line" smooth="yes"/>
      <point x="115" y="640"/>
      <point x="127" y="597"/>
      <point x="127" y="517" type="curve" smooth="yes"/>
      <point x="127" y="133" type="line" smooth="yes"/>
      <point x="127" y="69"/>
      <point x="113" y="55"/>
      <point x="63" y="40" type="curve"/>
      <point x="40" y="34" type="line"/>
      <point x="53" y="0" type="line"/>
      <point x="332" y="0" type="line" smooth="yes"/>
      <point x="523" y="0"/>
      <point x="591" y="88"/>
      <point x="591" y="210" type="curve" smooth="yes"/>
      <point x="591" y="322"/>
      <point x="497" y="419"/>
      <point x="345" y="419" type="curve" smooth="yes"/>
      <point x="295" y="419"/>
      <point x="248" y="409"/>
      <point x="248" y="384" type="curve" smooth="yes"/>
      <point x="248" y="372"/>
      <point x="252" y="361"/>
      <point x="262" y="361" type="curve" smooth="yes"/>
      <point x="275" y="361"/>
      <point x="289" y="370"/>
      <point x="330" y="370" type="curve" smooth="yes"/>
      <point x="425" y="370"/>
      <point x="487" y="301"/>
      <point x="487" y="215" type="curve" smooth="yes"/>
      <point x="487" y="120"/>
      <point x="433" y="52"/>
    </contour>
  </outline>
</glyph>
<glyph name="Ge-cy" format="2">
  <advance width="509"/>
  <unicode hex="0413"/>
  <anchor x="99" y="0" name="bottomright"/>
  <anchor x="169" y="359" name="center"/>
  <anchor x="287" y="718" name="top"/>
  <outline>
    <contour>
      <point x="53" y="718" type="line"/>
      <point x="40" y="702" type="line"/>
      <point x="53" y="684" type="line" smooth="yes"/>
      <point x="86" y="640"/>
      <point x="99" y="597"/>
      <point x="99" y="517" type="curve" smooth="yes"/>
      <point x="99" y="201" type="line" smooth="yes"/>
      <point x="99" y="119"/>
      <point x="86" y="78"/>
      <point x="53" y="34" type="curve" smooth="yes"/>
      <point x="40" y="16" type="line"/>
      <point x="53" y="0" type="line"/>
      <point x="273" y="0" type="line"/>
      <point x="285" y="34" type="line"/>
      <point x="261" y="40" type="line"/>
      <point x="211" y="55"/>
      <point x="197" y="69"/>
      <point x="197" y="133" type="curve" smooth="yes"/>
      <point x="197" y="585" type="line" smooth="yes"/>
      <point x="197" y="647"/>
      <point x="209" y="662"/>
      <point x="261" y="662" type="curve" smooth="yes"/>
      <point x="347" y="662" type="line" smooth="yes"/>
      <point x="418" y="662"/>
      <point x="440" y="645"/>
      <point x="456" y="572" type="curve" smooth="yes"/>
      <point x="461" y="549" type="line"/>
      <point x="496" y="561" type="line"/>
      <point x="496" y="738" type="line"/>
      <point x="480" y="751" type="line"/>
      <point x="461" y="738" type="line" smooth="yes"/>
      <point x="441" y="724"/>
      <point x="406" y="718"/>
      <point x="348" y="718" type="curve" smooth="yes"/>
    </contour>
  </outline>
  <guideline angle="90" x="99" y="0"/>
</glyph>
